<?xml version="1.0" standalone="no"?>
<!DOCTYPE svg PUBLIC "-//W3C//DTD SVG 1.1//EN" "http://www.w3.org/Graphics/SVG/1.1/DTD/svg11.dtd" >
<svg xmlns="http://www.w3.org/2000/svg">
<metadata></metadata>
<defs>
<font id="caecilia_lt_std56_italic" horiz-adv-x="1138" >
<font-face units-per-em="2048" ascent="1575" descent="-473" />
<missing-glyph horiz-adv-x="569" />
<glyph unicode="&#xfb01;" horiz-adv-x="1175" d="M-264 -508l10 137q37 -16 76 -22t74 -6q53 0 96 14t84 49q20 18 37.5 50t32 82t24.5 125t18 179l66 828h-164l10 129h162l12 119q10 104 38 182t81 130t133 77.5t195 25.5q68 0 125 -9t123 -28l-15 -131q-43 18 -95 28.5t-118 10.5q-63 0 -116.5 -13t-93 -47t-66.5 -90.5 t-35 -142.5l-12 -112h577l-84 -928h156l-12 -129h-314l84 928h-415l-66 -834q-14 -184 -45 -316t-113 -212q-57 -53 -123.5 -79t-138.5 -26q-55 0 -106 10.5t-82 20.5z" />
<glyph unicode="&#xfb02;" horiz-adv-x="1175" d="M-264 -508l10 137q37 -16 76 -22t74 -6q53 0 96 14t84 49q20 18 37.5 50t32 82t24.5 125t18 179l66 828h-164l10 129h162l12 119q10 104 38 182t81 130t133 77.5t195 25.5q53 0 108.5 -5t98.5 -11h141l-127 -1446h156l-13 -129h-315l127 1446q-35 8 -69.5 12t-86.5 4 q-63 0 -116.5 -13t-93 -47t-66.5 -90.5t-35 -142.5l-12 -112h309l-10 -129h-307l-66 -834q-12 -186 -43 -317t-115 -211q-57 -53 -123.5 -79t-138.5 -26q-55 0 -106 10.5t-82 20.5z" />
<glyph horiz-adv-x="2048" />
<glyph horiz-adv-x="2048" />
<glyph unicode="&#xd;" horiz-adv-x="569" />
<glyph unicode=" "  horiz-adv-x="569" />
<glyph unicode="&#x09;" horiz-adv-x="569" />
<glyph unicode="&#xa0;" horiz-adv-x="569" />
<glyph unicode="!" horiz-adv-x="606" d="M135 96q0 47 35 82t82 35t82 -35t35 -82t-35 -81.5t-82 -34.5t-82 34.5t-35 81.5zM217 471l78 1104h176l-109 -1104h-145z" />
<glyph unicode="&#x22;" horiz-adv-x="909" d="M223 1481q0 47 17.5 78.5t60.5 31.5t60.5 -31.5t17.5 -78.5q0 -51 -2 -89t-6 -73l-25 -260q-2 -23 -10 -38t-35 -15t-35 15t-10 38l-25 260q-4 35 -6 73t-2 89zM633 1481q0 47 17.5 78.5t60.5 31.5t60 -31.5t17 -78.5q0 -51 -2 -89t-6 -73l-24 -260q-2 -23 -10.5 -38 t-34.5 -15q-27 0 -35 15t-10 38l-25 260q-4 35 -6 73t-2 89z" />
<glyph unicode="#" d="M20 440l21 129h238l63 295h-231l20 129h240l94 441h123l-94 -441h272l94 441h123l-94 -441h229l-20 -129h-238l-63 -295h231l-20 -129h-240l-94 -440h-123l94 440h-272l-94 -440h-123l94 440h-230zM401 569h273l63 295h-272z" />
<glyph unicode="$" d="M61 43l13 315h133v-200q49 -16 118.5 -29.5t151.5 -13.5l49 559q-121 31 -199.5 71.5t-125.5 90t-66.5 104.5t-19.5 117q0 98 41 173t107.5 126t152.5 76.5t178 25.5l20 248h115l-20 -248q82 -6 176 -21.5t162 -39.5l-13 -293h-133v184q-35 12 -89 21.5t-116 9.5 l-43 -498q72 -16 148 -44.5t137 -75t100 -114t39 -161.5q0 -98 -35.5 -179t-100 -141.5t-157 -94.5t-202.5 -36l-25 -266h-115l25 266q-123 4 -228.5 23.5t-177.5 44.5zM291 1092q0 -57 22.5 -98.5t57.5 -70t80 -46t90 -27.5l41 469q-70 0 -124.5 -19.5t-91 -51t-56 -72.5 t-19.5 -84zM594 115q47 0 101.5 17.5t100.5 52t75.5 86t29.5 120.5q0 104 -69.5 167t-192.5 87z" />
<glyph unicode="%" horiz-adv-x="1630" d="M76 -39l1397 1589l90 -77l-1397 -1590zM119 1085q0 74 19.5 141.5t61.5 119t105.5 82t153.5 30.5q125 0 202.5 -82t77.5 -215q0 -63 -17 -128.5t-57 -118t-104.5 -86t-159.5 -33.5q-57 0 -108 18t-90 54t-61.5 90t-22.5 128zM258 1094q0 -74 40 -129.5t118 -55.5 q90 0 137 69t47 169q0 104 -40 150t-118 46q-49 0 -84.5 -20t-57 -55t-32 -80t-10.5 -94zM897 266q0 74 19.5 141.5t61.5 119t105.5 82t153.5 30.5q125 0 203 -82t78 -215q0 -63 -17.5 -129t-57.5 -118t-104.5 -86t-158.5 -34q-57 0 -108.5 18.5t-90.5 54.5t-61.5 90 t-22.5 128zM1036 274q0 -74 40 -129t118 -55q90 0 137 68.5t47 169.5q0 104 -40 150t-117 46q-49 0 -85 -20.5t-57.5 -55t-32 -80t-10.5 -94.5z" />
<glyph unicode="&#x26;" horiz-adv-x="1554" d="M106 360q0 90 33 161t97 136q57 57 115.5 96.5t99.5 67.5q-82 92 -123 168t-41 148q0 57 21.5 115.5t65.5 105.5t113.5 75.5t167.5 28.5q145 0 223 -72.5t78 -185.5q0 -70 -27.5 -127t-72.5 -104t-100.5 -87t-110.5 -73l408 -440q37 59 66.5 153.5t29.5 192.5h-139 l10 129h420l-13 -129h-139q-6 -119 -38.5 -224.5t-108.5 -213.5l33 -39q33 -37 57 -61.5t45.5 -39t42 -19.5t43.5 -5h86l-12 -129h-101q-33 0 -58.5 4t-48 14t-46 29.5t-52.5 50.5l-83 90q-23 -25 -60 -58.5t-93 -64t-138 -52t-195 -21.5q-115 0 -200 30.5t-141 82.5 t-85 121t-29 146zM262 387q0 -61 24.5 -112.5t67.5 -88t102.5 -57t131.5 -20.5q113 0 210 45t165 112l-437 469q-63 -45 -105 -79.5t-71 -65.5q-49 -51 -68.5 -101.5t-19.5 -101.5zM434 1143q0 -37 12.5 -71t32 -63.5t44 -57t46.5 -54.5q43 29 87 59.5t80 65.5t58.5 76 t22.5 90q0 59 -48 102t-124 43q-39 0 -77 -10t-67.5 -33.5t-48 -59.5t-18.5 -87z" />
<glyph unicode="'" horiz-adv-x="569" d="M258 1481q0 47 17.5 78.5t60.5 31.5t60.5 -31.5t17.5 -78.5q0 -51 -2 -89t-6 -73l-25 -260q-2 -23 -10.5 -38t-34.5 -15q-27 0 -35 15t-10 38l-25 260q-4 35 -6 73t-2 89z" />
<glyph unicode="(" horiz-adv-x="681" d="M180 414q0 131 30 282.5t91 309t155.5 313.5t223.5 295l102 -84q-96 -119 -175 -252t-134 -275.5t-86 -291t-31 -297.5q0 -250 50.5 -472.5t179.5 -418.5l-113 -76q-135 190 -214 438t-79 529z" />
<glyph unicode=")" horiz-adv-x="681" d="M-133 -469q96 119 175 252t134 275.5t86 291t31 297.5q0 250 -50 472t-180 419l113 76q135 -190 214 -438t79 -529q0 -131 -29.5 -282.5t-91 -309t-156 -313.5t-223.5 -295z" />
<glyph unicode="*" horiz-adv-x="720" d="M109 1190l243 90l-221 111l76 108l182 -170l-8 246h129l-57 -244l4 -4l192 156l68 -113l-244 -90l221 -111l-76 -108l-182 170l8 -246h-129l58 244l-4 4l-193 -156z" />
<glyph unicode="+" horiz-adv-x="1228" d="M96 449v139h449v448h139v-448h449v-139h-449v-449h-139v449h-449z" />
<glyph unicode="," horiz-adv-x="569" d="M41 -279q84 35 134 83.5t50 109.5q0 35 -10 58.5t-23.5 43t-23.5 38t-10 44.5q0 51 35.5 83t82.5 32q57 0 97.5 -45t40.5 -135q0 -145 -86 -248.5t-232 -157.5z" />
<glyph unicode="-" horiz-adv-x="757" d="M135 485l12 152h476l-13 -152h-475z" />
<glyph unicode="." horiz-adv-x="569" d="M168 96q0 47 35 82t82 35t81.5 -35t34.5 -82t-34.5 -81.5t-81.5 -34.5t-82 34.5t-35 81.5z" />
<glyph unicode="/" horiz-adv-x="796" d="M-51 -102l809 1693l112 -55l-809 -1694z" />
<glyph unicode="0" d="M66 596q0 152 29.5 305.5t97 277.5t177 201.5t269.5 77.5q117 0 199 -50t134 -137t76.5 -207t24.5 -259q0 -190 -39 -344t-109.5 -261.5t-171 -166t-223.5 -58.5q-80 0 -162.5 27t-149 95.5t-109.5 189.5t-43 309zM229 594q0 -76 11.5 -160t45 -154.5t94.5 -117.5 t157 -47q94 0 164.5 61.5t116.5 160.5t68.5 223t22.5 251q0 100 -14 192.5t-49 162t-91.5 111.5t-140.5 42q-78 0 -147.5 -47t-122.5 -138.5t-84 -226.5t-31 -313z" />
<glyph unicode="1" d="M152 1161l460 273h150l-113 -1305h295l-10 -129h-719l10 129h269l102 1171l-4 5q-16 -20 -41 -40t-57 -40l-279 -168z" />
<glyph unicode="2" d="M57 0l13 129q106 84 190 163t168 159q88 84 166 167.5t136 165.5t92 159t34 149q0 98 -68.5 162.5t-173.5 64.5q-66 0 -120 -22.5t-94 -59.5t-64.5 -86t-32.5 -102h-164q8 55 37 125.5t86 134t147.5 106.5t223.5 43q94 0 165.5 -29.5t121 -80t75 -116t25.5 -136.5 q0 -150 -102.5 -302.5t-266.5 -316.5q-98 -98 -198.5 -187t-192.5 -157v-4q29 4 74 7t84 3h588l-13 -139h-936z" />
<glyph unicode="3" d="M57 55l13 144q59 -25 159.5 -54.5t221.5 -29.5q94 0 163.5 25.5t116.5 66.5t70.5 93t23.5 108q0 55 -19.5 103t-66.5 85t-130 57.5t-208 20.5h-51l12 129h25q102 0 184 24.5t139.5 67.5t88 100.5t30.5 122.5q0 98 -59 149.5t-164 51.5q-68 0 -120 -19.5t-89 -51 t-58.5 -72.5t-29.5 -84h-155q6 57 36.5 121.5t88 118.5t143.5 90t205 36q68 0 134 -19.5t117.5 -59.5t83 -102.5t31.5 -148.5q0 -82 -33.5 -147.5t-86 -112.5t-117 -75.5t-127.5 -34.5v-4q70 -4 135 -28t115.5 -66t80 -104t29.5 -142q0 -92 -40 -173t-111.5 -139.5 t-174 -92.5t-227.5 -34q-41 0 -90 5.5t-99 15.5t-100.5 24.5t-89.5 34.5z" />
<glyph unicode="4" d="M29 440l12 144l698 850h191l-72 -865h252l-10 -129h-254l-25 -311h164l-10 -129h-459l10 129h140l24 311h-661zM190 565q18 2 37 3t37 1h438l60 703h-4z" />
<glyph unicode="5" d="M88 27l12 147q29 -12 70 -22.5t83 -18.5t83 -13t70 -5q109 0 186.5 29.5t126.5 77.5t71.5 108.5t22.5 122.5q0 88 -39 147t-117.5 96t-196.5 55.5t-278 24.5l64 658h737l-10 -140h-586l-41 -389q133 -6 249 -30.5t201 -74.5t133 -132t48 -203q0 -84 -33 -170 t-100.5 -157.5t-172 -117t-249.5 -45.5q-96 0 -184 15.5t-150 36.5z" />
<glyph unicode="6" d="M102 549q0 184 45.5 349t138.5 289t236.5 197.5t341.5 73.5q82 0 141.5 -12t94.5 -27l-29 -131q-41 14 -100.5 22.5t-100.5 8.5q-135 0 -237.5 -44t-176 -125t-120.5 -194.5t-70 -250.5l4 -5q66 94 161 137.5t198 43.5q92 0 168.5 -29t132 -82t86.5 -131t31 -178 q0 -78 -27 -163t-84 -156.5t-147.5 -119t-219.5 -47.5q-127 0 -216 46.5t-144 124t-81 182t-26 221.5zM266 522q0 -80 16.5 -153.5t53.5 -130t95 -90t144 -33.5q74 0 131.5 29.5t96.5 76.5t59.5 108.5t20.5 125.5q0 133 -78 215t-207 82q-90 0 -178 -44t-154 -130v-56z" />
<glyph unicode="7" d="M115 0q29 39 82 114.5t104 161.5l442 766q49 86 89 148.5t75 103.5h-725l13 140h895l-11 -111l-647 -1118q-29 -49 -58.5 -94t-74.5 -111h-184z" />
<glyph unicode="8" d="M57 336q0 137 101.5 241.5t292.5 176.5q-147 59 -213 147t-66 191q0 88 36 156.5t98.5 114.5t146.5 70.5t182 24.5q104 0 180 -26.5t126 -69.5t74.5 -99.5t24.5 -117.5q0 -131 -91 -230.5t-251 -158.5q96 -43 162 -86t106 -89t57 -97.5t17 -110.5q0 -80 -31.5 -151.5 t-94 -126t-154.5 -87.5t-215 -33q-109 0 -199 22.5t-154.5 67t-99.5 112t-35 159.5zM221 340q0 -104 84 -170t238 -66q88 0 151.5 21.5t103.5 57.5t59.5 83.5t19.5 100.5q0 39 -12.5 76.5t-46.5 75.5t-96.5 78t-162.5 87q-94 -45 -158.5 -84t-104.5 -79t-57.5 -83t-17.5 -98 zM336 1100q0 -88 61.5 -149.5t188.5 -125.5q129 53 210 128t81 186q0 90 -68.5 140t-181.5 50q-72 0 -126.5 -19.5t-91 -51t-55 -72.5t-18.5 -86z" />
<glyph unicode="9" d="M49 8l29 139q63 -18 114.5 -25t104.5 -7q141 0 243.5 53t172 142t109.5 206t52 244l-4 4q-20 -41 -56 -76t-82 -59.5t-98 -39t-108 -14.5q-88 0 -162.5 29t-130 82t-86 130t-30.5 175q0 100 32.5 186.5t93 149t146.5 97t191 34.5q129 0 216 -50t141 -132t77.5 -185.5 t23.5 -209.5q0 -162 -37.5 -324t-122.5 -291t-223.5 -210t-339.5 -81q-74 0 -136 7.5t-130 25.5zM272 999q0 -59 17.5 -111t52.5 -91t88 -60.5t125 -21.5q109 0 194 49t125 110q0 61 -11 138.5t-43 145t-91.5 114.5t-155.5 47q-57 0 -111 -21.5t-96 -62.5t-68 -100.5 t-26 -135.5z" />
<glyph unicode=":" horiz-adv-x="569" d="M158 96q0 47 34.5 82t81.5 35t82 -35t35 -82t-34.5 -81.5t-82.5 -34.5q-47 0 -81.5 34.5t-34.5 81.5zM244 940q0 47 34.5 82t81.5 35t82 -35t35 -82t-34.5 -82t-82.5 -35q-47 0 -81.5 35t-34.5 82z" />
<glyph unicode=";" horiz-adv-x="569" d="M41 -279q84 35 134 83.5t50 109.5q0 35 -10 58.5t-23.5 43t-23.5 38t-10 44.5q0 51 35.5 83t82.5 32q57 0 97.5 -45t40.5 -135q0 -145 -86 -248.5t-232 -157.5zM244 940q0 47 34.5 82t81.5 35t82 -35t35 -82t-34.5 -82t-82.5 -35q-47 0 -81.5 35t-34.5 82z" />
<glyph unicode="&#x3c;" horiz-adv-x="1228" d="M96 455v129l1037 469v-140l-873 -395l873 -395v-139z" />
<glyph unicode="=" horiz-adv-x="1228" d="M96 244v139h1037v-139h-1037zM96 653v140h1037v-140h-1037z" />
<glyph unicode="&#x3e;" horiz-adv-x="1228" d="M96 -16v139l873 395l-873 395v140l1037 -471v-129z" />
<glyph unicode="?" horiz-adv-x="985" d="M164 96q0 47 34.5 82t82.5 35q47 0 81.5 -35t34.5 -82t-34.5 -81.5t-81.5 -34.5t-82 34.5t-35 81.5zM188 608q0 72 34 120t89 85l246 168q51 35 85 64.5t53.5 58.5t26.5 61.5t7 73.5q0 37 -12 75t-43 68.5t-81 50t-126 19.5q-78 0 -142.5 -14.5t-113.5 -30.5l-6 139 q33 12 71.5 20.5t76.5 13.5t71 8t57 3q100 0 177 -27.5t129.5 -74.5t79 -110.5t26.5 -137.5q0 -68 -18.5 -121t-50 -98t-74.5 -80t-91 -65l-153 -99q-49 -31 -79 -55.5t-47.5 -44t-22.5 -36.5t-5 -36q0 -37 17.5 -63.5t40.5 -46.5l-140 -66q-33 35 -57.5 83t-24.5 95z" />
<glyph unicode="@" horiz-adv-x="1638" d="M74 719q0 156 56 292t158.5 236.5t246 157.5t317.5 57q152 0 282 -45t226 -126t150.5 -194.5t54.5 -248.5q0 -150 -53.5 -258.5t-131 -178t-166 -102.5t-159.5 -33q-76 0 -109 34t-35 85h-4q-41 -47 -103.5 -83t-141.5 -36q-57 0 -107.5 23t-87.5 66t-58.5 102t-21.5 133 q0 106 37 203.5t98.5 172.5t141 119t165.5 44q152 0 232 -156l37 117h145l-139 -500q-16 -59 -24.5 -91t-8.5 -46q0 -20 13.5 -33.5t54.5 -13.5t85 32.5t80.5 88t60.5 129t24 157.5q0 111 -44.5 201t-118 153.5t-171 98.5t-203.5 35q-133 0 -243.5 -48.5t-190.5 -130 t-124 -190t-44 -231.5q0 -137 47 -246t128 -184.5t187.5 -116.5t223.5 -41q168 0 294.5 48t206.5 140h164q-41 -74 -103.5 -135t-146.5 -107t-188.5 -72t-226.5 -26q-160 0 -298.5 51.5t-241.5 147.5t-162.5 234.5t-59.5 314.5zM543 618q0 -92 43 -141t114 -49 q68 0 123.5 37t94 92t60 120t21.5 120q0 102 -43 146t-118 44q-66 0 -120 -33.5t-93 -87t-60.5 -119t-21.5 -129.5z" />
<glyph unicode="A" horiz-adv-x="1517" d="M-4 0l8 129h129l602 1305h189l368 -1305h150l-8 -129h-451l8 129h125l-117 436h-510l-192 -436h158l-9 -129h-450zM547 694h420l-109 406q-23 78 -32 121t-15 84h-4q-10 -41 -30.5 -89.5t-51.5 -119.5z" />
<glyph unicode="B" horiz-adv-x="1214" d="M47 0l12 129h129l105 1176h-164l12 129h475q139 0 224.5 -31t132.5 -79t62.5 -104.5t15.5 -107.5q0 -80 -27 -144.5t-72 -110.5t-102 -72.5t-119 -32.5v-4q70 0 134.5 -19.5t113.5 -58.5t78.5 -97.5t29.5 -138.5q0 -90 -30.5 -169t-96 -138t-166 -93t-239.5 -34h-508z M352 129h187q186 0 279 83t93 222q0 49 -16 94t-53 80t-98.5 56.5t-153.5 21.5h-189zM412 801h137q74 0 135 19.5t106.5 58.5t71 94t25.5 127q0 43 -14.5 81t-48 65.5t-88 43t-134.5 15.5h-145z" />
<glyph unicode="C" horiz-adv-x="1327" d="M104 633q0 164 46.5 313.5t141.5 264t240.5 183t346.5 68.5q86 0 181 -15t183 -44l-16 -295h-140v190q-47 18 -102 26.5t-108 8.5q-158 0 -270.5 -55t-184.5 -151.5t-106.5 -224.5t-34.5 -273q0 -129 36.5 -227.5t103 -166t159 -101.5t200.5 -34q84 0 135.5 9.5 t100.5 23.5l24 197h146l-31 -293q-39 -12 -87 -24.5t-100.5 -21.5t-104.5 -14.5t-99 -5.5q-156 0 -277.5 45t-206.5 130t-130.5 208t-45.5 279z" />
<glyph unicode="D" horiz-adv-x="1478" d="M47 0l12 129h129l105 1176h-164l12 129h590q186 0 314.5 -49.5t205 -133.5t110.5 -193.5t34 -228.5q0 -193 -54.5 -346t-157 -260.5t-251 -165t-336.5 -57.5h-549zM352 129h240q145 0 262 48t198 137t124 218.5t43 292.5q0 225 -118 352.5t-372 127.5h-272z" />
<glyph unicode="E" horiz-adv-x="1175" d="M47 0l12 129h129l105 1176h-164l12 129h932l-20 -326h-133l8 197h-471l-45 -504h481l-12 -129h-480l-49 -543h516l25 201h145l-32 -330h-959z" />
<glyph unicode="F" horiz-adv-x="1099" d="M47 0l12 129h129l105 1176h-164l12 129h932l-20 -326h-133l8 197h-471l-47 -527h473l-13 -129h-471l-47 -520h164l-12 -129h-457z" />
<glyph unicode="G" horiz-adv-x="1441" d="M104 641q0 96 18.5 194.5t57.5 189.5t99.5 171t145.5 139.5t193.5 93t245.5 33.5q123 0 227.5 -23.5t172.5 -39.5l-17 -291h-139v190q-59 14 -113.5 24.5t-136.5 10.5q-109 0 -213 -36.5t-185 -118.5t-130 -211t-49 -316q0 -104 26.5 -203.5t86 -176t154.5 -124 t232 -47.5q66 0 137.5 13.5t118.5 29.5l33 353h-164l13 129h444l-12 -129h-133l-41 -449q-88 -33 -202 -54.5t-235 -21.5q-152 0 -270.5 46t-199.5 133.5t-123 211t-42 279.5z" />
<glyph unicode="H" horiz-adv-x="1517" d="M47 0l12 129h129l105 1176h-164l12 129h457l-12 -129h-129l-47 -527h708l47 527h-164l13 129h456l-12 -129h-129l-104 -1176h164l-13 -129h-456l12 129h129l47 520h-709l-47 -520h164l-12 -129h-457z" />
<glyph unicode="I" horiz-adv-x="645" d="M47 0l12 129h129l105 1176h-164l12 129h457l-12 -129h-129l-105 -1176h164l-12 -129h-457z" />
<glyph unicode="J" horiz-adv-x="645" d="M-227 -248q123 63 204.5 134t133 157t75 191.5t33.5 236.5l74 834h-164l12 129h457l-12 -129h-129l-74 -832q-14 -166 -51 -294t-103.5 -228.5t-164 -176t-232.5 -136.5z" />
<glyph unicode="K" horiz-adv-x="1327" d="M47 0l12 129h129l105 1176h-164l12 129h457l-12 -129h-129l-47 -527l598 527h-164l8 129h473l-8 -129h-117l-614 -555l565 -621h129l-8 -129h-481l8 129h139l-532 592l-54 -592h164l-12 -129h-457z" />
<glyph unicode="L" horiz-adv-x="1062" d="M47 0l12 129h129l105 1176h-164l12 129h457l-12 -129h-129l-105 -1176h457l25 201h145l-33 -330h-899z" />
<glyph unicode="M" horiz-adv-x="1857" d="M53 0l8 129h129l111 1176h-156l9 129h372l314 -1074q16 -53 24 -99t19 -97h4q10 43 26.5 91t40.5 103l494 1076h356l-8 -129h-129l-88 -1176h164l-8 -129h-457l8 129h129l82 1085h-4q-10 -23 -27.5 -68.5t-40.5 -92.5l-483 -1053h-164l-303 1034q-16 49 -24.5 90 t-14.5 76h-4l-102 -1071h164l-9 -129h-432z" />
<glyph unicode="N" horiz-adv-x="1554" d="M43 0l12 129h129l105 1176h-164l12 129h287l670 -1084q12 -20 24 -44.5t23 -59.5l4 4q-1 15 -1 31q0 31 3 65q4 51 6 76l78 883h-164l12 129h432l-12 -129h-129l-117 -1305h-133l-657 1063q-18 29 -31.5 54.5t-21.5 58.5h-4q0 -45 -4.5 -110t-8.5 -124l-69 -813h163 l-12 -129h-432z" />
<glyph unicode="O" horiz-adv-x="1478" d="M104 625q0 190 51.5 345.5t143.5 264t219 168t281 59.5q156 0 265.5 -53t178 -143t100 -209t31.5 -248q0 -190 -51 -346t-143.5 -264.5t-220.5 -168t-281 -59.5q-156 0 -264.5 53.5t-177 143.5t-100.5 209t-32 248zM281 623q0 -139 32.5 -236.5t88 -159t130 -89 t160.5 -27.5q113 0 206 46t159.5 135t103.5 220t37 301q0 137 -32.5 234.5t-88 159t-131.5 89t-162 27.5q-111 0 -204 -46t-159.5 -135t-103 -219t-36.5 -300z" />
<glyph unicode="P" d="M47 0l12 129h129l105 1176h-164l12 129h467q236 0 347.5 -98.5t111.5 -284.5q0 -84 -25.5 -168t-87 -150.5t-166 -108.5t-260.5 -42q-51 0 -84.5 3t-50.5 7l-41 -463h164l-12 -129h-457zM406 717q31 -6 104 -6q88 0 160.5 19.5t125 60t80 103t27.5 150.5q0 133 -80 199 q-41 33 -98 47.5t-152 14.5h-116z" />
<glyph unicode="Q" horiz-adv-x="1478" d="M104 625q0 190 51.5 345.5t143.5 264t219 168t281 59.5q156 0 265.5 -53t178 -143t100 -209t31.5 -248q0 -174 -41 -312.5t-110.5 -239.5t-159.5 -166.5t-189 -94.5v-4q37 0 71 -8.5t72 -23.5t84 -39.5t107 -59.5q53 -31 95.5 -53.5t76 -36t63.5 -19.5t58 -6q33 0 57.5 8 t47.5 19l-11 -133q-23 -10 -54.5 -21.5t-74.5 -11.5q-31 0 -63.5 6t-75.5 23.5t-100.5 48t-139.5 79.5q-104 61 -175.5 98.5t-126 58t-96.5 29.5t-85 15q-256 41 -378 213t-122 447zM281 623q0 -139 32.5 -236.5t88 -159t130 -89t160.5 -27.5q113 0 206 46t159.5 135 t103.5 220t37 301q0 137 -32.5 234.5t-88 159t-131.5 89t-162 27.5q-111 0 -204 -46t-159.5 -135t-103 -219t-36.5 -300z" />
<glyph unicode="R" horiz-adv-x="1251" d="M47 0l12 129h129l105 1176h-164l12 129h471q127 0 214 -27t141.5 -75t78 -113.5t23.5 -145.5q0 -96 -36 -170t-94 -124t-132 -76.5t-150 -26.5v-4q45 -6 77 -17.5t60.5 -42t62.5 -90t83 -160.5q41 -84 67.5 -131t49 -69.5t45 -27.5t55.5 -5h47v-129h-151q-43 0 -73 9 t-61.5 47t-71.5 116t-106 217q-37 78 -63.5 126t-54 74.5t-61.5 36t-85 9.5h-80l-45 -506h164l-12 -129h-457zM408 750h145h13q74 0 134 20q64 22 110 64.5t70.5 101.5t24.5 133q0 47 -15.5 90t-50 75t-91 51.5t-138.5 19.5h-153z" />
<glyph unicode="S" d="M88 41l12 315h133v-200q27 -8 62 -16.5t71.5 -14.5t73.5 -10t68 -4q172 0 269 78.5t97 213.5q0 80 -54 130.5t-135 86t-175 67.5t-175 77t-135.5 112.5t-54.5 174.5q0 86 34 161.5t99.5 131t162 87t223.5 31.5q115 0 197.5 -19.5t162.5 -41.5l-12 -293h-133v190 q-35 12 -94.5 23.5t-120.5 11.5q-166 0 -254 -64.5t-88 -193.5q0 -84 54 -132t135 -82t175 -62.5t175 -73.5t135.5 -116.5t54.5 -188.5q0 -102 -40 -185t-112 -141.5t-172 -90.5t-219 -32q-35 0 -85 4.5t-106.5 13.5t-116 22.5t-112.5 29.5z" />
<glyph unicode="T" horiz-adv-x="1251" d="M49 1104l25 330h1194l-25 -326h-139l8 197h-364l-105 -1176h164l-12 -129h-457l12 129h129l105 1176h-371l-25 -201h-139z" />
<glyph unicode="U" horiz-adv-x="1478" d="M109 1305l12 129h457l-13 -129h-129l-74 -838q-2 -28 -2 -54q0 -51 8 -95q12 -66 50.5 -112t106 -70.5t173.5 -24.5q186 0 286.5 91t119.5 294l72 809h-164l12 129h438l-12 -129h-129l-72 -820q-10 -113 -45 -207t-102.5 -162.5t-173 -106.5t-254.5 -38q-123 0 -215 27 t-153 84q-62 56 -90 148q-20 66 -20 152q0 34 3 71l73 852h-163z" />
<glyph unicode="V" horiz-adv-x="1441" d="M66 1305l12 129h461l-13 -129h-129l236 -932q14 -55 26.5 -108.5t22.5 -125.5h4q14 51 31.5 95.5t40.5 97.5l411 973h-155l12 129h449l-13 -129h-129l-583 -1305h-177l-352 1305h-155z" />
<glyph unicode="W" horiz-adv-x="2123" d="M57 1305l13 129h460l-12 -129h-129l244 -1006q10 -41 17 -79t14 -91h4q10 43 27.5 85t33.5 83l320 752l-68 256h-156l13 129h460l-12 -129h-129l236 -959q10 -47 20 -97t14 -110h5q10 53 29.5 105.5t35.5 93.5l354 967h-155l12 129h449l-13 -129h-129l-510 -1305h-188 l-209 838h-4l-365 -838h-188l-338 1305h-156z" />
<glyph unicode="X" horiz-adv-x="1441" d="M23 0l8 129h129l481 612l-338 564h-139l8 129h457l-8 -129h-136q20 -25 33 -45l230 -394l301 394q20 27 41 45h-170l8 129h469l-8 -129h-129l-441 -553l371 -623h139l-8 -129h-463l8 129h135q-18 20 -34 51l-256 443l-336 -443q-18 -25 -45 -51h170l-8 -129h-469z" />
<glyph unicode="Y" horiz-adv-x="1366" d="M33 1305l8 129h469l-8 -129h-131q8 -10 13 -20.5t13 -24.5l299 -537l387 537q10 16 19.5 25t19.5 20h-170l9 129h456l-8 -129h-129l-522 -709l-39 -467h164l-13 -129h-456l12 129h129l41 459l-416 717h-147z" />
<glyph unicode="Z" horiz-adv-x="1251" d="M37 0l12 117l871 1100q25 33 48 55t36 37q-27 -4 -54.5 -4h-56.5h-559l-29 -201h-139l24 330h1024l-10 -113l-833 -1063q-31 -39 -63 -72.5t-58 -56.5v-4q29 4 54.5 4h47.5h631l25 201h145l-33 -330h-1083z" />
<glyph unicode="[" horiz-adv-x="645" d="M119 -514l180 2089h360l-12 -129h-201l-161 -1831h194l-12 -129h-348z" />
<glyph unicode="\" horiz-adv-x="796" d="M12 1536l117 55l662 -1693l-117 -56z" />
<glyph unicode="]" horiz-adv-x="645" d="M-47 -514l12 129h201l162 1831h-195l12 129h349l-181 -2089h-360z" />
<glyph unicode="^" horiz-adv-x="1228" d="M182 686l371 748h123l371 -748h-140l-293 588l-292 -588h-140z" />
<glyph unicode="_" horiz-adv-x="1024" d="M0 -154h1024v-102h-1024v102z" />
<glyph unicode="`" horiz-adv-x="569" d="M92 1495l113 80l297 -277l-105 -81z" />
<glyph unicode="a" d="M106 362q0 104 17.5 193.5t44.5 162.5t60.5 127t66.5 87q90 90 188.5 117.5t198.5 27.5q63 0 117.5 -12t107.5 -37h70q-12 -55 -23.5 -160.5t-22.5 -232.5t-21.5 -261t-16.5 -245h156l-13 -129h-307q6 66 13.5 137.5t17.5 142t21.5 134t25.5 114.5l-4 4q-20 -74 -53 -169 t-84.5 -180t-123 -144t-167.5 -59q-66 0 -116 27.5t-84 78.5t-51.5 122t-17.5 154zM270 365q0 -233 123 -234q82 0 151.5 79t123 197.5t89.5 257t48 257.5q-31 12 -65.5 19t-82.5 7q-115 0 -188.5 -52t-118.5 -136t-62.5 -187.5t-17.5 -207.5z" />
<glyph unicode="b" d="M80 1446l10 129h348q-16 -147 -25.5 -279.5t-19.5 -255t-23.5 -238.5t-37.5 -233h4q66 242 178.5 375t265.5 133q72 0 120 -31.5t78 -86t42 -125t12 -148.5q0 -53 -9 -125t-33.5 -150.5t-64.5 -155.5t-101.5 -138.5t-147.5 -99t-199 -37.5q-104 0 -194 21.5t-144 49.5 q12 82 26.5 221.5t30 321.5t33 398t39.5 454h-188zM309 139q23 -10 72 -20t102 -10q96 0 168 49t120 131t72.5 187t24.5 218q0 119 -27.5 181.5t-86.5 62.5q-72 0 -144.5 -63.5t-135 -172t-106.5 -254t-59 -309.5z" />
<glyph unicode="c" horiz-adv-x="872" d="M70 451q0 129 32.5 243.5t97 199.5t162 134t226.5 49q55 0 118.5 -9t116.5 -28l-20 -266h-133l8 162q-23 6 -45.5 9t-50.5 3q-90 0 -156 -37t-109 -102.5t-63.5 -154.5t-20.5 -191q0 -92 20.5 -157.5t56.5 -107.5t85 -60.5t105 -18.5q70 0 143.5 24.5t128.5 53.5 l-14 -146q-53 -29 -124 -50t-169 -21q-111 0 -186.5 41.5t-121.5 109.5t-66.5 152t-20.5 168z" />
<glyph unicode="d" d="M106 362q0 104 17.5 193.5t44.5 162.5t60.5 127t66.5 87q66 66 146.5 105.5t209.5 39.5q18 0 43 -2t49.5 -5t44 -7t27.5 -6l33 389h-189l13 129h348l-127 -1446h156l-13 -129h-305q6 66 13.5 137.5t17.5 142t21.5 135t23.5 115.5h-4q-20 -72 -53 -167t-84.5 -180 t-123 -144t-167.5 -59q-80 0 -131 34.5t-82 89t-43.5 123t-12.5 135.5zM270 365q0 -233 123 -234q82 0 151.5 79t123 197.5t89.5 257t48 257.5q-31 12 -65.5 19t-82.5 7q-115 0 -188.5 -52t-118.5 -136t-62.5 -187.5t-17.5 -207.5z" />
<glyph unicode="e" horiz-adv-x="948" d="M70 455q0 139 40 252.5t109 197.5q70 82 157 127t212 45q76 0 131 -20.5t90 -54t52.5 -76.5t17.5 -88q0 -94 -51.5 -167t-138.5 -126t-204.5 -87t-251.5 -48q0 -162 74 -226.5t195 -64.5q68 0 146.5 23.5t150.5 70.5l-19 -156q-39 -23 -123 -50t-196 -27 q-195 0 -293 109.5t-98 365.5zM233 524q111 14 199 38t151.5 59.5t97.5 86.5t34 119q0 43 -37 82t-119 39q-74 0 -130 -33.5t-97 -92t-65.5 -135.5t-33.5 -163z" />
<glyph unicode="f" horiz-adv-x="681" d="M-264 -508l10 137q37 -16 76 -22t74 -6q53 0 96 14t84 49q20 18 37.5 50t32 82t24.5 125t18 179l66 828h-164l10 129h162l12 119q10 104 38 182t81 130t133 77.5t195 25.5q47 0 97 -5t87 -21l-10 -127q-39 12 -76 18t-78 6q-63 0 -116.5 -13t-93 -47t-66.5 -90.5 t-35 -142.5l-12 -112h276l-10 -129h-274l-66 -834q-14 -184 -45 -316t-113 -212q-57 -53 -123.5 -79t-138.5 -26q-55 0 -106 10.5t-82 20.5z" />
<glyph unicode="g" horiz-adv-x="1099" d="M70 -438l6 149q47 -35 118.5 -65.5t176.5 -30.5q80 0 144.5 19.5t109.5 66.5q57 59 82.5 142t38 187.5t23.5 228.5t44 269l-4 4q-25 -63 -62.5 -152t-93 -171t-130 -139.5t-171.5 -57.5q-74 0 -122 31t-77.5 82t-42 116.5t-12.5 133.5q0 150 38 278.5t110.5 223 t176 147.5t234.5 53q72 0 135.5 -14t120.5 -29h74q-12 -98 -21.5 -204.5t-18.5 -227.5t-20.5 -258t-27.5 -293q-16 -152 -51 -259t-94.5 -175t-148.5 -99.5t-212 -31.5q-37 0 -80 5t-88 15.5t-85 24.5t-70 31zM262 375q0 -233 121 -234q63 0 131 62.5t126 169t105.5 247 t71.5 298.5q-25 10 -66 20t-104 10q-113 0 -187.5 -52t-118.5 -134t-61.5 -184.5t-17.5 -202.5z" />
<glyph unicode="h" horiz-adv-x="1175" d="M90 1446l12 129h349q-10 -88 -21.5 -223t-25 -280.5t-32 -287t-42.5 -241.5l4 -4q27 102 75 199.5t111.5 172t136 120.5t148.5 46q104 0 153.5 -64.5t49.5 -203.5q0 -63 -7.5 -144t-17.5 -170t-22.5 -183.5t-22.5 -182.5h156l-13 -129h-315q14 127 29.5 246t28 221 t20.5 183t8 130q0 86 -21.5 116t-68.5 30q-57 0 -109.5 -38t-97.5 -99.5t-82 -136t-65.5 -148.5t-46 -138.5t-23.5 -103.5l-43 -262h-156q18 131 34.5 276.5t30 290t25 282.5t20.5 254t17 206t13 137h-189z" />
<glyph unicode="i" horiz-adv-x="569" d="M82 928l12 129h322l-84 -928h155l-12 -129h-313l84 928h-164zM250 1475q0 47 35 81.5t82 34.5t81.5 -34.5t34.5 -81.5t-34.5 -82t-81.5 -35t-82 34.5t-35 82.5z" />
<glyph unicode="j" horiz-adv-x="606" d="M-168 -422q96 33 163.5 74t112 105.5t70 163.5t39.5 251l70 756h-164l12 129h322l-78 -889q-16 -184 -55 -305t-102.5 -200t-148.5 -125t-194 -77zM291 1475q0 47 34.5 81.5t82.5 34.5q47 0 81.5 -34.5t34.5 -81.5t-34.5 -82t-81.5 -35t-82 35t-35 82z" />
<glyph unicode="k" horiz-adv-x="1099" d="M90 1446l12 129h349q-14 -119 -21.5 -230.5t-15.5 -221t-22.5 -218t-41.5 -223.5l4 -4q18 57 51 126.5t84.5 130t120 101.5t160.5 41q57 0 101 -18.5t73 -47t43 -64.5t14 -70q0 -90 -49 -162t-119.5 -124t-148.5 -84t-135 -42q23 -16 57.5 -55t74.5 -87.5t83 -99.5 t84 -94h153l-12 -129h-248l-383 461q-10 -43 -17 -107.5t-14.5 -132t-12.5 -128t-7 -93.5h-155q18 195 34.5 378t31.5 360t29.5 352.5t31.5 355.5h-189zM369 502q115 25 201.5 60.5t146 80.5t90.5 93.5t31 97.5q0 47 -32 75.5t-79 28.5q-74 0 -134.5 -46t-105.5 -113.5 t-74.5 -143.5t-43.5 -133z" />
<glyph unicode="l" horiz-adv-x="569" d="M90 1446l12 129h349l-127 -1446h155l-12 -129h-315l127 1446h-189z" />
<glyph unicode="m" horiz-adv-x="1781" d="M78 928l12 129h322q-10 -61 -18.5 -118.5t-16.5 -117t-17.5 -127t-23.5 -151.5l4 -4q25 106 70 203.5t106.5 172t135 118.5t155.5 44q55 0 92 -22.5t58.5 -60.5t30.5 -85t9 -96q0 -47 -4 -93t-14 -83l4 -4q25 84 67 164t97 142t119.5 100t134.5 38q104 0 153.5 -64.5 t49.5 -203.5q0 -63 -7.5 -144t-17.5 -170t-22.5 -183.5t-22.5 -182.5h156l-13 -129h-315q14 127 29.5 246t28 221t20.5 183t8 130q0 86 -21.5 116t-68.5 30q-49 0 -110.5 -54.5t-119 -145.5t-103.5 -209t-67 -245l-45 -272h-155q4 33 12 92.5t17.5 132t19.5 152.5t17 152.5 t12.5 131t5.5 91.5q0 96 -23.5 135t-70.5 39q-39 0 -82 -30t-85 -80t-80 -116.5t-71 -140.5t-56.5 -151.5t-33.5 -149.5l-41 -258h-156q33 248 55.5 479.5t43.5 448.5h-164z" />
<glyph unicode="n" horiz-adv-x="1175" d="M74 928l12 129h322q-10 -61 -18.5 -118.5t-16.5 -117t-18.5 -128t-24.5 -152.5l4 -2q27 102 75 199.5t111.5 172t136 120.5t148.5 46q104 0 153.5 -64.5t49.5 -203.5q0 -63 -7.5 -144t-17.5 -170t-22.5 -183.5t-22.5 -182.5h156l-13 -129h-315q14 127 29.5 246t28 221 t20.5 183t8 130q0 86 -21.5 116t-68.5 30q-57 0 -109.5 -38t-97.5 -99.5t-82 -136t-65.5 -148.5t-46 -138.5t-23.5 -103.5l-43 -262h-156q33 248 55.5 479.5t43.5 448.5h-164z" />
<glyph unicode="o" horiz-adv-x="1024" d="M70 451q0 127 31.5 240.5t94 199.5t153.5 136t210 50q111 0 186.5 -43t121.5 -110.5t66.5 -151.5t20.5 -168q0 -129 -31.5 -243.5t-94 -198.5t-153.5 -133t-210 -49q-111 0 -186.5 41.5t-121.5 109.5t-66.5 152t-20.5 168zM233 444q0 -168 71 -246.5t173 -78.5 q55 0 111.5 23.5t101.5 80t73 151.5t28 238q0 168 -71 247t-173 79q-55 0 -111.5 -23.5t-101.5 -81t-73 -152t-28 -237.5z" />
<glyph unicode="p" d="M-35 -514l12 129h129l117 1313h-164l13 129h321q-12 -129 -31.5 -252t-29.5 -236l4 -4q66 244 178.5 378t265.5 134q72 0 120 -31.5t78 -86t42 -125t12 -148.5q0 -53 -9 -125t-33.5 -150.5t-64.5 -155.5t-101.5 -138.5t-147.5 -99t-199 -37.5q-72 0 -115 8t-65 12 l-35 -385h164l-12 -129h-449zM309 139q23 -10 69 -20t105 -10q96 0 168 49t120 131t72.5 186.5t24.5 214.5q0 113 -27.5 174.5t-86.5 61.5q-72 0 -144.5 -63.5t-135 -171t-106.5 -250t-59 -302.5z" />
<glyph unicode="q" d="M106 369q0 152 38 281.5t111 225t179.5 148.5t245.5 53q70 0 128 -13t112 -30h79q-10 -57 -20 -153.5t-21.5 -215t-22.5 -255t-22.5 -274.5t-21.5 -272t-23 -249h164l-12 -129h-449l13 129h129q10 98 19 217t21.5 242t28 240.5t35.5 213.5h-4q-41 -121 -85 -221t-97 -173 t-119 -113.5t-150 -40.5q-111 0 -183.5 95t-72.5 294zM270 367q0 -236 123 -236q63 0 131 62.5t126.5 170t105.5 251t71 303.5q-25 10 -65.5 20t-104.5 10q-115 0 -188.5 -52t-118.5 -135t-62.5 -187.5t-17.5 -206.5z" />
<glyph unicode="r" horiz-adv-x="833" d="M78 928l12 129h307q-6 -68 -16 -184.5t-33 -272.5l4 -4q23 109 52.5 198t73.5 151.5t103.5 97t141.5 34.5q59 0 100 -10l-24 -149q-16 4 -33.5 6t-36.5 2q-78 0 -141.5 -47.5t-115.5 -156t-91 -285.5t-68 -437h-155q33 242 50 477.5t34 450.5h-164z" />
<glyph unicode="s" horiz-adv-x="948" d="M70 45l20 266h133l-8 -161q35 -16 94.5 -28.5t126.5 -12.5q113 0 171.5 55t58.5 131q0 53 -40 87t-101.5 59.5t-131 50t-131 58.5t-101.5 84t-40 128q0 139 95 227t294 88q102 0 185 -19.5t132 -35.5l-20 -266h-133l8 162q-35 14 -84 22t-96 8q-66 0 -109 -15t-69.5 -38 t-37 -51.5t-10.5 -52.5q0 -35 14.5 -60.5t40 -45t61.5 -35t79 -32.5l119 -45q51 -18 93 -39.5t72.5 -50t48 -68.5t17.5 -98q0 -166 -106.5 -251.5t-292.5 -85.5q-123 0 -207 21.5t-145 43.5z" />
<glyph unicode="t" horiz-adv-x="720" d="M72 928l10 129h172l25 264l155 6l-24 -270h301l-11 -129h-303l-57 -645q-2 -18 -2 -34q0 -54 20 -87q26 -43 91 -43q66 0 119 18.5t100 44.5l-13 -145q-39 -20 -99 -38.5t-138 -18.5q-126 0 -188 72q-50 58 -49 182q0 32 3 67l58 627h-170z" />
<glyph unicode="u" horiz-adv-x="1214" d="M106 928l13 129h315q-31 -256 -58.5 -453.5t-27.5 -327.5q0 -80 21.5 -112.5t68.5 -32.5q57 0 109.5 38t97.5 99.5t82 136t65.5 148.5t46 138.5t23.5 103.5l43 262h156q-33 -248 -55.5 -479.5t-42.5 -448.5h163l-12 -129h-321q10 61 18 118.5t16.5 117t18.5 128t24 152.5 l-4 2q-27 -102 -75 -199.5t-111.5 -173t-136 -120.5t-148.5 -45q-202 0 -202 265q0 77 7 160.5t18 173t22.5 177.5t21.5 172h-156z" />
<glyph unicode="v" d="M51 928l12 129h328q-4 -59 -8 -132t-7 -146.5t-6 -142.5t-3 -120q0 -121 7 -197.5t22.5 -121.5t39 -61.5t58.5 -16.5q61 0 121.5 50t110.5 151.5t86 253t50 354.5h-164l13 129h315q-16 -221 -54 -418t-104.5 -343t-166 -231t-238.5 -85q-74 0 -124 28.5t-81 93t-44 166.5 q-11 88 -11 210v38q2 86 5 186.5t7 225.5h-164z" />
<glyph unicode="w" horiz-adv-x="1705" d="M74 928l12 129h330q-6 -78 -14.5 -170t-15.5 -181.5t-13 -166t-6 -123.5q0 -143 28.5 -214t112.5 -71q82 0 141.5 81t100.5 211t64.5 296t31.5 338h155q-6 -88 -12 -160t-11 -144.5t-8 -152.5t-3 -184q0 -143 28.5 -214t108.5 -71q70 0 127 57.5t100 162t71 251t36 326.5 h-164l12 129h307q-6 -207 -35.5 -401.5t-90 -345t-155.5 -240.5t-233 -90q-74 0 -122 34.5t-75.5 91t-37.5 130.5q-7 53 -7 110q0 22 1 45h-4q-6 -43 -28 -113.5t-64 -136t-106.5 -113.5t-154.5 -48q-84 0 -138 30.5t-85 82.5t-43 123t-12 153q0 184 13 318t22 241h-164z " />
<glyph unicode="x" horiz-adv-x="1099" d="M43 0l12 119l416 422l-213 387h-164l12 129h261l229 -422l276 293h-163l12 129h336l-13 -119l-387 -397l224 -412h163l-12 -129h-256l-239 438l-297 -309h163l-12 -129h-348z" />
<glyph unicode="y" horiz-adv-x="1099" d="M-4 -522l12 129q27 -8 54.5 -12.5t64.5 -4.5q35 0 68.5 9.5t67.5 37t69 76.5t74 129l61 129l-272 957h-156l12 129h287l194 -768q10 -41 17.5 -75t7.5 -75h4q14 47 25.5 86t25.5 78l246 625h-176l12 129h326l-12 -129l-174 -428q-86 -215 -154 -375t-123 -275.5 t-104.5 -190.5t-99.5 -119t-106.5 -61.5t-125.5 -17.5q-41 0 -72 6.5t-53 10.5z" />
<glyph unicode="z" horiz-adv-x="1024" d="M74 0l14 121l586 717q23 29 45 54.5t39 35.5v4q-12 -4 -26.5 -4h-33.5h-417l-13 -154h-131l17 283h796l-8 -107l-600 -739q-16 -20 -33.5 -39.5t-42.5 -42.5v-4q20 2 33.5 3t28.5 1h452l21 158h131l-25 -287h-833z" />
<glyph unicode="{" horiz-adv-x="645" d="M78 467l12 129q68 0 117 68.5t59 193.5l37 414q6 86 29.5 144.5t57.5 94t76 50t85 14.5h137l-12 -129h-101q-37 0 -59 -18.5t-34.5 -48t-18.5 -68.5t-8 -80l-35 -400q-8 -86 -35 -142t-58.5 -90t-63.5 -49t-50 -18v-4q16 -4 43 -17t51.5 -42t42 -77t17.5 -122 q0 -45 -6.5 -113.5t-14.5 -142.5q-6 -74 -12 -142.5t-6 -115.5q0 -61 16 -101t74 -40h90l-12 -129h-127q-39 0 -74 12.5t-61.5 40t-43 73.5t-18.5 116q0 37 6 108.5t13.5 151.5t13.5 154.5t6 115.5q-2 109 -39 158t-94 51z" />
<glyph unicode="|" horiz-adv-x="454" d="M158 -512v2048h139v-2048h-139z" />
<glyph unicode="}" horiz-adv-x="645" d="M-76 -514l13 129h100q37 0 59.5 18.5t34.5 48t17.5 68.5t9.5 80l35 399q8 86 34.5 142.5t58 90.5t63.5 48t50 18v4q-16 2 -42.5 16.5t-51 43.5t-42 77t-17.5 122q0 45 6 113.5t14 142.5q6 74 12.5 142t6.5 116q0 61 -16.5 101t-73.5 40h-91l13 129h127q39 0 73.5 -12.5 t61.5 -40t43 -73.5t18 -116q0 -37 -6 -108.5t-13 -151.5t-13.5 -154.5t-6.5 -115.5q2 -109 39 -158t95 -51l-13 -129q-68 0 -117 -68.5t-59 -193.5l-37 -414q-6 -86 -29.5 -144.5t-57.5 -94t-76 -50t-85 -14.5h-137z" />
<glyph unicode="~" horiz-adv-x="1228" d="M141 477q16 33 39 64.5t53.5 57.5t70.5 41t91 15q57 0 118.5 -19.5t121.5 -47.5q59 -29 111.5 -48.5t89.5 -19.5q59 0 101 44t77 98l73 -103q-23 -33 -48 -64.5t-55 -57t-67.5 -41t-85.5 -15.5q-53 0 -115.5 20.5t-121.5 47.5t-112.5 47t-92.5 20q-63 0 -106 -44t-68 -97 z" />
<glyph unicode="&#xa1;" horiz-adv-x="606" d="M135 -498l109 1104h145l-78 -1104h-176zM238 981q0 47 34.5 82t81.5 35t82 -35t35 -82t-35 -82t-82 -35t-81.5 35t-34.5 82z" />
<glyph unicode="&#xa2;" d="M147 457q0 164 42 276.5t107.5 185t145.5 108.5t154 46l20 217h115l-20 -213q35 0 74.5 -4t77.5 -9t72 -13.5t56 -16.5l-20 -260h-133l8 158q-45 10 -83 13t-65 3l-73 -833q86 2 161.5 22.5t139.5 57.5l-15 -150q-35 -18 -74.5 -31.5t-79.5 -20.5t-77 -11.5t-68 -6.5 l-20 -245h-115l21 245q-182 27 -266.5 144t-84.5 338zM311 477q0 -158 54.5 -247t144.5 -105l74 819q-66 -10 -117 -53t-86 -108.5t-52.5 -145.5t-17.5 -160z" />
<glyph unicode="&#xa3;" d="M14 0l13 129h129q68 94 90 215t22 281v59h-202l12 129h190v43q0 106 7.5 177t23.5 122t39.5 88t58.5 74q57 63 155.5 102t233.5 39q43 0 90.5 -6t92.5 -13t80.5 -15.5t58.5 -14.5l-12 -293h-133v191q-49 16 -91.5 19t-83.5 3q-109 0 -179 -30.5t-111 -85t-58.5 -127 t-17.5 -154.5v-64.5t2 -54.5h315l-12 -129h-303q0 -127 -6 -218t-20.5 -155.5t-35 -107.5t-51.5 -74h549l25 201h145l-33 -330h-983z" />
<glyph unicode="&#xa4;" d="M55 293l115 115q-109 133 -109 309q0 88 28 167t81 142l-115 115l90 90l115 -113q63 51 142 79t167 28t167 -28t143 -81l114 115l90 -90l-114 -115q53 -63 80.5 -142t27.5 -167q0 -176 -108 -309l114 -115l-90 -90l-114 114q-61 -51 -140.5 -79.5t-169.5 -28.5 q-88 0 -166.5 27.5t-144.5 78.5l-113 -112zM201 717q0 -76 28.5 -143.5t78.5 -117.5t118 -79t143 -29q76 0 143.5 29t118 79t79 117.5t28.5 143.5t-28.5 143.5t-79 117.5t-118 78.5t-143.5 28.5t-143.5 -28.5t-117.5 -78.5t-78.5 -117.5t-28.5 -143.5z" />
<glyph unicode="&#xa5;" d="M33 1305l12 129h391l-12 -129h-105l226 -510q8 -18 16 -40t12 -44h5q10 29 22 50t27 44l307 500h-135l12 129h379l-12 -129h-105l-375 -594h232l-15 -115h-284l-17 -147h285l-14 -115h-279l-20 -205h135l-12 -129h-379l12 129h104l21 205h-291l12 115h287l17 147h-285 l12 115h215l-278 594h-123z" />
<glyph unicode="&#xa6;" horiz-adv-x="454" d="M158 358h139v-716h-139v716zM158 666v716h139v-716h-139z" />
<glyph unicode="&#xa7;" d="M88 -360l16 262h136l-9 -160q51 -16 108.5 -26.5t121.5 -10.5q143 0 219 64.5t76 150.5q0 66 -45 112t-113 85t-147.5 75.5t-147 84t-113 110t-45.5 152.5q0 57 20.5 106t55.5 88t79 65.5t93 39.5v4q-90 47 -141 115.5t-51 168.5q0 51 22.5 109.5t74.5 109t136 84 t207 33.5q88 0 178 -14t162 -37l-16 -262h-136l9 160q-41 10 -83 17t-112 7q-135 0 -206.5 -56t-71.5 -149q0 -63 45 -110t111.5 -87t145 -79t145.5 -86t112 -109.5t45 -148.5q0 -61 -21.5 -111.5t-56.5 -86.5t-82 -58.5t-98 -28.5v-4q92 -45 146 -116.5t54 -165.5 q0 -49 -21.5 -112t-74.5 -118t-142 -93t-224 -38q-39 0 -88.5 4t-98.5 12.5t-95 20.5t-79 27zM301 575q0 -31 9 -59.5t32 -56t61.5 -58t100.5 -63.5l125 -70q104 49 144 103.5t40 113.5q0 31 -9 59.5t-36 58.5t-75 63.5t-126 74.5l-84 45q-82 -35 -132 -90t-50 -121z" />
<glyph unicode="&#xa8;" horiz-adv-x="569" d="M49 1397q0 47 32 78.5t79 31.5t78.5 -31.5t31.5 -78.5t-31.5 -79t-78.5 -32t-79 32t-32 79zM469 1397q0 47 31.5 78.5t79.5 31.5q47 0 78.5 -31.5t31.5 -78.5t-31.5 -79t-78.5 -32t-79 32t-32 79z" />
<glyph unicode="&#xa9;" horiz-adv-x="1638" d="M74 717q0 154 58 290t159.5 237.5t238 159.5t289.5 58q154 0 290 -58t237.5 -159.5t160 -238t58.5 -289.5q0 -154 -58.5 -290t-160 -237.5t-237.5 -160t-290 -58.5t-290 58.5t-237.5 160t-159.5 237.5t-58 290zM213 717q0 -127 47 -239.5t130 -196.5t192.5 -132.5 t236.5 -48.5q125 0 235.5 48.5t193.5 132.5t130 196.5t47 239.5t-47 239.5t-130 196.5t-193.5 132t-235.5 48q-127 0 -236.5 -48t-192.5 -132t-130 -196.5t-47 -239.5zM424 719q0 102 29.5 185t84 141.5t131 89t173.5 30.5q137 0 236.5 -78.5t119.5 -228.5h-164 q-12 76 -60 122t-136 46q-123 0 -190.5 -85t-67.5 -222q0 -141 68.5 -225t191.5 -84q74 0 133 43t67 135h164q-25 -150 -127 -234t-250 -84q-90 0 -164.5 32t-128 90.5t-82 141t-28.5 185.5z" />
<glyph unicode="&#xaa;" horiz-adv-x="739" d="M102 1032q0 123 40 210t83 128t96.5 64.5t147.5 23.5q43 0 83 -5t75 -19h51q-6 -33 -14.5 -96.5t-15.5 -139.5t-13 -152.5t-10 -138.5h102l-8 -92h-209q8 80 21.5 169t23.5 155h-4q-10 -47 -29.5 -105.5t-52.5 -111t-79 -88t-109 -35.5q-53 0 -88 20.5t-54.5 54t-28 74.5 t-8.5 84zM217 1034q0 -133 76 -133q53 0 98 47t80 116t58.5 146.5t31.5 139.5q-43 16 -96 16q-72 0 -120 -30.5t-76.5 -80t-40 -108t-11.5 -113.5z" />
<glyph unicode="&#xab;" horiz-adv-x="985" d="M84 520l12 107l312 288l90 -94l-269 -250l226 -270l-109 -94zM487 520l13 107l311 288l90 -94l-268 -250l225 -270l-108 -94z" />
<glyph unicode="&#xac;" horiz-adv-x="1228" d="M96 653v140h1037v-574h-140v434h-897z" />
<glyph unicode="&#xad;" horiz-adv-x="757" d="M135 485l12 152h476l-13 -152h-475z" />
<glyph unicode="&#xae;" horiz-adv-x="1638" d="M74 717q0 154 58 290t159.5 237.5t238 159.5t289.5 58q154 0 290 -58t237.5 -159.5t160 -238t58.5 -289.5q0 -154 -58.5 -290t-160 -237.5t-237.5 -160t-290 -58.5t-290 58.5t-237.5 160t-159.5 237.5t-58 290zM213 717q0 -127 47 -239.5t130 -196.5t192.5 -132.5 t236.5 -48.5q125 0 235.5 48.5t193.5 132.5t130 196.5t47 239.5t-47 239.5t-130 196.5t-193.5 132t-235.5 48q-127 0 -236.5 -48t-192.5 -132t-130 -196.5t-47 -239.5zM504 293v848h325q158 0 238 -57.5t80 -186.5q0 -57 -17.5 -99t-47 -71t-68.5 -46t-84 -26l227 -362h-160 l-223 356h-131v-356h-139zM643 778h186q102 0 140.5 33t38.5 92t-47.5 84t-131.5 25h-186v-234z" />
<glyph unicode="&#xaf;" horiz-adv-x="569" d="M100 1329l11 129h512l-11 -129h-512z" />
<glyph unicode="&#xb0;" horiz-adv-x="819" d="M164 1167q0 59 22.5 112.5t62.5 93.5t93 62.5t113 22.5q59 0 112.5 -22.5t93 -62.5t62 -93t22.5 -113q0 -59 -22.5 -112.5t-62 -93t-93 -62t-112.5 -22.5t-112.5 22.5t-93.5 62t-62.5 93t-22.5 112.5zM268 1167q0 -78 54.5 -132t132.5 -54t132 54.5t54 131.5 q0 78 -54.5 132.5t-131.5 54.5q-78 0 -132.5 -54.5t-54.5 -132.5z" />
<glyph unicode="&#xb1;" horiz-adv-x="1228" d="M96 0v139h1037v-139h-1037zM96 565v140h449v331h139v-331h449v-140h-449v-332h-139v332h-449z" />
<glyph unicode="&#xb2;" horiz-adv-x="739" d="M55 582l8 100q37 31 81 67.5t89.5 73.5t85 72t68.5 63q84 84 121 144.5t37 118.5q0 55 -37 88.5t-102 33.5q-37 0 -67 -13t-51.5 -33.5t-34.5 -45t-20 -49.5h-129q6 37 24.5 82t56.5 84t97.5 64.5t145.5 25.5q125 0 190.5 -65.5t65.5 -161.5q0 -51 -14.5 -94t-39 -81 t-58 -74t-72.5 -73q-61 -59 -136 -120.5t-131 -106.5v-4q14 4 43 5t56 1h340l-10 -102h-607z" />
<glyph unicode="&#xb3;" horiz-adv-x="739" d="M59 610l9 119q37 -14 103.5 -31.5t145.5 -17.5q104 0 163 43t59 102q0 31 -12.5 56.5t-41 45t-77 30t-119.5 10.5h-33l8 114h17q131 0 195.5 47.5t64.5 112.5q0 102 -133 102q-74 0 -114 -33.5t-50 -84.5h-131q4 39 24.5 81t59.5 75.5t97 55t140 21.5q47 0 91 -11t79 -36 t55.5 -62.5t20.5 -91.5q0 -49 -20.5 -88t-52.5 -67.5t-73.5 -45t-84.5 -20.5v-4q96 -4 162.5 -54t66.5 -149q0 -55 -26.5 -104t-75 -84t-117 -55.5t-152.5 -20.5q-61 0 -128.5 11.5t-119.5 33.5z" />
<glyph unicode="&#xb4;" horiz-adv-x="569" d="M188 1298l344 277l105 -80l-358 -278z" />
<glyph unicode="&#xb5;" horiz-adv-x="1214" d="M94 -514q39 362 80 730t88 712h-156l13 129h315q-31 -256 -58.5 -453.5t-27.5 -327.5q0 -80 21.5 -112.5t68.5 -32.5q57 0 109.5 38t97.5 99.5t82 136t65.5 148.5t46 138.5t23.5 103.5l43 262h156q-33 -248 -55.5 -479.5t-42.5 -448.5h163l-12 -129h-321q10 61 18 118.5 t16.5 117t18.5 128t24 152.5l-4 2q-27 -102 -75 -199.5t-111.5 -173t-136 -120.5t-148.5 -45q-37 0 -63.5 11t-36.5 21h-4l-58 -526h-139z" />
<glyph unicode="&#xb6;" horiz-adv-x="1228" d="M193 1024q0 106 37.5 184t101 128t147.5 74t178 24h502l-160 -1829h-163l147 1689h-215l-147 -1689h-164l94 1071q-80 0 -146.5 27.5t-113.5 74.5t-72.5 110.5t-25.5 135.5z" />
<glyph unicode="&#xb7;" horiz-adv-x="569" d="M158 586q0 53 36.5 90t90.5 37q53 0 90 -37t37 -90t-37 -90t-90 -37t-90 37t-37 90z" />
<glyph unicode="&#xb8;" horiz-adv-x="569" d="M84 -455l16 103q31 -12 76 -22.5t84 -10.5q55 0 91 20.5t36 59.5q0 29 -27.5 50.5t-66.5 21.5h-32.5t-31.5 -5l29 238h113l-21 -154h15q70 0 115.5 -38.5t45.5 -98.5q0 -49 -21.5 -86t-58 -61.5t-84 -36.5t-98.5 -12q-53 0 -97 11t-83 21z" />
<glyph unicode="&#xb9;" horiz-adv-x="739" d="M123 1272l291 170h129l-74 -758h180l-10 -102h-485l10 102h172l65 639l-4 4q-12 -12 -28.5 -24.5t-44.5 -28.5l-162 -92z" />
<glyph unicode="&#xba;" horiz-adv-x="739" d="M102 1081q0 78 20.5 146.5t61.5 120t101.5 81t138.5 29.5q74 0 124 -25.5t80.5 -66.5t44 -92t13.5 -100q0 -78 -20.5 -147t-61.5 -119t-101.5 -79.5t-137.5 -29.5q-74 0 -124.5 25.5t-81 65.5t-44 91t-13.5 100zM217 1077q0 -86 45 -131t109 -45q35 0 70.5 13.5t64.5 46 t47 86t18 131.5q0 88 -45 133t-108 45q-35 0 -71 -14.5t-64.5 -46t-47 -85t-18.5 -133.5z" />
<glyph unicode="&#xbb;" horiz-adv-x="985" d="M84 301l268 250l-225 270l109 94l262 -313l-13 -106l-311 -289zM487 301l269 250l-226 270l109 94l262 -313l-12 -106l-311 -289z" />
<glyph unicode="&#xbc;" horiz-adv-x="1708" d="M123 1272l291 170h129l-74 -758h180l-10 -102h-485l10 102h172l65 639l-4 4q-12 -12 -28.5 -24.5t-44.5 -28.5l-162 -92zM375 -43l938 1583l86 -63l-938 -1583zM854 240l12 118l432 502h187l-45 -506h145l-10 -114h-145l-15 -138h101l-11 -102h-325l10 102h86l14 138 h-436zM1006 352l4 -4q25 6 59 6h231l37 377h-4z" />
<glyph unicode="&#xbd;" horiz-adv-x="1708" d="M123 1272l291 170h129l-74 -758h180l-10 -102h-485l10 102h172l65 639l-4 4q-12 -12 -28.5 -24.5t-44.5 -28.5l-162 -92zM375 -43l936 1583l86 -63l-936 -1583zM956 0l9 100q37 31 81 68t89 74t85 71.5t68 63.5q84 84 121 144.5t37 117.5q0 55 -37 89t-102 34 q-37 0 -67 -13.5t-51.5 -34t-34.5 -45t-19 -48.5h-129q6 37 24.5 82t56 83.5t97 64.5t145.5 26q125 0 190.5 -66t65.5 -162q0 -51 -14.5 -94t-39 -81t-58 -73.5t-72.5 -72.5q-61 -59 -136 -121t-130 -107v-4q14 4 42.5 5t55.5 1h340l-10 -102h-607z" />
<glyph unicode="&#xbe;" horiz-adv-x="1708" d="M123 610l8 119q37 -14 103.5 -31.5t146.5 -17.5q104 0 162.5 43t58.5 102q0 31 -12 56.5t-41 45t-77 30t-120 10.5h-33l9 114h16q131 0 195.5 47.5t64.5 112.5q0 102 -133 102q-74 0 -114 -33.5t-50 -84.5h-131q4 39 24.5 81t59.5 75.5t97.5 55t140.5 21.5q47 0 91 -11 t78.5 -36t55 -62.5t20.5 -91.5q0 -49 -20.5 -88t-52 -67.5t-73.5 -45t-85 -20.5v-4q96 -4 162.5 -54t66.5 -149q0 -55 -26.5 -104t-74.5 -84t-116.5 -55.5t-152.5 -20.5q-61 0 -129 11.5t-119 33.5zM375 -43l938 1583l86 -63l-938 -1583zM854 240l12 118l432 502h187 l-45 -506h145l-10 -114h-145l-15 -138h101l-11 -102h-325l10 102h86l14 138h-436zM1006 352l4 -4q25 6 59 6h231l37 377h-4z" />
<glyph unicode="&#xbf;" horiz-adv-x="985" d="M61 -164q0 68 18.5 121t50.5 98t75 80t90 66l154 98q49 31 78.5 55.5t47 44t22.5 37t5 35.5q0 37 -17.5 63.5t-39.5 47.5l139 65q33 -35 57.5 -83t24.5 -95q0 -72 -34 -120t-89 -85l-246 -168q-51 -35 -84.5 -64.5t-53 -58t-27 -61.5t-7.5 -74q0 -37 12.5 -74.5t43 -68.5 t81 -50.5t125.5 -19.5q78 0 142.5 14.5t113.5 30.5l7 -139q-35 -12 -73 -20.5t-76 -13.5t-70.5 -8t-57.5 -3q-100 0 -177 27.5t-129 74.5t-79 110.5t-27 137.5zM557 981q0 47 35 82t82 35t82 -35t35 -82t-35 -82t-82 -35t-82 35t-35 82z" />
<glyph unicode="&#xc0;" horiz-adv-x="1517" d="M-4 0l8 129h129l602 1305h189l368 -1305h150l-8 -129h-451l8 129h125l-117 436h-510l-192 -436h158l-9 -129h-450zM547 694h420l-109 406q-23 78 -32 121t-15 84h-4q-10 -41 -30.5 -89.5t-51.5 -119.5zM567 1749l113 80l297 -277l-105 -82z" />
<glyph unicode="&#xc1;" horiz-adv-x="1517" d="M-4 0l8 129h129l602 1305h189l368 -1305h150l-8 -129h-451l8 129h125l-117 436h-510l-192 -436h158l-9 -129h-450zM547 694h420l-109 406q-23 78 -32 121t-15 84h-4q-10 -41 -30.5 -89.5t-51.5 -119.5zM664 1552l344 277l104 -80l-358 -279z" />
<glyph unicode="&#xc2;" horiz-adv-x="1517" d="M-4 0l8 129h129l602 1305h189l368 -1305h150l-8 -129h-451l8 129h125l-117 436h-510l-192 -436h158l-9 -129h-450zM506 1599l285 230h139l248 -230l-105 -81l-221 196l-256 -196zM547 694h420l-109 406q-23 78 -32 121t-15 84h-4q-10 -41 -30.5 -89.5t-51.5 -119.5z" />
<glyph unicode="&#xc3;" horiz-adv-x="1517" d="M-4 0l8 129h129l602 1305h189l368 -1305h150l-8 -129h-451l8 129h125l-117 436h-510l-192 -436h158l-9 -129h-450zM492 1575q25 74 84 128t137 54q39 0 75.5 -18.5t70.5 -40t64.5 -39t59.5 -17.5t59.5 28t47.5 63l102 -70q-55 -90 -102.5 -120t-112.5 -30q-43 0 -79 17.5 t-69 40.5t-61.5 40t-56.5 17q-35 0 -60.5 -27.5t-44.5 -76.5zM547 694h420l-109 406q-23 78 -32 121t-15 84h-4q-10 -41 -30.5 -89.5t-51.5 -119.5z" />
<glyph unicode="&#xc4;" horiz-adv-x="1517" d="M-4 0l8 129h129l602 1305h189l368 -1305h150l-8 -129h-451l8 129h125l-117 436h-510l-192 -436h158l-9 -129h-450zM524 1651q0 47 32 78.5t79 31.5t78.5 -31.5t31.5 -78.5t-31.5 -79t-78.5 -32t-79 32t-32 79zM547 694h420l-109 406q-23 78 -32 121t-15 84h-4 q-10 -41 -30.5 -89.5t-51.5 -119.5zM944 1651q0 47 32 78.5t79 31.5t78.5 -31.5t31.5 -78.5t-31.5 -79t-78.5 -32t-79 32t-32 79z" />
<glyph unicode="&#xc5;" horiz-adv-x="1517" d="M-4 0l8 129h129l602 1305h189l368 -1305h150l-8 -129h-451l8 129h125l-117 436h-510l-192 -436h158l-9 -129h-450zM547 694h420l-109 406q-23 78 -32 121t-15 84h-4q-10 -41 -30.5 -89.5t-51.5 -119.5zM649 1659q0 86 54.5 150.5t154.5 64.5q51 0 85 -16.5t55.5 -43 t30.5 -60.5t9 -66q0 -25 -9 -62t-31.5 -70.5t-62.5 -57t-104 -23.5q-80 0 -131 46t-51 138zM752 1661q0 -33 18 -63.5t66 -30.5q51 0 75.5 34.5t24.5 75.5q0 51 -18.5 78t-61.5 27q-53 0 -78.5 -37t-25.5 -84z" />
<glyph unicode="&#xc6;" horiz-adv-x="1972" d="M6 0l8 129h117l793 1305h950l-21 -326h-133l9 197h-433l-47 -541h449l-8 -129h-453l-45 -506h516l25 201h145l-33 -330h-954l8 129h129l45 506h-467l-299 -506h156l-8 -129h-449zM682 764h403l48 541h-138z" />
<glyph unicode="&#xc7;" horiz-adv-x="1327" d="M104 633q0 164 46.5 313.5t141.5 264t240.5 183t346.5 68.5q86 0 181 -15t183 -44l-16 -295h-140v190q-47 18 -102 26.5t-108 8.5q-158 0 -270.5 -55t-184.5 -151.5t-106.5 -224.5t-34.5 -273q0 -129 36.5 -227.5t103 -166t159 -101.5t200.5 -34q84 0 135.5 9.5 t100.5 23.5l24 197h146l-31 -293q-66 -23 -160 -41.5t-178 -24.5l-16 -125h14q70 0 116 -38.5t46 -98.5q0 -49 -21.5 -86t-58.5 -61.5t-84 -36.5t-98 -12q-53 0 -97.5 11t-82.5 21l16 103q31 -12 76 -22.5t84 -10.5q55 0 91 20.5t36 59.5q0 29 -28 50.5t-67 21.5h-32.5 t-30.5 -5l27 209q-287 18 -445 190.5t-158 471.5z" />
<glyph unicode="&#xc8;" horiz-adv-x="1175" d="M47 0l12 129h129l105 1176h-164l12 129h932l-20 -326h-133l8 197h-471l-45 -504h481l-12 -129h-480l-49 -543h516l25 201h145l-32 -330h-959zM395 1749l113 80l297 -277l-105 -82z" />
<glyph unicode="&#xc9;" horiz-adv-x="1175" d="M47 0l12 129h129l105 1176h-164l12 129h932l-20 -326h-133l8 197h-471l-45 -504h481l-12 -129h-480l-49 -543h516l25 201h145l-32 -330h-959zM492 1552l344 277l104 -80l-358 -279z" />
<glyph unicode="&#xca;" horiz-adv-x="1175" d="M47 0l12 129h129l105 1176h-164l12 129h932l-20 -326h-133l8 197h-471l-45 -504h481l-12 -129h-480l-49 -543h516l25 201h145l-32 -330h-959zM334 1599l284 230h140l248 -230l-105 -81l-221 196l-256 -196z" />
<glyph unicode="&#xcb;" horiz-adv-x="1175" d="M47 0l12 129h129l105 1176h-164l12 129h932l-20 -326h-133l8 197h-471l-45 -504h481l-12 -129h-480l-49 -543h516l25 201h145l-32 -330h-959zM352 1651q0 47 32 78.5t79 31.5t78.5 -31.5t31.5 -78.5t-31.5 -79t-78.5 -32t-79 32t-32 79zM772 1651q0 47 32 78.5t79 31.5 t78.5 -31.5t31.5 -78.5t-31.5 -79t-78.5 -32t-79 32t-32 79z" />
<glyph unicode="&#xcc;" horiz-adv-x="645" d="M47 0l12 129h129l105 1176h-164l12 129h457l-12 -129h-129l-105 -1176h164l-12 -129h-457zM131 1749l113 80l297 -277l-105 -82z" />
<glyph unicode="&#xcd;" horiz-adv-x="645" d="M47 0l12 129h129l105 1176h-164l12 129h457l-12 -129h-129l-105 -1176h164l-12 -129h-457zM227 1552l344 277l105 -80l-359 -279z" />
<glyph unicode="&#xce;" horiz-adv-x="645" d="M47 0l12 129h129l105 1176h-164l12 129h457l-12 -129h-129l-105 -1176h164l-12 -129h-457zM70 1599l284 230h140l247 -230l-104 -81l-221 196l-256 -196z" />
<glyph unicode="&#xcf;" horiz-adv-x="645" d="M47 0l12 129h129l105 1176h-164l12 129h457l-12 -129h-129l-105 -1176h164l-12 -129h-457zM88 1651q0 47 32 78.5t79 31.5t78.5 -31.5t31.5 -78.5t-31.5 -79t-78.5 -32t-79 32t-32 79zM508 1651q0 47 31.5 78.5t78.5 31.5t79 -31.5t32 -78.5t-31.5 -79t-79.5 -32 q-47 0 -78.5 32t-31.5 79z" />
<glyph unicode="&#xd0;" horiz-adv-x="1478" d="M47 0l12 129h129l52 555h-160l12 129h158l43 492h-164l12 129h576q193 0 322.5 -49.5t208.5 -133.5t113 -193.5t34 -228.5q0 -193 -54.5 -346t-159 -260.5t-255 -165t-342.5 -57.5h-537zM352 129h215q156 0 277 47t203.5 136t127 219.5t44.5 293.5q0 231 -121 355.5 t-389 124.5h-252l-43 -492h321l-12 -129h-320z" />
<glyph unicode="&#xd1;" horiz-adv-x="1554" d="M43 0l12 129h129l105 1176h-164l12 129h287l670 -1084q12 -20 24 -44.5t23 -59.5l4 4q-2 45 2 96t6 76l78 883h-164l12 129h432l-12 -129h-129l-117 -1305h-133l-657 1063q-18 29 -31.5 54.5t-21.5 58.5h-4q0 -45 -4.5 -110t-8.5 -124l-69 -813h163l-12 -129h-432z M510 1575q25 74 84 128t137 54q39 0 76 -18.5t70.5 -40t64.5 -39t59 -17.5q29 0 60 28t47 63l102 -70q-55 -90 -102 -120t-113 -30q-43 0 -78.5 17.5t-68.5 40.5t-61.5 40t-57.5 17q-35 0 -60.5 -27.5t-43.5 -76.5z" />
<glyph unicode="&#xd2;" horiz-adv-x="1478" d="M104 625q0 190 51.5 345.5t143.5 264t219 168t281 59.5q156 0 265.5 -53t178 -143t100 -209t31.5 -248q0 -190 -51 -346t-143.5 -264.5t-220.5 -168t-281 -59.5q-156 0 -264.5 53.5t-177 143.5t-100.5 209t-32 248zM281 623q0 -139 32.5 -236.5t88 -159t130 -89 t160.5 -27.5q113 0 206 46t159.5 135t103.5 220t37 301q0 137 -32.5 234.5t-88 159t-131.5 89t-162 27.5q-111 0 -204 -46t-159.5 -135t-103 -219t-36.5 -300zM547 1749l112 80l297 -277l-104 -82z" />
<glyph unicode="&#xd3;" horiz-adv-x="1478" d="M104 625q0 190 51.5 345.5t143.5 264t219 168t281 59.5q156 0 265.5 -53t178 -143t100 -209t31.5 -248q0 -190 -51 -346t-143.5 -264.5t-220.5 -168t-281 -59.5q-156 0 -264.5 53.5t-177 143.5t-100.5 209t-32 248zM281 623q0 -139 32.5 -236.5t88 -159t130 -89 t160.5 -27.5q113 0 206 46t159.5 135t103.5 220t37 301q0 137 -32.5 234.5t-88 159t-131.5 89t-162 27.5q-111 0 -204 -46t-159.5 -135t-103 -219t-36.5 -300zM643 1552l344 277l105 -80l-359 -279z" />
<glyph unicode="&#xd4;" horiz-adv-x="1478" d="M104 625q0 190 51.5 345.5t143.5 264t219 168t281 59.5q156 0 265.5 -53t178 -143t100 -209t31.5 -248q0 -190 -51 -346t-143.5 -264.5t-220.5 -168t-281 -59.5q-156 0 -264.5 53.5t-177 143.5t-100.5 209t-32 248zM281 623q0 -139 32.5 -236.5t88 -159t130 -89 t160.5 -27.5q113 0 206 46t159.5 135t103.5 220t37 301q0 137 -32.5 234.5t-88 159t-131.5 89t-162 27.5q-111 0 -204 -46t-159.5 -135t-103 -219t-36.5 -300zM485 1599l285 230h139l248 -230l-104 -81l-222 196l-256 -196z" />
<glyph unicode="&#xd5;" horiz-adv-x="1478" d="M104 625q0 190 51.5 345.5t143.5 264t219 168t281 59.5q156 0 265.5 -53t178 -143t100 -209t31.5 -248q0 -190 -51 -346t-143.5 -264.5t-220.5 -168t-281 -59.5q-156 0 -264.5 53.5t-177 143.5t-100.5 209t-32 248zM281 623q0 -139 32.5 -236.5t88 -159t130 -89 t160.5 -27.5q113 0 206 46t159.5 135t103.5 220t37 301q0 137 -32.5 234.5t-88 159t-131.5 89t-162 27.5q-111 0 -204 -46t-159.5 -135t-103 -219t-36.5 -300zM471 1575q25 74 84 128t137 54q39 0 76 -18.5t70.5 -40t64.5 -39t60 -17.5t59.5 28t46.5 63l102 -70 q-55 -90 -102 -120t-113 -30q-43 0 -78.5 17.5t-68.5 40.5t-61.5 40t-57.5 17q-35 0 -60.5 -27.5t-43.5 -76.5z" />
<glyph unicode="&#xd6;" horiz-adv-x="1478" d="M104 625q0 190 51.5 345.5t143.5 264t219 168t281 59.5q156 0 265.5 -53t178 -143t100 -209t31.5 -248q0 -190 -51 -346t-143.5 -264.5t-220.5 -168t-281 -59.5q-156 0 -264.5 53.5t-177 143.5t-100.5 209t-32 248zM281 623q0 -139 32.5 -236.5t88 -159t130 -89 t160.5 -27.5q113 0 206 46t159.5 135t103.5 220t37 301q0 137 -32.5 234.5t-88 159t-131.5 89t-162 27.5q-111 0 -204 -46t-159.5 -135t-103 -219t-36.5 -300zM504 1651q0 47 31.5 78.5t78.5 31.5t79 -31.5t32 -78.5t-31.5 -79t-79.5 -32q-47 0 -78.5 32t-31.5 79zM924 1651 q0 47 31.5 78.5t78.5 31.5t79 -31.5t32 -78.5t-32 -79t-79 -32t-78.5 32t-31.5 79z" />
<glyph unicode="&#xd7;" horiz-adv-x="1228" d="M147 145l373 373l-373 373l95 94l372 -373l373 373l94 -94l-372 -373l372 -373l-94 -94l-373 373l-372 -373z" />
<glyph unicode="&#xd8;" horiz-adv-x="1478" d="M92 -113l170 252q-84 92 -121 218t-37 268q0 190 51.5 345.5t143.5 264t219 168t281 59.5q180 0 303 -76l188 281l96 -63l-192 -285q96 -92 138 -225t42 -285q0 -190 -51 -346t-143.5 -264.5t-220.5 -168t-281 -59.5q-102 0 -183 23.5t-147 66.5l-160 -237zM281 623 q0 -111 20.5 -195t58.5 -143l656 972q-47 35 -106.5 50.5t-125.5 15.5q-111 0 -204 -46t-159.5 -135t-103 -219t-36.5 -300zM438 195q53 -45 118 -64.5t136 -19.5q113 0 206 46t159.5 135t103.5 220t37 301q0 125 -25.5 215t-72.5 150z" />
<glyph unicode="&#xd9;" horiz-adv-x="1478" d="M109 1305l12 129h457l-13 -129h-129l-74 -838q-6 -82 5.5 -148.5t50.5 -112.5t106.5 -70.5t173.5 -24.5q186 0 286.5 91t119.5 294l72 809h-164l12 129h438l-12 -129h-129l-72 -820q-10 -113 -45 -207t-102.5 -162.5t-173 -106.5t-254.5 -38q-123 0 -215 27t-153.5 84 t-89.5 148.5t-17 222.5l73 852h-163zM547 1749l112 80l297 -277l-104 -82z" />
<glyph unicode="&#xda;" horiz-adv-x="1478" d="M109 1305l12 129h457l-13 -129h-129l-74 -838q-6 -82 5.5 -148.5t50.5 -112.5t106.5 -70.5t173.5 -24.5q186 0 286.5 91t119.5 294l72 809h-164l12 129h438l-12 -129h-129l-72 -820q-10 -113 -45 -207t-102.5 -162.5t-173 -106.5t-254.5 -38q-123 0 -215 27t-153.5 84 t-89.5 148.5t-17 222.5l73 852h-163zM643 1552l344 277l105 -80l-359 -279z" />
<glyph unicode="&#xdb;" horiz-adv-x="1478" d="M109 1305l12 129h457l-13 -129h-129l-74 -838q-6 -82 5.5 -148.5t50.5 -112.5t106.5 -70.5t173.5 -24.5q186 0 286.5 91t119.5 294l72 809h-164l12 129h438l-12 -129h-129l-72 -820q-10 -113 -45 -207t-102.5 -162.5t-173 -106.5t-254.5 -38q-123 0 -215 27t-153.5 84 t-89.5 148.5t-17 222.5l73 852h-163zM485 1599l285 230h139l248 -230l-104 -81l-222 196l-256 -196z" />
<glyph unicode="&#xdc;" horiz-adv-x="1478" d="M109 1305l12 129h457l-13 -129h-129l-74 -838q-6 -82 5.5 -148.5t50.5 -112.5t106.5 -70.5t173.5 -24.5q186 0 286.5 91t119.5 294l72 809h-164l12 129h438l-12 -129h-129l-72 -820q-10 -113 -45 -207t-102.5 -162.5t-173 -106.5t-254.5 -38q-123 0 -215 27t-153.5 84 t-89.5 148.5t-17 222.5l73 852h-163zM504 1651q0 47 31.5 78.5t78.5 31.5t79 -31.5t32 -78.5t-31.5 -79t-79.5 -32q-47 0 -78.5 32t-31.5 79zM924 1651q0 47 31.5 78.5t78.5 31.5t79 -31.5t32 -78.5t-32 -79t-79 -32t-78.5 32t-31.5 79z" />
<glyph unicode="&#xdd;" horiz-adv-x="1366" d="M33 1305l8 129h469l-8 -129h-131q8 -10 13 -20.5t13 -24.5l299 -537l387 537q10 16 19.5 25t19.5 20h-170l9 129h456l-8 -129h-129l-522 -709l-39 -467h164l-13 -129h-456l12 129h129l41 459l-416 717h-147zM588 1552l344 277l104 -80l-358 -279z" />
<glyph unicode="&#xde;" d="M47 0l12 129h129l105 1176h-164l12 129h457l-12 -129h-129l-8 -117h137q236 0 347 -98.5t111 -284.5q0 -84 -25.5 -168t-87 -150.5t-165.5 -108.5t-260 -42q-51 0 -79 4t-54 8l-21 -219h164l-12 -129h-457zM383 471q31 -6 104 -6q88 0 161 19.5t125 60.5t80 103.5 t28 150.5q0 133 -80 198q-41 33 -98.5 47.5t-151.5 14.5h-117z" />
<glyph unicode="&#xdf;" horiz-adv-x="1251" d="M-264 -506l12 127q27 -10 61.5 -20.5t75.5 -10.5q88 0 140.5 31t80 93.5t38 155.5t18.5 218l74 997q8 133 41.5 229.5t95 158t153.5 90t219 28.5q117 0 192 -26.5t120 -67.5t62.5 -90t17.5 -92q0 -76 -30 -132.5t-76 -99.5t-98 -77.5t-98.5 -67.5t-76 -68.5t-29.5 -83.5 q0 -43 33 -73.5t83 -57t107.5 -55.5t107.5 -67.5t83 -90t33 -127.5q0 -61 -21.5 -120.5t-67 -105.5t-116 -73.5t-170.5 -27.5q-121 0 -190.5 14t-118.5 31l8 258h147l-8 -150q29 -10 71 -17t74 -7q109 0 172.5 44t63.5 134q0 55 -34 93t-84 67.5t-109.5 55.5t-109.5 58.5 t-84 78.5t-34 114q0 66 31 116t77 90t100 74.5t100.5 72.5t77 81t30.5 100q0 80 -64.5 123t-185.5 43q-311 0 -336 -344l-90 -1214q-16 -217 -107.5 -330t-277.5 -113q-59 0 -105 11.5t-79 21.5z" />
<glyph unicode="&#xe0;" d="M106 362q0 104 17.5 193.5t44.5 162.5t60.5 127t66.5 87q90 90 188.5 117.5t198.5 27.5q63 0 117.5 -12t107.5 -37h70q-12 -55 -23.5 -160.5t-22.5 -232.5t-21.5 -261t-16.5 -245h156l-13 -129h-307q6 66 13.5 137.5t17.5 142t21.5 134t25.5 114.5l-4 4q-20 -74 -53 -169 t-84.5 -180t-123 -144t-167.5 -59q-66 0 -116 27.5t-84 78.5t-51.5 122t-17.5 154zM270 365q0 -233 123 -234q82 0 151.5 79t123 197.5t89.5 257t48 257.5q-31 12 -65.5 19t-82.5 7q-115 0 -188.5 -52t-118.5 -136t-62.5 -187.5t-17.5 -207.5zM377 1495l112 80l297 -277 l-104 -81z" />
<glyph unicode="&#xe1;" d="M106 362q0 104 17.5 193.5t44.5 162.5t60.5 127t66.5 87q90 90 188.5 117.5t198.5 27.5q63 0 117.5 -12t107.5 -37h70q-12 -55 -23.5 -160.5t-22.5 -232.5t-21.5 -261t-16.5 -245h156l-13 -129h-307q6 66 13.5 137.5t17.5 142t21.5 134t25.5 114.5l-4 4q-20 -74 -53 -169 t-84.5 -180t-123 -144t-167.5 -59q-66 0 -116 27.5t-84 78.5t-51.5 122t-17.5 154zM270 365q0 -233 123 -234q82 0 151.5 79t123 197.5t89.5 257t48 257.5q-31 12 -65.5 19t-82.5 7q-115 0 -188.5 -52t-118.5 -136t-62.5 -187.5t-17.5 -207.5zM473 1298l344 277l105 -80 l-359 -278z" />
<glyph unicode="&#xe2;" d="M106 362q0 104 17.5 193.5t44.5 162.5t60.5 127t66.5 87q90 90 188.5 117.5t198.5 27.5q63 0 117.5 -12t107.5 -37h70q-12 -55 -23.5 -160.5t-22.5 -232.5t-21.5 -261t-16.5 -245h156l-13 -129h-307q6 66 13.5 137.5t17.5 142t21.5 134t25.5 114.5l-4 4q-20 -74 -53 -169 t-84.5 -180t-123 -144t-167.5 -59q-66 0 -116 27.5t-84 78.5t-51.5 122t-17.5 154zM270 365q0 -233 123 -234q82 0 151.5 79t123 197.5t89.5 257t48 257.5q-31 12 -65.5 19t-82.5 7q-115 0 -188.5 -52t-118.5 -136t-62.5 -187.5t-17.5 -207.5zM315 1346l285 229h139 l248 -229l-104 -82l-221 196l-256 -196z" />
<glyph unicode="&#xe3;" d="M106 362q0 104 17.5 193.5t44.5 162.5t60.5 127t66.5 87q90 90 188.5 117.5t198.5 27.5q63 0 117.5 -12t107.5 -37h70q-12 -55 -23.5 -160.5t-22.5 -232.5t-21.5 -261t-16.5 -245h156l-13 -129h-307q6 66 13.5 137.5t17.5 142t21.5 134t25.5 114.5l-4 4q-20 -74 -53 -169 t-84.5 -180t-123 -144t-167.5 -59q-66 0 -116 27.5t-84 78.5t-51.5 122t-17.5 154zM270 365q0 -233 123 -234q82 0 151.5 79t123 197.5t89.5 257t48 257.5q-31 12 -65.5 19t-82.5 7q-115 0 -188.5 -52t-118.5 -136t-62.5 -187.5t-17.5 -207.5zM301 1321q25 74 84 128t137 54 q39 0 76 -18.5t70.5 -40t64.5 -38.5t60 -17t59.5 27.5t46.5 62.5l102 -70q-55 -90 -102 -119.5t-113 -29.5q-43 0 -78.5 17t-68.5 40t-61.5 40t-57.5 17q-35 0 -60.5 -27.5t-43.5 -76.5z" />
<glyph unicode="&#xe4;" d="M106 362q0 104 17.5 193.5t44.5 162.5t60.5 127t66.5 87q90 90 188.5 117.5t198.5 27.5q63 0 117.5 -12t107.5 -37h70q-12 -55 -23.5 -160.5t-22.5 -232.5t-21.5 -261t-16.5 -245h156l-13 -129h-307q6 66 13.5 137.5t17.5 142t21.5 134t25.5 114.5l-4 4q-20 -74 -53 -169 t-84.5 -180t-123 -144t-167.5 -59q-66 0 -116 27.5t-84 78.5t-51.5 122t-17.5 154zM270 365q0 -233 123 -234q82 0 151.5 79t123 197.5t89.5 257t48 257.5q-31 12 -65.5 19t-82.5 7q-115 0 -188.5 -52t-118.5 -136t-62.5 -187.5t-17.5 -207.5zM334 1397q0 47 31.5 78.5 t78.5 31.5t79 -31.5t32 -78.5t-31.5 -79t-79.5 -32q-47 0 -78.5 32t-31.5 79zM754 1397q0 47 31.5 78.5t78.5 31.5t79 -31.5t32 -78.5t-32 -79t-79 -32t-78.5 32t-31.5 79z" />
<glyph unicode="&#xe5;" d="M106 362q0 104 17.5 193.5t44.5 162.5t60.5 127t66.5 87q90 90 188.5 117.5t198.5 27.5q63 0 117.5 -12t107.5 -37h70q-12 -55 -23.5 -160.5t-22.5 -232.5t-21.5 -261t-16.5 -245h156l-13 -129h-307q6 66 13.5 137.5t17.5 142t21.5 134t25.5 114.5l-4 4q-20 -74 -53 -169 t-84.5 -180t-123 -144t-167.5 -59q-66 0 -116 27.5t-84 78.5t-51.5 122t-17.5 154zM270 365q0 -233 123 -234q82 0 151.5 79t123 197.5t89.5 257t48 257.5q-31 12 -65.5 19t-82.5 7q-115 0 -188.5 -52t-118.5 -136t-62.5 -187.5t-17.5 -207.5zM459 1384q0 86 54.5 150.5 t154.5 64.5q51 0 84.5 -16t55 -43t31 -60.5t9.5 -66.5q0 -25 -9.5 -61.5t-32 -70.5t-62 -57.5t-103.5 -23.5q-80 0 -131 46t-51 138zM561 1386q0 -33 18.5 -63.5t65.5 -30.5q51 0 75.5 35t24.5 76q0 51 -18 77.5t-61 26.5q-53 0 -79 -36.5t-26 -84.5z" />
<glyph unicode="&#xe6;" horiz-adv-x="1517" d="M70 358q0 168 38.5 301.5t108.5 226.5t165 142t208 49q96 0 178 -35.5t121 -76.5q66 59 139.5 85.5t136.5 26.5q76 0 130.5 -20.5t88 -54t49 -75.5t15.5 -87q0 -113 -59.5 -190t-147.5 -125t-191.5 -71.5t-189.5 -27.5q0 -88 15.5 -146.5t45 -94t73.5 -51t102 -15.5 q37 0 77.5 7t78.5 18.5t72 26.5t58 32l-18 -154q-68 -29 -139.5 -49t-173.5 -20q-106 0 -174 34.5t-105 91t-48 129t-3 148.5h-4q-29 -74 -61.5 -146.5t-79 -130t-105.5 -92t-139 -34.5q-47 0 -93 15t-84 57t-61.5 116t-23.5 190zM233 389q0 -121 27 -189.5t109 -68.5 q37 0 92 39t110.5 129t105.5 236.5t79 363.5q-35 27 -79 38t-97 11q-90 0 -156 -51t-108 -132t-62.5 -180.5t-20.5 -195.5zM860 541q92 12 170 34.5t134.5 57.5t88 82t31.5 108q0 66 -44 95.5t-110 29.5q-76 0 -126 -28.5t-80.5 -83t-45 -129t-18.5 -166.5z" />
<glyph unicode="&#xe7;" horiz-adv-x="872" d="M70 451q0 129 32.5 243.5t97 199.5t162 134t226.5 49q55 0 118.5 -9t116.5 -28l-20 -266h-133l8 162q-23 6 -45.5 9t-50.5 3q-90 0 -156 -37t-109 -102.5t-63.5 -154.5t-20.5 -191q0 -164 67 -254t200 -90q70 0 143.5 24.5t128.5 53.5l-14 -146q-45 -23 -102.5 -45 t-135.5 -26l-18 -134h14q70 0 116 -38.5t46 -98.5q0 -49 -21.5 -86t-58.5 -61.5t-84 -36.5t-98 -12q-53 0 -97.5 11t-82.5 21l16 103q31 -12 76 -22.5t84 -10.5q55 0 91 20.5t36 59.5q0 29 -28 50.5t-67 21.5h-32.5t-30.5 -5l27 218q-94 12 -159 58t-105 111.5t-57 144.5 t-17 157z" />
<glyph unicode="&#xe8;" horiz-adv-x="948" d="M70 455q0 139 40 252.5t109 197.5q70 82 157 127t212 45q76 0 131 -20.5t90 -54t52.5 -76.5t17.5 -88q0 -94 -51.5 -167t-138.5 -126t-204.5 -87t-251.5 -48q0 -162 74 -226.5t195 -64.5q68 0 146.5 23.5t150.5 70.5l-19 -156q-39 -23 -123 -50t-196 -27 q-195 0 -293 109.5t-98 365.5zM233 524q111 14 199 38t151.5 59.5t97.5 86.5t34 119q0 43 -37 82t-119 39q-74 0 -130 -33.5t-97 -92t-65.5 -135.5t-33.5 -163zM283 1495l112 80l297 -277l-104 -81z" />
<glyph unicode="&#xe9;" horiz-adv-x="948" d="M70 455q0 139 40 252.5t109 197.5q70 82 157 127t212 45q76 0 131 -20.5t90 -54t52.5 -76.5t17.5 -88q0 -94 -51.5 -167t-138.5 -126t-204.5 -87t-251.5 -48q0 -162 74 -226.5t195 -64.5q68 0 146.5 23.5t150.5 70.5l-19 -156q-39 -23 -123 -50t-196 -27 q-195 0 -293 109.5t-98 365.5zM233 524q111 14 199 38t151.5 59.5t97.5 86.5t34 119q0 43 -37 82t-119 39q-74 0 -130 -33.5t-97 -92t-65.5 -135.5t-33.5 -163zM379 1298l344 277l104 -80l-358 -278z" />
<glyph unicode="&#xea;" horiz-adv-x="948" d="M70 455q0 139 40 252.5t109 197.5q70 82 157 127t212 45q76 0 131 -20.5t90 -54t52.5 -76.5t17.5 -88q0 -94 -51.5 -167t-138.5 -126t-204.5 -87t-251.5 -48q0 -162 74 -226.5t195 -64.5q68 0 146.5 23.5t150.5 70.5l-19 -156q-39 -23 -123 -50t-196 -27 q-195 0 -293 109.5t-98 365.5zM221 1346l285 229h139l248 -229l-105 -82l-221 196l-256 -196zM233 524q111 14 199 38t151.5 59.5t97.5 86.5t34 119q0 43 -37 82t-119 39q-74 0 -130 -33.5t-97 -92t-65.5 -135.5t-33.5 -163z" />
<glyph unicode="&#xeb;" horiz-adv-x="948" d="M70 455q0 139 40 252.5t109 197.5q70 82 157 127t212 45q76 0 131 -20.5t90 -54t52.5 -76.5t17.5 -88q0 -94 -51.5 -167t-138.5 -126t-204.5 -87t-251.5 -48q0 -162 74 -226.5t195 -64.5q68 0 146.5 23.5t150.5 70.5l-19 -156q-39 -23 -123 -50t-196 -27 q-195 0 -293 109.5t-98 365.5zM233 524q111 14 199 38t151.5 59.5t97.5 86.5t34 119q0 43 -37 82t-119 39q-74 0 -130 -33.5t-97 -92t-65.5 -135.5t-33.5 -163zM240 1397q0 47 31.5 78.5t78.5 31.5t79 -31.5t32 -78.5t-32 -79t-79 -32t-78.5 32t-31.5 79zM659 1397 q0 47 32 78.5t79 31.5t79 -31.5t32 -78.5t-32 -79t-79 -32t-79 32t-32 79z" />
<glyph unicode="&#xec;" horiz-adv-x="569" d="M82 928l12 129h322l-84 -928h155l-12 -129h-313l84 928h-164zM92 1495l113 80l297 -277l-105 -81z" />
<glyph unicode="&#xed;" horiz-adv-x="569" d="M82 928l12 129h322l-84 -928h155l-12 -129h-313l84 928h-164zM188 1298l344 277l105 -80l-358 -278z" />
<glyph unicode="&#xee;" horiz-adv-x="569" d="M31 1346l284 229h140l247 -229l-104 -82l-221 196l-256 -196zM82 928l12 129h322l-84 -928h155l-12 -129h-313l84 928h-164z" />
<glyph unicode="&#xef;" horiz-adv-x="569" d="M49 1397q0 47 32 78.5t79 31.5t78.5 -31.5t31.5 -78.5t-31.5 -79t-78.5 -32t-79 32t-32 79zM82 928l12 129h322l-84 -928h155l-12 -129h-313l84 928h-164zM469 1397q0 47 31.5 78.5t79.5 31.5q47 0 78.5 -31.5t31.5 -78.5t-31.5 -79t-78.5 -32t-79 32t-32 79z" />
<glyph unicode="&#xf0;" horiz-adv-x="1024" d="M70 451q0 129 31.5 243.5t92 199.5t145.5 134t189 49q78 0 147.5 -31.5t110.5 -119.5l5 4q-18 100 -66.5 201.5t-118.5 189.5l-184 -102l-72 71l189 105q-37 39 -74 68.5t-78 52.5l121 75q86 -57 154 -129l182 103l71 -72l-188 -104q76 -94 121 -194.5t68.5 -200 t30.5 -192.5t7 -171q0 -141 -31.5 -261t-94 -206t-153.5 -135t-210 -49q-111 0 -186.5 41.5t-121.5 109.5t-66.5 152t-20.5 168zM233 444q0 -168 71 -246.5t173 -78.5q55 0 111.5 23.5t101.5 80t73 151.5t28 238q0 168 -71 247t-173 79q-55 0 -111.5 -23.5t-101.5 -81 t-73 -152t-28 -237.5z" />
<glyph unicode="&#xf1;" horiz-adv-x="1175" d="M74 928l12 129h322q-10 -61 -18.5 -118.5t-16.5 -117t-18.5 -128t-24.5 -152.5l4 -2q27 102 75 199.5t111.5 172t136 120.5t148.5 46q104 0 153.5 -64.5t49.5 -203.5q0 -63 -7.5 -144t-17.5 -170t-22.5 -183.5t-22.5 -182.5h156l-13 -129h-315q14 127 29.5 246t28 221 t20.5 183t8 130q0 86 -21.5 116t-68.5 30q-57 0 -109.5 -38t-97.5 -99.5t-82 -136t-65.5 -148.5t-46 -138.5t-23.5 -103.5l-43 -262h-156q33 248 55.5 479.5t43.5 448.5h-164zM279 1321q25 74 84 128t137 54q39 0 75.5 -18.5t70.5 -40t64.5 -38.5t59.5 -17t59.5 27.5 t47.5 62.5l102 -70q-55 -90 -102.5 -119.5t-112.5 -29.5q-43 0 -79 17t-69 40t-61.5 40t-56.5 17q-35 0 -60.5 -27.5t-44.5 -76.5z" />
<glyph unicode="&#xf2;" horiz-adv-x="1024" d="M70 451q0 127 31.5 240.5t94 199.5t153.5 136t210 50q111 0 186.5 -43t121.5 -110.5t66.5 -151.5t20.5 -168q0 -129 -31.5 -243.5t-94 -198.5t-153.5 -133t-210 -49q-111 0 -186.5 41.5t-121.5 109.5t-66.5 152t-20.5 168zM233 444q0 -168 71 -246.5t173 -78.5 q55 0 111.5 23.5t101.5 80t73 151.5t28 238q0 168 -71 247t-173 79q-55 0 -111.5 -23.5t-101.5 -81t-73 -152t-28 -237.5zM319 1495l113 80l297 -277l-104 -81z" />
<glyph unicode="&#xf3;" horiz-adv-x="1024" d="M70 451q0 127 31.5 240.5t94 199.5t153.5 136t210 50q111 0 186.5 -43t121.5 -110.5t66.5 -151.5t20.5 -168q0 -129 -31.5 -243.5t-94 -198.5t-153.5 -133t-210 -49q-111 0 -186.5 41.5t-121.5 109.5t-66.5 152t-20.5 168zM233 444q0 -168 71 -246.5t173 -78.5 q55 0 111.5 23.5t101.5 80t73 151.5t28 238q0 168 -71 247t-173 79q-55 0 -111.5 -23.5t-101.5 -81t-73 -152t-28 -237.5zM416 1298l344 277l104 -80l-358 -278z" />
<glyph unicode="&#xf4;" horiz-adv-x="1024" d="M70 451q0 127 31.5 240.5t94 199.5t153.5 136t210 50q111 0 186.5 -43t121.5 -110.5t66.5 -151.5t20.5 -168q0 -129 -31.5 -243.5t-94 -198.5t-153.5 -133t-210 -49q-111 0 -186.5 41.5t-121.5 109.5t-66.5 152t-20.5 168zM233 444q0 -168 71 -246.5t173 -78.5 q55 0 111.5 23.5t101.5 80t73 151.5t28 238q0 168 -71 247t-173 79q-55 0 -111.5 -23.5t-101.5 -81t-73 -152t-28 -237.5zM258 1346l285 229h139l248 -229l-105 -82l-221 196l-256 -196z" />
<glyph unicode="&#xf5;" horiz-adv-x="1024" d="M70 451q0 127 31.5 240.5t94 199.5t153.5 136t210 50q111 0 186.5 -43t121.5 -110.5t66.5 -151.5t20.5 -168q0 -129 -31.5 -243.5t-94 -198.5t-153.5 -133t-210 -49q-111 0 -186.5 41.5t-121.5 109.5t-66.5 152t-20.5 168zM233 444q0 -168 71 -246.5t173 -78.5 q55 0 111.5 23.5t101.5 80t73 151.5t28 238q0 168 -71 247t-173 79q-55 0 -111.5 -23.5t-101.5 -81t-73 -152t-28 -237.5zM244 1321q25 74 84 128t137 54q39 0 76 -18.5t70.5 -40t64.5 -38.5t59 -17q29 0 59.5 27.5t47.5 62.5l102 -70q-55 -90 -102 -119.5t-113 -29.5 q-43 0 -79 17t-68 40q-33 23 -61.5 40t-57.5 17q-35 0 -60.5 -27.5t-44.5 -76.5z" />
<glyph unicode="&#xf6;" horiz-adv-x="1024" d="M70 451q0 127 31.5 240.5t94 199.5t153.5 136t210 50q111 0 186.5 -43t121.5 -110.5t66.5 -151.5t20.5 -168q0 -129 -31.5 -243.5t-94 -198.5t-153.5 -133t-210 -49q-111 0 -186.5 41.5t-121.5 109.5t-66.5 152t-20.5 168zM233 444q0 -168 71 -246.5t173 -78.5 q55 0 111.5 23.5t101.5 80t73 151.5t28 238q0 168 -71 247t-173 79q-55 0 -111.5 -23.5t-101.5 -81t-73 -152t-28 -237.5zM276 1397q0 47 32 78.5t79 31.5t79 -31.5t32 -78.5t-32 -79t-79 -32t-79 32t-32 79zM696 1397q0 47 32 78.5t79 31.5t79 -31.5t32 -78.5t-32 -79 t-79 -32t-79 32t-32 79z" />
<glyph unicode="&#xf7;" horiz-adv-x="1228" d="M96 449v139h1037v-139h-1037zM487 102q0 53 37 90t90 37t90 -36.5t37 -90.5q0 -53 -37.5 -90t-93.5 -37q-49 0 -86 37t-37 90zM487 934q0 53 37 90t90 37t90 -37t37 -90t-36.5 -90t-90.5 -37q-53 0 -90 37t-37 90z" />
<glyph unicode="&#xf8;" horiz-adv-x="1024" d="M20 -117l152 230q-55 72 -78.5 159.5t-23.5 178.5q0 127 31.5 240.5t94 199.5t153.5 136t210 50q131 0 215 -61l144 217l86 -59l-152 -228q55 -72 78.5 -161t23.5 -181q0 -129 -31.5 -243.5t-94 -198.5t-153.5 -133t-210 -49q-66 0 -120 15t-95 44l-144 -215zM233 444 q0 -113 35 -186l422 633q-59 47 -143 47q-55 0 -111.5 -23.5t-101.5 -81t-73 -151.5t-28 -238zM336 168q57 -49 141 -49q55 0 111.5 23.5t101.5 80t73 151.5t28 238q0 115 -35 189z" />
<glyph unicode="&#xf9;" horiz-adv-x="1214" d="M106 928l13 129h315q-31 -256 -58.5 -453.5t-27.5 -327.5q0 -80 21.5 -112.5t68.5 -32.5q57 0 109.5 38t97.5 99.5t82 136t65.5 148.5t46 138.5t23.5 103.5l43 262h156q-33 -248 -55.5 -479.5t-42.5 -448.5h163l-12 -129h-321q10 61 18 118.5t16.5 117t18.5 128t24 152.5 l-4 2q-27 -102 -75 -199.5t-111.5 -173t-136 -120.5t-148.5 -45q-203 0 -202 268q0 74 7 157.5t18 173t22.5 177.5t21.5 172h-156zM416 1495l112 80l297 -277l-104 -81z" />
<glyph unicode="&#xfa;" horiz-adv-x="1214" d="M106 928l13 129h315q-31 -256 -58.5 -453.5t-27.5 -327.5q0 -80 21.5 -112.5t68.5 -32.5q57 0 109.5 38t97.5 99.5t82 136t65.5 148.5t46 138.5t23.5 103.5l43 262h156q-33 -248 -55.5 -479.5t-42.5 -448.5h163l-12 -129h-321q10 61 18 118.5t16.5 117t18.5 128t24 152.5 l-4 2q-27 -102 -75 -199.5t-111.5 -173t-136 -120.5t-148.5 -45q-203 0 -202 268q0 74 7 157.5t18 173t22.5 177.5t21.5 172h-156zM512 1298l344 277l105 -80l-359 -278z" />
<glyph unicode="&#xfb;" horiz-adv-x="1214" d="M106 928l13 129h315q-31 -256 -58.5 -453.5t-27.5 -327.5q0 -80 21.5 -112.5t68.5 -32.5q57 0 109.5 38t97.5 99.5t82 136t65.5 148.5t46 138.5t23.5 103.5l43 262h156q-33 -248 -55.5 -479.5t-42.5 -448.5h163l-12 -129h-321q10 61 18 118.5t16.5 117t18.5 128t24 152.5 l-4 2q-27 -102 -75 -199.5t-111.5 -173t-136 -120.5t-148.5 -45q-203 0 -202 268q0 74 7 157.5t18 173t22.5 177.5t21.5 172h-156zM330 1346l284 229h140l247 -229l-104 -82l-221 196l-256 -196z" />
<glyph unicode="&#xfc;" horiz-adv-x="1214" d="M106 928l13 129h315q-31 -256 -58.5 -453.5t-27.5 -327.5q0 -80 21.5 -112.5t68.5 -32.5q57 0 109.5 38t97.5 99.5t82 136t65.5 148.5t46 138.5t23.5 103.5l43 262h156q-33 -248 -55.5 -479.5t-42.5 -448.5h163l-12 -129h-321q10 61 18 118.5t16.5 117t18.5 128t24 152.5 l-4 2q-27 -102 -75 -199.5t-111.5 -173t-136 -120.5t-148.5 -45q-203 0 -202 268q0 74 7 157.5t18 173t22.5 177.5t21.5 172h-156zM348 1397q0 47 32 78.5t79 31.5t78.5 -31.5t31.5 -78.5t-31.5 -79t-78.5 -32t-79 32t-32 79zM768 1397q0 47 31.5 78.5t79.5 31.5 q47 0 78.5 -31.5t31.5 -78.5t-31.5 -79t-78.5 -32t-79 32t-32 79z" />
<glyph unicode="&#xfd;" horiz-adv-x="1099" d="M-4 -522l12 129q27 -8 54.5 -12.5t64.5 -4.5q35 0 68.5 9.5t67.5 37t69 76.5t74 129l61 129l-272 957h-156l12 129h287l194 -768q10 -41 17.5 -75t7.5 -75h4q14 47 25.5 86t25.5 78l246 625h-176l12 129h326l-12 -129l-174 -428q-86 -215 -154 -375t-123 -275.5 t-104.5 -190.5t-99.5 -119t-106.5 -61.5t-125.5 -17.5q-41 0 -72 6.5t-53 10.5zM455 1298l344 277l104 -80l-358 -278z" />
<glyph unicode="&#xfe;" d="M-35 -514l12 129h129l162 1831h-190l12 129h350q-25 -258 -42 -426t-30.5 -278.5t-21.5 -178t-14 -123.5l4 -4q66 244 178.5 378t265.5 134q72 0 120 -31.5t78 -86t42 -125t12 -148.5q0 -53 -9 -125t-33.5 -150.5t-64.5 -155.5t-101.5 -138.5t-147.5 -99t-199 -37.5 q-72 0 -115 8t-65 12l-35 -385h164l-12 -129h-449zM309 139q23 -10 69 -20t105 -10q96 0 168 49t120 131t72.5 186.5t24.5 214.5q0 113 -27.5 174.5t-86.5 61.5q-72 0 -144.5 -63.5t-135 -171t-106.5 -250t-59 -302.5z" />
<glyph unicode="&#xff;" horiz-adv-x="1099" d="M-4 -522l12 129q27 -8 54.5 -12.5t64.5 -4.5q35 0 68.5 9.5t67.5 37t69 76.5t74 129l61 129l-272 957h-156l12 129h287l194 -768q10 -41 17.5 -75t7.5 -75h4q14 47 25.5 86t25.5 78l246 625h-176l12 129h326l-12 -129l-174 -428q-86 -215 -154 -375t-123 -275.5 t-104.5 -190.5t-99.5 -119t-106.5 -61.5t-125.5 -17.5q-41 0 -72 6.5t-53 10.5zM274 1397q0 47 32 78.5t79 31.5t79 -31.5t32 -78.5t-32 -79t-79 -32t-79 32t-32 79zM694 1397q0 47 32 78.5t79 31.5t78.5 -31.5t31.5 -78.5t-31.5 -79t-78.5 -32t-79 32t-32 79z" />
<glyph unicode="&#x152;" horiz-adv-x="1972" d="M104 631q0 168 47.5 316.5t139.5 259t229 175t318 64.5q90 0 163 -6q76 -6 125 -6h752l-20 -326h-134l9 197h-471l-45 -504h481l-12 -129h-482l-47 -543h516l25 201h145l-33 -330h-759q-78 0 -133.5 -1t-96.5 -5t-65.5 -5t-42.5 -1q-180 0 -298 57t-186.5 149.5 t-96.5 207t-28 229.5zM281 635q0 -254 123.5 -386t388.5 -132q53 0 108 4t92 8l105 1176q-47 4 -107.5 8t-120.5 4q-137 0 -246.5 -49t-185.5 -139.5t-116.5 -215.5t-40.5 -278z" />
<glyph unicode="&#x153;" horiz-adv-x="1593" d="M70 442q0 125 27.5 240t86 203t148.5 140t217 52q113 0 197.5 -67.5t105.5 -196.5h4q8 31 31.5 76t67.5 87t112 71.5t164 29.5q127 0 210 -63.5t83 -175.5q0 -115 -63.5 -192t-158 -124t-202 -69.5t-195.5 -26.5q0 -166 61.5 -236.5t178.5 -70.5q90 0 168 26.5t129 55.5 l-15 -154q-23 -12 -58.5 -24.5t-78.5 -21.5t-89 -15t-89 -6q-139 0 -224 59t-108 203h-4q-10 -51 -38.5 -98.5t-71.5 -84t-99.5 -58t-122.5 -21.5q-82 0 -150.5 29.5t-118.5 88t-77.5 145.5t-27.5 199zM233 438q0 -61 15.5 -119.5t43 -102.5t69 -70.5t92.5 -26.5 q88 0 145 43t91 117.5t47.5 177t13.5 221.5q0 147 -57.5 208.5t-155.5 61.5q-66 0 -121.5 -29.5t-96 -91t-63.5 -158t-23 -231.5zM905 541q82 8 163 25.5t145.5 49t105.5 79.5t41 118q0 25 -8.5 48.5t-27.5 43t-49 31.5t-73 12q-133 0 -215 -102.5t-82 -304.5z" />
<glyph unicode="&#x178;" horiz-adv-x="1366" d="M33 1305l8 129h469l-8 -129h-131q8 -10 13 -20.5t13 -24.5l299 -537l387 537q10 16 19.5 25t19.5 20h-170l9 129h456l-8 -129h-129l-522 -709l-39 -467h164l-13 -129h-456l12 129h129l41 459l-416 717h-147zM449 1651q0 47 31.5 78.5t78.5 31.5t79 -31.5t32 -78.5 t-32 -79t-79 -32t-78.5 32t-31.5 79zM868 1651q0 47 32 78.5t79 31.5t79 -31.5t32 -78.5t-32 -79t-79 -32t-79 32t-32 79z" />
<glyph unicode="&#x2c6;" horiz-adv-x="569" d="M31 1346l284 229h140l247 -229l-104 -82l-221 196l-256 -196z" />
<glyph unicode="&#x2dc;" horiz-adv-x="569" d="M16 1321q25 74 84.5 128t137.5 54q39 0 75.5 -18.5t70.5 -40t64.5 -38.5t59.5 -17t59.5 27.5t46.5 62.5l103 -70q-55 -90 -102.5 -119.5t-112.5 -29.5q-43 0 -79 17t-69 40t-61.5 40t-56.5 17q-35 0 -60.5 -27.5t-44.5 -76.5z" />
<glyph unicode="&#x2000;" horiz-adv-x="937" />
<glyph unicode="&#x2001;" horiz-adv-x="1874" />
<glyph unicode="&#x2002;" horiz-adv-x="937" />
<glyph unicode="&#x2003;" horiz-adv-x="1874" />
<glyph unicode="&#x2004;" horiz-adv-x="624" />
<glyph unicode="&#x2005;" horiz-adv-x="468" />
<glyph unicode="&#x2006;" horiz-adv-x="312" />
<glyph unicode="&#x2007;" horiz-adv-x="312" />
<glyph unicode="&#x2008;" horiz-adv-x="234" />
<glyph unicode="&#x2009;" horiz-adv-x="374" />
<glyph unicode="&#x200a;" horiz-adv-x="104" />
<glyph unicode="&#x2010;" horiz-adv-x="757" d="M135 485l12 152h476l-13 -152h-475z" />
<glyph unicode="&#x2011;" horiz-adv-x="757" d="M135 485l12 152h476l-13 -152h-475z" />
<glyph unicode="&#x2012;" horiz-adv-x="757" d="M135 485l12 152h476l-13 -152h-475z" />
<glyph unicode="&#x2013;" horiz-adv-x="1024" d="M-12 492l12 139h1024l-12 -139h-1024z" />
<glyph unicode="&#x2014;" horiz-adv-x="2048" d="M-12 492l12 139h2048l-12 -139h-2048z" />
<glyph unicode="&#x2018;" horiz-adv-x="569" d="M170 1186q0 145 86 248.5t231 156.5l56 -94q-84 -35 -134.5 -83t-50.5 -109q0 -35 10.5 -58.5t24 -43t23.5 -38t10 -45.5q0 -51 -36 -82.5t-83 -31.5q-57 0 -97 45t-40 135z" />
<glyph unicode="&#x2019;" horiz-adv-x="569" d="M109 1100q84 35 134 83t50 109q0 35 -10.5 58.5t-23.5 43t-23.5 38t-10.5 45.5q0 51 36 82.5t83 31.5q57 0 97 -45t40 -135q0 -145 -86 -248.5t-231 -156.5z" />
<glyph unicode="&#x201a;" horiz-adv-x="569" d="M98 -279q84 35 134.5 83.5t50.5 109.5q0 35 -10.5 58.5t-23.5 43t-23.5 38t-10.5 44.5q0 51 36 83t83 32q57 0 97 -45t40 -135q0 -145 -86 -248.5t-231 -157.5z" />
<glyph unicode="&#x201c;" horiz-adv-x="909" d="M133 1186q0 145 86 248.5t232 156.5l55 -94q-84 -35 -134 -83t-50 -109q0 -35 10 -58.5t23.5 -43t23.5 -38t10 -45.5q0 -51 -36 -82.5t-83 -31.5q-57 0 -97 45t-40 135zM547 1186q0 145 86 248.5t231 156.5l56 -94q-84 -35 -134.5 -83t-50.5 -109q0 -35 10.5 -58.5 t23.5 -43t23.5 -38t10.5 -45.5q0 -51 -36 -82.5t-83 -31.5q-57 0 -97 45t-40 135z" />
<glyph unicode="&#x201d;" horiz-adv-x="909" d="M82 1100q84 35 134 83t50 109q0 35 -10 58.5t-23.5 43t-23.5 38t-10 45.5q0 51 35.5 82.5t82.5 31.5q57 0 97.5 -45t40.5 -135q0 -145 -86 -248.5t-232 -156.5zM496 1100q84 35 134 83t50 109q0 35 -10.5 58.5t-23.5 43t-23.5 38t-10.5 45.5q0 51 36 82.5t83 31.5 q57 0 97 -45t40 -135q0 -145 -86 -248.5t-231 -156.5z" />
<glyph unicode="&#x201e;" horiz-adv-x="909" d="M61 -279q84 35 134.5 83.5t50.5 109.5q0 35 -10.5 58.5t-23.5 43t-23.5 38t-10.5 44.5q0 51 36 83t83 32q57 0 97 -45t40 -135q0 -145 -86 -248.5t-231 -157.5zM475 -279q84 35 134 83.5t50 109.5q0 35 -10 58.5t-23.5 43t-23.5 38t-10 44.5q0 51 36 83t83 32 q57 0 97 -45t40 -135q0 -145 -86 -248.5t-232 -157.5z" />
<glyph unicode="&#x2022;" horiz-adv-x="1024" d="M154 717q0 74 27.5 139.5t76.5 114.5t114.5 76.5t139.5 27.5t139.5 -27.5t114.5 -76.5t76.5 -114.5t27.5 -139.5t-27.5 -139.5t-76.5 -114.5t-114.5 -77t-139.5 -28t-139.5 28t-114.5 77t-76.5 114.5t-27.5 139.5z" />
<glyph unicode="&#x2026;" horiz-adv-x="2048" d="M225 96q0 47 35 82t82 35t82 -35t35 -82t-35 -81.5t-82 -34.5t-82 34.5t-35 81.5zM907 96q0 47 35 82t82 35t82 -35t35 -82t-35 -81.5t-82 -34.5t-82 34.5t-35 81.5zM1589 96q0 47 35 82t82 35t82 -35t35 -82t-35 -81.5t-82 -34.5t-82 34.5t-35 81.5z" />
<glyph unicode="&#x202f;" horiz-adv-x="374" />
<glyph unicode="&#x2039;" horiz-adv-x="606" d="M96 520l13 107l311 288l90 -94l-268 -250l225 -270l-109 -94z" />
<glyph unicode="&#x203a;" horiz-adv-x="606" d="M96 301l269 250l-226 270l109 94l262 -313l-12 -106l-312 -289z" />
<glyph unicode="&#x205f;" horiz-adv-x="468" />
<glyph unicode="&#x20ac;" d="M27 545l84 127h63q2 35 4 65.5t6 59.5h-157l86 127h96q141 535 620 534q133 0 324 -57l-14 -299h-123v192q-100 33 -178 33q-350 0 -459 -403h661l-82 -127h-604q-4 -35 -6 -67t-2 -58h559l-84 -127h-471q43 -432 420 -432q150 0 322 82l-15 -162q-176 -61 -323 -62 q-516 0 -578 574h-149z" />
<glyph unicode="&#x2122;" horiz-adv-x="2027" d="M84 1294v140h680v-140h-252v-712h-176v712h-252zM928 582v852h256l221 -596l229 596h248v-852h-164v671h-4l-252 -671h-114l-252 671h-4v-671h-164z" />
<glyph unicode="&#xe000;" horiz-adv-x="1054" d="M0 0v1055h1055v-1055h-1055z" />
</font>
</defs>
</svg>
