<?xml version="1.0" standalone="no"?>
<!DOCTYPE svg PUBLIC "-//W3C//DTD SVG 1.1//EN" "http://www.w3.org/Graphics/SVG/1.1/DTD/svg11.dtd" >
<svg xmlns="http://www.w3.org/2000/svg">
<metadata></metadata>
<defs>
<font id="caecilia_lt_std46LtIt" horiz-adv-x="1138" >
<font-face units-per-em="2048" ascent="1575" descent="-473" />
<missing-glyph horiz-adv-x="569" />
<glyph unicode="&#xfb01;" d="M-279 -504l9 90q41 -16 83 -25.5t81 -9.5q88 0 145 37t94 119t57.5 211t32.5 311l51 734h-163l8 90h162q8 135 35.5 236.5t82 168t140.5 100t213 33.5q72 0 131 -13t96 -28l-10 -90q-43 16 -93.5 28.5t-123.5 12.5q-117 0 -185.5 -32.5t-106.5 -91t-52.5 -141.5 t-20.5 -183h567l-86 -963h174l-8 -90h-272l86 963h-467l-55 -734q-12 -168 -31 -308t-63 -242.5t-121.5 -160t-208.5 -57.5q-45 0 -93.5 11.5t-87.5 23.5z" />
<glyph unicode="&#xfb02;" d="M-279 -504l9 90q41 -16 83 -25.5t81 -9.5q88 0 145 37t94 119t57.5 211t32.5 311l51 734h-163l8 90h162q8 135 35.5 236.5t82 168t140.5 100t213 33.5q63 0 139 -16h108l-131 -1485h174l-8 -90h-272l131 1477q-23 10 -61.5 17t-79.5 7q-117 0 -185.5 -32.5t-106.5 -91 t-52.5 -141.5t-20.5 -183h303l-8 -90h-301l-55 -734q-12 -168 -31 -308t-63 -242.5t-121.5 -160t-208.5 -57.5q-45 0 -93.5 11.5t-87.5 23.5z" />
<glyph horiz-adv-x="2048" />
<glyph horiz-adv-x="2048" />
<glyph unicode="&#xd;" horiz-adv-x="569" />
<glyph unicode=" "  horiz-adv-x="569" />
<glyph unicode="&#x09;" horiz-adv-x="569" />
<glyph unicode="&#xa0;" horiz-adv-x="569" />
<glyph unicode="!" horiz-adv-x="606" d="M160 72q0 43 23.5 74.5t66.5 31.5q41 0 63.5 -28.5t22.5 -67.5q0 -43 -27.5 -68.5t-60.5 -25.5q-41 0 -64.5 24.5t-23.5 59.5zM240 483l82 1092h114l-106 -1092h-90z" />
<glyph unicode="&#x22;" horiz-adv-x="796" d="M215 1522q0 16 16.5 42.5t57.5 26.5t57 -26.5t16 -42.5q0 -27 -6 -82l-28 -285q-2 -16 -9.5 -32.5t-29.5 -16.5q-23 0 -30 16.5t-9 32.5l-29 285q-6 55 -6 82zM496 1522q0 16 16 42.5t57 26.5t57.5 -26.5t16.5 -42.5q0 -27 -6 -82l-29 -285q-2 -16 -9 -32.5t-30 -16.5 t-30 16.5t-9 32.5l-28 285q-6 55 -6 82z" />
<glyph unicode="#" d="M53 459l15 98h235l45 320h-235l14 98h235l64 459h98l-63 -459h291l63 459h98l-63 -459h235l-14 -98h-235l-45 -320h235l-14 -98h-236l-63 -459h-99l64 459h-291l-63 -459h-99l64 459h-236zM401 557h291l45 320h-291z" />
<glyph unicode="$" d="M70 53l22 275h90l-6 -205q29 -10 71 -20.5t85 -17.5t81 -11t60 -4l57 632q-119 37 -194.5 76t-119.5 84t-60.5 94.5t-16.5 106.5q0 113 47 187.5t116 118.5t148.5 62.5t147.5 22.5l23 254h90l-23 -254q90 -4 173 -19.5t149 -41.5l-13 -254h-84v188q-45 14 -108.5 25.5 t-124.5 11.5l-51 -578q82 -29 156.5 -57.5t131 -70.5t89 -102t32.5 -148q0 -106 -43 -184.5t-111.5 -130.5t-154.5 -79.5t-174 -33.5l-25 -275h-90l25 275q-68 2 -131.5 11t-115.5 19t-91 21.5t-57 21.5zM254 1073q0 -55 18.5 -93t55.5 -66.5t90 -52t123 -50.5l49 553 q-66 -2 -127.5 -22.5t-107.5 -57.5t-73.5 -90t-27.5 -121zM563 70q61 6 125 27.5t116 61.5t86 99t34 143q0 57 -20.5 97.5t-60.5 71t-96.5 54t-128.5 50.5z" />
<glyph unicode="%" horiz-adv-x="1630" d="M76 -39l1394 1571l66 -59l-1395 -1571zM123 1106q0 72 21.5 135.5t62.5 110.5t101.5 74.5t140.5 27.5q125 0 198.5 -75.5t73.5 -215.5q0 -82 -24.5 -147.5t-67.5 -111.5t-101.5 -71.5t-126.5 -25.5q-72 0 -124 23.5t-85.5 64.5t-51 95.5t-17.5 115.5zM229 1106 q0 -90 43 -149.5t140 -59.5q33 0 68.5 13.5t65 44t49 80.5t19.5 124q0 86 -39.5 145.5t-132.5 59.5q-37 0 -74.5 -12.5t-68.5 -41t-50.5 -78.5t-19.5 -126zM926 279q0 72 21.5 135t62.5 110t101 75t140 28q125 0 199 -76t74 -215q0 -82 -24.5 -147.5t-67.5 -111.5 t-101.5 -71.5t-126.5 -25.5q-72 0 -124 23.5t-85.5 64.5t-51 95.5t-17.5 115.5zM1032 279q0 -90 43 -149.5t139 -59.5q33 0 69 13t65.5 44t49 81t19.5 124q0 86 -40 145.5t-132 59.5q-37 0 -74.5 -12.5t-68.5 -41t-50.5 -78.5t-19.5 -126z" />
<glyph unicode="&#x26;" horiz-adv-x="1517" d="M106 375q0 88 33 155.5t85 123t115.5 101.5t125.5 87q-72 78 -118 151.5t-46 165.5q0 57 21.5 111.5t63.5 97.5t103.5 68.5t141.5 25.5q57 0 109.5 -15t91 -46t61 -77t22.5 -105q0 -70 -32.5 -128.5t-80.5 -105.5t-103.5 -84t-98.5 -63l438 -480q47 72 77 180.5t32 213.5 h-164l8 90h400l-9 -90h-137q-8 -119 -45 -242t-104 -215l112 -121q47 -53 80 -68.5t84 -15.5h62l-9 -90h-82q-41 0 -67.5 7t-52 23.5t-54 46t-73.5 77.5l-60 61q-18 -18 -55 -54t-95.5 -72t-139 -62.5t-187.5 -26.5q-104 0 -188 27.5t-142.5 77t-90.5 118t-32 152.5z M213 385q0 -78 33 -134t83 -92t113.5 -52.5t124.5 -16.5q84 0 149.5 18.5t115 47t86 62.5t61.5 63l-461 503q-41 -25 -93 -63.5t-99 -88.5t-80 -112.5t-33 -134.5zM399 1167q0 -74 47.5 -145.5t100.5 -130.5q43 31 91 62.5t88 69.5t65.5 83t25.5 104q0 45 -16.5 76t-44 50.5 t-61 27.5t-66.5 8q-94 0 -162 -51t-68 -154z" />
<glyph unicode="'" horiz-adv-x="569" d="M242 1522q0 16 16 42.5t57 26.5t57.5 -26.5t16.5 -42.5q0 -27 -6 -82l-29 -285q-2 -16 -9 -32.5t-30 -16.5t-29.5 16.5t-9.5 32.5l-28 285q-6 55 -6 82z" />
<glyph unicode="(" horiz-adv-x="681" d="M213 391q0 174 36 340t101.5 319.5t157.5 294t205 263.5l61 -54q-84 -109 -165 -231.5t-143.5 -267t-100 -313.5t-37.5 -369q0 -250 54 -458t177 -407l-63 -55q-133 203 -208 427t-75 511z" />
<glyph unicode=")" horiz-adv-x="681" d="M-195 -494q84 106 165 230.5t143.5 269t100.5 313t38 369.5q0 125 -13.5 238.5t-41 219t-71.5 206t-106 200.5l64 56q66 -102 118 -207t89 -219.5t56.5 -241.5t19.5 -270q0 -174 -36 -340t-101.5 -319.5t-157.5 -294t-205 -263.5z" />
<glyph unicode="*" horiz-adv-x="681" d="M98 1204l228 86l-209 123l63 90l178 -168l4 240h107l-55 -240l194 140l54 -95l-230 -90l213 -114l-61 -89l-174 158v-233h-107l51 233l-207 -135z" />
<glyph unicode="+" horiz-adv-x="1228" d="M96 469v98h469v469h99v-469h469v-98h-469v-469h-99v469h-469z" />
<glyph unicode="," horiz-adv-x="569" d="M59 -250q31 12 62 29.5t55.5 39t39.5 50.5t15 65q0 29 -10 46.5t-21.5 33t-21.5 31.5t-10 45q0 45 29.5 63.5t58.5 18.5q53 0 82 -41t29 -111q0 -74 -26 -128t-64.5 -93t-88 -65.5t-94.5 -46.5z" />
<glyph unicode="-" horiz-adv-x="720" d="M133 483l8 99h426l-8 -99h-426z" />
<glyph unicode="." horiz-adv-x="569" d="M150 72q0 43 23.5 74.5t66.5 31.5q41 0 63.5 -28.5t22.5 -67.5q0 -43 -28 -68.5t-60 -25.5q-41 0 -64.5 24.5t-23.5 59.5z" />
<glyph unicode="/" horiz-adv-x="796" d="M-33 -117l813 1708l82 -41l-813 -1708z" />
<glyph unicode="0" d="M100 580q0 172 31 329.5t95.5 278.5t163.5 193.5t237 72.5q92 0 160.5 -32.5t115.5 -86t77 -122t46 -140.5t22.5 -142.5t6.5 -125.5q0 -141 -27 -287.5t-89 -266.5t-164.5 -195.5t-254.5 -75.5q-115 0 -194.5 50t-130 133t-73 191.5t-22.5 225.5zM207 592q0 -88 12 -179 t49 -166t102.5 -122t170.5 -47q80 0 142 33.5t107.5 90t76 130.5t48 154.5t25.5 162.5t8 156q0 143 -24.5 247.5t-67.5 172t-103.5 99.5t-131.5 32q-82 0 -144.5 -36t-108.5 -96.5t-77 -138t-49.5 -162.5t-26.5 -171t-8 -160z" />
<glyph unicode="1" d="M172 1171l449 263h102l-117 -1344h297l-8 -90h-668l9 90h264l108 1247l-4 4q-4 -8 -15 -17t-26 -19l-348 -207z" />
<glyph unicode="2" d="M88 0l8 82q139 135 279.5 270t252 263t182.5 247t71 221q0 125 -72 199t-195 74q-78 0 -136 -22.5t-100 -63.5t-69.5 -96.5t-46.5 -122.5h-106q14 68 45.5 138.5t87 129.5t137.5 97t199 38q98 0 168.5 -32.5t115.5 -84t65.5 -115t20.5 -122.5q0 -49 -11 -105.5 t-54 -134.5t-128 -182.5t-233 -251.5l-333 -332v-4q16 4 32.5 6t32.5 2h694l-8 -98h-899z" />
<glyph unicode="3" d="M78 45l10 107q55 -23 139 -48.5t215 -25.5q92 0 166 22.5t127 64.5t82 102.5t29 138.5q0 104 -45 162.5t-116 87t-158 34.5t-169 6l9 99h39q104 0 186 29.5t139 77.5t87 106.5t30 117.5q0 94 -63.5 162t-194.5 68q-119 0 -203 -65.5t-106 -182.5h-107l4 26q4 27 20.5 65 t45 83t77 83t118 63.5t165.5 25.5t163 -28.5t109 -73.5t60 -100.5t18 -110.5q0 -82 -27.5 -145.5t-75.5 -110.5t-112.5 -77t-138.5 -42v-4q74 -10 139.5 -32.5t114.5 -63.5t78 -100.5t29 -141.5q0 -86 -32 -166t-97.5 -141.5t-166 -99t-239.5 -37.5q-94 0 -178 18t-170 47z " />
<glyph unicode="4" d="M47 465l10 96l725 873h119l-76 -879h258l-8 -90h-260l-33 -375h172l-8 -90h-416l9 90h137l33 375h-662zM162 549q39 6 82 6h475l67 739h-4z" />
<glyph unicode="5" d="M106 27l9 106q68 -35 144.5 -45t150.5 -10q102 0 183 28.5t136 77.5t85 117t30 145q0 104 -45 169t-128 104t-201 56.5t-261 23.5l63 635h691l-9 -99h-594l-47 -446q121 -2 236 -23.5t204 -71t143 -132t54 -207.5q0 -80 -30.5 -165t-97 -153.5t-170 -112.5t-251.5 -44 q-68 0 -149.5 12t-145.5 35z" />
<glyph unicode="6" d="M121 555q0 53 9 140t36 186.5t77 202t132 184.5t199.5 134t279.5 52q74 0 129 -11t90 -26l-22 -86q-35 14 -87.5 23.5t-107.5 9.5q-162 0 -272.5 -58.5t-182 -153.5t-111.5 -218t-59 -250l5 -4q20 35 56 71.5t85 67.5t109.5 50.5t134.5 19.5q84 0 156.5 -31t126.5 -86 t85 -132t31 -171q0 -92 -29.5 -180t-86 -157t-140.5 -110.5t-191 -41.5q-123 0 -208.5 43t-140 119.5t-79 182t-24.5 230.5zM227 580q0 -90 15.5 -180.5t54.5 -164t107.5 -119.5t177.5 -46q68 0 127 27.5t105 77.5t72.5 122t26.5 162q0 152 -87 242t-230 90q-72 0 -129 -23 t-103.5 -55.5t-80 -69.5t-56.5 -63z" />
<glyph unicode="7" d="M135 0q20 29 45 63.5t49.5 69.5t46 69t35.5 58l541 938q23 39 44.5 74t45.5 63h-737l8 99h846l-8 -74l-650 -1137q-39 -68 -72.5 -120t-68.5 -103h-125z" />
<glyph unicode="8" d="M76 338q0 82 34.5 147.5t90 116.5t126 88t144.5 64q-59 35 -109.5 67.5t-87 71.5t-58 88t-21.5 115q0 100 42 169.5t106.5 110.5t140 59.5t143.5 18.5q72 0 141.5 -17.5t123.5 -54t88 -95t34 -140.5q0 -84 -34 -145.5t-86 -107.5t-114.5 -79t-117.5 -57q84 -37 149.5 -76 t110.5 -85t68.5 -102.5t23.5 -127.5q0 -86 -35 -157t-99.5 -122t-157.5 -79.5t-210 -28.5q-96 0 -177 23.5t-138.5 68.5t-89 112.5t-31.5 153.5zM182 334q0 -117 92.5 -190.5t262.5 -73.5q82 0 149.5 19.5t116.5 56t76.5 91t27.5 125.5q0 70 -30.5 121.5t-79.5 91 t-111.5 72.5t-128.5 64q-74 -33 -141.5 -68t-119.5 -78t-83 -99t-31 -132zM301 1102q0 -55 23.5 -98t61.5 -79t87 -66t102 -58q57 27 117 59.5t108 73.5t77.5 93t29.5 120q0 59 -25.5 100t-66.5 67.5t-91 38t-101 11.5q-80 0 -139.5 -20.5t-100.5 -56.5t-61.5 -83 t-20.5 -102z" />
<glyph unicode="9" d="M70 12l24 92q47 -12 101.5 -23t123.5 -11q123 0 213.5 38.5t154 101t103 141.5t63.5 156t35 146.5t15 114.5l-4 4q-18 -31 -49 -65.5t-74 -63.5t-100.5 -48.5t-132.5 -19.5q-82 0 -156 26t-129 78t-87 131t-32 183q0 117 40 204t103.5 144.5t143.5 85t160 27.5 q86 0 163.5 -34t135 -105.5t91.5 -182t34 -266.5q0 -168 -37 -327.5t-119 -283.5t-213 -199.5t-319 -75.5q-86 0 -147.5 11t-104.5 21zM246 999q0 -150 88 -237.5t237 -87.5q68 0 122.5 22.5t95 53t69.5 64.5t45 56q0 88 -17.5 176.5t-57.5 159t-103 114.5t-156 44 q-70 0 -129 -26.5t-102 -75t-67.5 -115t-24.5 -148.5z" />
<glyph unicode=":" horiz-adv-x="569" d="M150 72q0 43 23.5 74.5t66.5 31.5q41 0 63.5 -28.5t22.5 -67.5q0 -43 -28 -68.5t-60 -25.5q-41 0 -64.5 24.5t-23.5 59.5zM233 909q0 43 24 75t67 32q41 0 63.5 -29t22.5 -67q0 -43 -28 -69t-60 -26q-41 0 -65 24.5t-24 59.5z" />
<glyph unicode=";" horiz-adv-x="569" d="M59 -250q31 12 62 29.5t55.5 39t39.5 50.5t15 65q0 29 -10 46.5t-21.5 33t-21.5 31.5t-10 45q0 45 29.5 63.5t58.5 18.5q53 0 82 -41t29 -111q0 -74 -26 -128t-64.5 -93t-88 -65.5t-94.5 -46.5zM233 909q0 43 24 75t67 32q41 0 63.5 -29t22.5 -67q0 -43 -28 -69t-60 -26 q-41 0 -65 24.5t-24 59.5z" />
<glyph unicode="&#x3c;" horiz-adv-x="1228" d="M96 461v114l1037 478v-115l-912 -420l912 -420v-114z" />
<glyph unicode="=" horiz-adv-x="1228" d="M96 268v99h1037v-99h-1037zM96 670v98h1037v-98h-1037z" />
<glyph unicode="&#x3e;" horiz-adv-x="1228" d="M96 -16v114l912 420l-912 420v115l1037 -478v-114z" />
<glyph unicode="?" horiz-adv-x="985" d="M207 72q0 43 23.5 74.5t66.5 31.5q41 0 63.5 -28.5t22.5 -67.5q0 -43 -27.5 -68.5t-60.5 -25.5q-41 0 -64.5 24.5t-23.5 59.5zM225 623q0 47 18.5 83.5t48.5 66.5t64.5 53.5t67.5 45.5l139 93q37 25 70 53.5t59.5 63t42 76.5t15.5 91q0 119 -81 181.5t-204 62.5 q-78 0 -136.5 -14.5t-82.5 -24.5l-21 92q55 18 112.5 31.5t141.5 13.5q96 0 167 -27.5t118 -73.5t69.5 -104.5t22.5 -121.5q0 -70 -22.5 -126.5t-53 -99.5t-63.5 -73.5t-55 -44.5l-140 -95q-98 -66 -144 -104.5t-46 -89.5q0 -47 24.5 -76t40.5 -55l-82 -64q-27 27 -58.5 79 t-31.5 108z" />
<glyph unicode="@" horiz-adv-x="1638" d="M74 717q0 156 61.5 292t169 236.5t249.5 158.5t306 58q147 0 275.5 -46t223.5 -129t150.5 -196.5t55.5 -248.5q0 -117 -44 -220.5t-114 -181.5t-155 -123t-167 -45q-57 0 -98 33t-37 105h-4q-72 -68 -136.5 -103t-147.5 -35q-119 0 -192 79t-73 216q0 104 36 209 t100.5 190t154.5 137t199 52q72 0 131 -38t94 -130h4l49 133h115l-205 -590q-10 -33 -18 -63.5t-8 -54.5q0 -49 55 -50q70 0 134.5 46.5t115.5 118t81.5 157.5t30.5 164q0 119 -50 216t-134 165.5t-193.5 105.5t-228.5 37q-152 0 -277.5 -53t-217 -142.5t-142.5 -209 t-51 -250.5q0 -137 53.5 -257t145.5 -208t218 -139.5t271 -51.5q82 0 163 19.5t154.5 55.5t136 88t105.5 118h119q-51 -86 -125 -154.5t-163 -116.5t-188 -74t-202 -26q-168 0 -312.5 58.5t-249.5 160t-164.5 237.5t-59.5 290zM504 578q0 -94 41 -150.5t133 -56.5 q80 0 148.5 50t117.5 125t77 161t28 155q0 98 -40 146.5t-132 48.5q-82 0 -151 -48t-118 -120t-76.5 -155.5t-27.5 -155.5z" />
<glyph unicode="A" horiz-adv-x="1554" d="M18 0l9 90h143l616 1354h115l377 -1354h172l-8 -90h-422l8 90h133l-133 492h-532l-220 -492h173l-9 -90h-422zM537 672h467l-142 530q-10 35 -18 70t-13 74h-4q-12 -39 -25.5 -74t-29.5 -70z" />
<glyph unicode="B" horiz-adv-x="1175" d="M66 0l8 90h139l111 1253h-170l8 91h444q84 0 136.5 -7.5t109.5 -35.5q78 -39 127 -106.5t49 -174.5q0 -57 -18.5 -114.5t-56.5 -105.5t-97 -84t-139 -50v-4q70 0 133 -20.5t111.5 -62.5t77 -103.5t28.5 -143.5q0 -61 -14.5 -110.5t-39 -90.5t-57 -72.5t-67.5 -58.5 q-76 -55 -181.5 -72.5t-220.5 -17.5h-421zM319 90h244q51 0 119 12.5t127 48t101 101t42 174.5q0 74 -30.5 127t-83 86t-124 48t-153.5 15h-106q-29 0 -50.5 -1t-31.5 -3zM381 788q23 -4 47.5 -4h46.5h74q70 0 135.5 18.5t116.5 57.5t81.5 100.5t30.5 147.5q0 82 -31.5 130 t-79.5 70.5t-105.5 28.5t-108.5 6h-158z" />
<glyph unicode="C" horiz-adv-x="1327" d="M125 647q0 63 12.5 149.5t43 176.5t84.5 178t138 157.5t201 111.5t275 42q100 0 185 -18.5t159 -40.5l-9 -270h-98l8 202q-47 14 -105 25.5t-147 11.5q-184 0 -307 -69.5t-194.5 -178t-101 -238.5t-29.5 -253q0 -137 38.5 -243.5t110.5 -179.5t175.5 -111t232.5 -38 q72 0 139.5 12.5t114.5 30.5l20 195h90l-20 -268q-37 -12 -86 -23.5t-99.5 -18.5t-96.5 -12.5t-77 -5.5q-188 0 -314 58.5t-202 154t-108.5 216t-32.5 247.5z" />
<glyph unicode="D" horiz-adv-x="1478" d="M66 0l8 90h139l111 1253h-170l8 91h536q115 0 194 -11.5t133 -28t89 -39t62 -42.5q41 -35 78.5 -79t65.5 -104.5t44 -138.5t16 -176q0 -53 -8 -116.5t-26.5 -131t-48 -135t-72.5 -131.5q-43 -63 -102.5 -117.5t-135.5 -95.5t-171 -64.5t-210 -23.5h-540zM319 90h291 q109 0 193 21.5t149.5 61.5t114.5 95.5t86 120.5q51 92 82 198.5t31 241.5q0 96 -27 188.5t-76 156.5q-35 43 -72.5 74.5t-87 53t-112 31.5t-146.5 10h-315z" />
<glyph unicode="E" d="M66 0l8 90h139l111 1253h-170l8 91h889l-25 -291h-90l8 200h-514l-49 -555h526l-6 -90h-528l-54 -608h576l29 201h90l-27 -291h-921z" />
<glyph unicode="F" horiz-adv-x="1062" d="M66 0l8 90h139l111 1253h-170l8 91h882l-24 -299h-90l8 208h-508l-51 -585h504l-9 -90h-503l-52 -578h185l-8 -90h-430z" />
<glyph unicode="G" horiz-adv-x="1441" d="M125 631q0 180 50 332.5t146.5 263t234.5 173t314 62.5q113 0 207 -17.5t166 -41.5l-16 -266h-90v194q-51 20 -122 30.5t-143 10.5q-184 0 -307 -69.5t-194.5 -178t-101 -238.5t-29.5 -253q0 -133 38.5 -238.5t110.5 -179.5t175.5 -114t232.5 -40q33 0 69.5 4.5 t73.5 11.5t69.5 16t57.5 20l37 381h-178l8 90h418l-9 -90h-141l-37 -451q-98 -31 -199.5 -51.5t-187.5 -20.5q-186 0 -311 58.5t-201 151.5t-108.5 211t-32.5 239z" />
<glyph unicode="H" horiz-adv-x="1517" d="M66 0l8 90h139l111 1253h-170l8 91h416l-9 -91h-139l-51 -585h768l51 585h-170l8 91h416l-8 -91h-139l-111 -1253h170l-8 -90h-416l8 90h139l52 578h-768l-52 -578h170l-8 -90h-415z" />
<glyph unicode="I" horiz-adv-x="643" d="M66 0l8 90h139l111 1253h-170l8 91h416l-9 -91h-139l-111 -1253h170l-8 -90h-415z" />
<glyph unicode="J" horiz-adv-x="606" d="M-225 -274q133 68 219 140.5t138 165.5t79 215t41 288l72 808h-170l8 91h416l-9 -91h-139l-72 -804q-12 -139 -36.5 -266.5t-83 -240t-161 -209.5t-270.5 -175z" />
<glyph unicode="K" horiz-adv-x="1290" d="M66 0l8 90h139l111 1253h-170l8 91h416l-9 -91h-139l-51 -581l647 581h-172l8 91h420l-8 -91h-123l-662 -593l607 -660h143l-8 -90h-422l8 90h144l-586 637l-56 -637h170l-8 -90h-415z" />
<glyph unicode="L" horiz-adv-x="1024" d="M66 0l8 90h139l111 1253h-170l8 91h416l-9 -91h-139l-111 -1253h512l29 205h90l-32 -295h-852z" />
<glyph unicode="M" horiz-adv-x="1781" d="M49 0l8 90h146l127 1253h-185l9 91h313l334 -1151q14 -47 25.5 -92.5t19.5 -92.5h4q14 47 31.5 93.5t38.5 91.5l526 1151h287l-9 -91h-145l-86 -1253h170l-8 -90h-414l8 90h146l82 1200h-4q-12 -35 -40 -98.5t-59 -128.5l-493 -1063h-99l-317 1063q-18 59 -29.5 106.5 t-17.5 77.5h-4l-113 -1157h170l-8 -90h-414z" />
<glyph unicode="N" horiz-adv-x="1554" d="M49 0l8 90h146l104 1253h-164l9 91h245l703 -1172q14 -23 26.5 -47.5t20.5 -38.5h4l102 1167h-182l8 91h426l-8 -91h-145l-117 -1343h-98l-703 1174q-12 23 -21.5 41t-13.5 30h-4l-94 -1155h182l-8 -90h-426z" />
<glyph unicode="O" horiz-adv-x="1478" d="M125 618q0 201 51 358t142.5 265.5t216 164.5t272.5 56q135 0 236.5 -46t171 -129t104.5 -200.5t35 -259.5q0 -158 -37 -311.5t-117 -274t-207 -195.5t-309 -75q-147 0 -252.5 51.5t-173.5 139.5t-100.5 205.5t-32.5 250.5zM240 618q0 -102 19.5 -199t72.5 -175 q53 -80 143 -131.5t215 -51.5q61 0 120.5 16.5t115 47.5t101.5 74t79 96q37 61 62.5 119.5t41 123t22.5 138.5t7 162q0 111 -25.5 209t-79 169.5t-136.5 113.5t-197 42q-111 0 -195 -32.5t-146.5 -90t-104.5 -132.5t-67.5 -159t-36.5 -171t-11 -169z" />
<glyph unicode="P" horiz-adv-x="1099" d="M66 0l8 90h139l111 1253h-170l8 91h413q80 0 146.5 -9.5t128.5 -38.5q78 -35 133 -111.5t55 -209.5q0 -102 -31.5 -187t-96 -146.5t-165 -96.5t-237.5 -35q-31 0 -76 2t-67 6l-46 -518h187l-8 -90h-432zM373 690q27 -4 64.5 -6t70.5 -2q125 0 207 35t130 88t67.5 119.5 t19.5 128.5q0 92 -31 149.5t-80 88t-109.5 41.5t-121.5 11h-160z" />
<glyph unicode="Q" horiz-adv-x="1478" d="M125 618q0 201 51 358t142.5 265.5t216 164.5t272.5 56q135 0 236.5 -46t171 -129t104.5 -200.5t35 -259.5q0 -152 -31 -289t-91.5 -246.5t-151.5 -187t-210 -108.5v-4q33 -4 82 -21.5t107 -52.5l170 -100q88 -53 140 -77t93 -24t71 11.5t54 21.5l-8 -88 q-31 -14 -61.5 -24.5t-65.5 -10.5q-51 0 -112.5 29t-157.5 82l-215 123q-27 14 -61 33.5t-70.5 37t-75.5 28.5t-78 11q-145 0 -250.5 51.5t-173.5 139.5t-100.5 205.5t-32.5 250.5zM240 618q0 -102 19.5 -199t72.5 -175q53 -80 143 -131.5t215 -51.5q61 0 120.5 16.5 t115 47.5t101.5 74t79 96q37 61 62.5 119.5t41 123t22.5 138.5t7 162q0 111 -25.5 209t-79 169.5t-136.5 113.5t-197 42q-111 0 -195 -32.5t-146.5 -90t-104.5 -132.5t-67.5 -159t-36.5 -171t-11 -169z" />
<glyph unicode="R" horiz-adv-x="1251" d="M66 0l8 90h139l111 1253h-170l8 91h426q98 0 163.5 -10.5t116.5 -34.5q92 -43 131 -121t39 -183q0 -90 -31.5 -165.5t-87 -129t-131 -83t-163.5 -29.5v-4q39 -4 68.5 -13.5t57 -33t54 -63.5t57.5 -103l78 -160q37 -76 60.5 -118t42 -62.5t36 -25.5t39.5 -5h86l-8 -90 h-139q-31 0 -54.5 8t-46 33t-48 69t-58.5 115l-107 224q-29 61 -54 100t-55 62.5t-69 31.5t-94 8h-102l-50 -561h170l-8 -90h-415zM377 739q23 -2 64.5 -4t97.5 -2q96 0 169.5 26.5t123 74t75 112t25.5 139.5q0 98 -35 150.5t-89 76t-119.5 27.5t-125.5 4h-133z" />
<glyph unicode="S" horiz-adv-x="1099" d="M70 41l22 276h82l-6 -204q51 -18 131 -35t158 -17q117 0 196.5 30t130 77t72 107.5t21.5 119.5q0 63 -25 106.5t-63.5 74t-87 50t-95.5 38.5l-160 59q-63 23 -119.5 51.5t-99.5 66.5t-68.5 90t-25.5 124q0 94 34 168.5t98.5 128t154.5 82t205 28.5q63 0 158.5 -14 t181.5 -43l-17 -256h-82v184q-53 18 -116.5 26.5t-126.5 12.5q-102 0 -174 -25.5t-117 -66.5t-64.5 -95.5t-19.5 -111.5t18.5 -96t49 -65.5t69.5 -45t80 -32.5l237 -86q61 -23 113.5 -51.5t91.5 -69.5t61.5 -96.5t22.5 -129.5t-28.5 -150.5t-92 -138t-162 -101.5t-239.5 -40 q-131 0 -224 22.5t-175 47.5z" />
<glyph unicode="T" horiz-adv-x="1214" d="M47 1141l33 293h1153l-25 -293h-90l8 202h-426l-110 -1253h174l-8 -90h-420l8 90h139l111 1253h-426l-31 -202h-90z" />
<glyph unicode="U" horiz-adv-x="1478" d="M125 1343l8 91h414l-8 -91h-138l-61 -663q-10 -98 -15.5 -174t-5.5 -139q0 -305 359 -306q156 0 245 45.5t133 113t57 146t20 146.5l71 831h-182l8 91h414l-8 -91h-142l-71 -843q-12 -135 -38 -223.5t-79 -145.5q-82 -88 -190.5 -124t-243.5 -36q-131 0 -219 31 t-141.5 84t-76 126t-22.5 159q0 57 7 133t13 147l62 692h-170z" />
<glyph unicode="V" horiz-adv-x="1402" d="M63 1343l9 91h413l-8 -91h-139l280 -1099q10 -35 16.5 -72t12.5 -74h4q10 37 21.5 74t27.5 72l465 1099h-168l9 91h413l-8 -91h-139l-588 -1343h-106l-347 1343h-168z" />
<glyph unicode="W" horiz-adv-x="2086" d="M72 1343l8 91h414l-9 -91h-139l279 -1126q8 -33 13 -63.5t11 -63.5h4q10 33 19.5 63.5t23.5 63.5l361 856l-68 270h-168l8 91h414l-8 -91h-139l274 -1091q10 -41 17.5 -81t13.5 -81h4q10 41 22.5 81t26.5 81l397 1091h-174l9 91h417l-8 -91h-145l-496 -1343h-127 l-227 922h-4l-396 -922h-127l-333 1343h-168z" />
<glyph unicode="X" horiz-adv-x="1441" d="M41 0l8 90h137l486 655l-330 598h-170l8 91h414l-8 -91h-137q20 -25 34 -49l254 -460l340 460q10 14 20.5 26.5t22.5 22.5h-182l8 91h420l-8 -91h-137l-439 -593l363 -660h168l-8 -90h-414l8 90h139q-10 10 -17 23.5t-15 25.5l-287 520l-383 -520q-10 -14 -19.5 -26.5 t-21.5 -22.5h180l-8 -90h-426z" />
<glyph unicode="Y" horiz-adv-x="1366" d="M45 1343l8 91h414l-8 -91h-133q10 -10 17 -23t15 -26l330 -598l426 598q10 14 19.5 26.5t21.5 22.5h-174l8 91h420l-8 -91h-146l-526 -731l-45 -522h172l-8 -90h-420l8 90h142l45 518l-410 735h-168z" />
<glyph unicode="Z" horiz-adv-x="1251" d="M57 0l6 74l938 1206q27 35 62 63l-4 5q-10 -4 -24.5 -4.5t-28.5 -0.5h-701l-26 -200h-91l23 291h983l-6 -74l-946 -1221q-10 -14 -21.5 -25.5t-25.5 -27.5q23 2 42 3t42 1h725l32 205h90l-30 -295h-1039z" />
<glyph unicode="[" horiz-adv-x="606" d="M129 -514l182 2089h324l-8 -90h-224l-167 -1909h202l-8 -90h-301z" />
<glyph unicode="\" horiz-adv-x="796" d="M57 1550l82 41l594 -1708l-82 -41z" />
<glyph unicode="]" horiz-adv-x="606" d="M-61 -514l8 90h223l168 1909h-203l8 90h301l-182 -2089h-323z" />
<glyph unicode="^" horiz-adv-x="1228" d="M190 686l375 748h99l374 -748h-114l-310 612l-309 -612h-115z" />
<glyph unicode="_" horiz-adv-x="1024" d="M0 -154h1024v-102h-1024v102z" />
<glyph unicode="`" horiz-adv-x="569" d="M104 1468l82 58l254 -246l-69 -59z" />
<glyph unicode="a" horiz-adv-x="1099" d="M106 360q0 133 30 261.5t94.5 228.5t168 161.5t250.5 61.5q61 0 114.5 -13t84.5 -26h59q-10 -53 -20 -140t-21 -198l-49 -606h168l-8 -90h-266l51 467q4 29 10 57.5t12 57.5h-4q-8 -29 -14 -57.5t-16 -57.5q-25 -76 -63 -162t-89 -157.5t-117.5 -119.5t-146.5 -48 q-70 0 -114 34.5t-69.5 90t-35 123t-9.5 132.5zM213 362q0 -145 35 -214.5t100 -69.5q51 0 113.5 46t123 144.5t114 252t87.5 368.5l11 63q-31 12 -75 25.5t-97 13.5q-104 0 -183.5 -53t-126.5 -131q-51 -88 -76.5 -193.5t-25.5 -251.5z" />
<glyph unicode="b" horiz-adv-x="1099" d="M100 1485l9 90h299l-84 -887q-4 -47 -13.5 -95t-17.5 -95h4l31 123q10 45 46 120.5t91 149.5t129 128t162 54q68 0 112.5 -32.5t72.5 -86t40 -120t12 -132.5q0 -53 -8 -126.5t-30.5 -153.5t-61.5 -159t-99.5 -142.5t-146.5 -102t-201 -38.5q-72 0 -146.5 17t-133.5 46 l131 1442h-197zM279 92q27 -8 74.5 -19.5t101.5 -11.5q123 0 205.5 64.5t133 160t72 207t21.5 205.5q0 57 -8.5 108.5t-24.5 90.5t-45 62.5t-68 23.5q-59 0 -128.5 -56.5t-135 -163t-118 -262t-74.5 -354.5z" />
<glyph unicode="c" horiz-adv-x="833" d="M63 449q0 123 29 235.5t90.5 198.5t155.5 138t225 52q72 0 128.5 -12t90.5 -23l-24 -247h-90l8 178q-16 6 -45 10t-60 4q-109 0 -185.5 -45t-124.5 -119t-69.5 -169t-21.5 -193q0 -72 12.5 -140.5t44 -122t86 -85t138.5 -31.5q78 0 148.5 26.5t125.5 59.5l-8 -107 q-18 -12 -50 -26.5t-70 -25.5t-79 -18t-80 -7q-184 0 -279.5 126.5t-95.5 342.5z" />
<glyph unicode="d" horiz-adv-x="1099" d="M106 350q0 154 40 298.5t126 252.5q72 90 164 131t213 41q47 0 89 -8t65 -18l41 438h-199l8 90h297l-131 -1485h168l-8 -90h-266l45 420q4 43 13 86t17 86h-4q-8 -29 -13 -57.5t-15 -57.5q-27 -74 -63 -161t-86 -161.5t-117.5 -124.5t-155.5 -50q-104 0 -166 100t-62 270 zM213 385q0 -160 35 -233.5t106 -73.5q55 0 107.5 40t97.5 104.5t82 146.5t65.5 163.5t48 156.5t25.5 128l17 131q-25 12 -64 23.5t-104 11.5q-84 0 -147.5 -29.5t-109.5 -78t-77 -111t-49.5 -129t-25.5 -132t-7 -118.5z" />
<glyph unicode="e" horiz-adv-x="909" d="M92 420q0 113 27.5 229.5t87 210.5t155 153.5t228.5 59.5q121 0 186.5 -60.5t65.5 -164.5q0 -109 -65.5 -185.5t-162 -127t-209 -79t-206.5 -38.5q0 -41 4 -100.5t29.5 -115t80 -94t154.5 -38.5q80 0 155.5 30.5t139.5 65.5l-8 -105q-43 -25 -120 -53t-181 -28t-174 32.5 t-112 91t-58.5 139.5t-16.5 177zM199 508q111 8 208 35.5t169.5 70.5t115.5 99.5t43 126.5q0 20 -7 45.5t-25.5 47t-50 36t-83.5 14.5q-80 0 -145.5 -37t-112.5 -101.5t-75.5 -150.5t-36.5 -186z" />
<glyph unicode="f" horiz-adv-x="681" d="M-279 -504l9 90q41 -16 83 -25.5t81 -9.5q88 0 145 37t94 119t57.5 211t32.5 311l51 734h-163l8 90h162q8 135 35.5 236.5t82 168t140.5 100t213 33.5q16 0 41.5 -3t51 -7t46 -8t27.5 -8l-9 -90q-35 12 -81 19t-76 7q-117 0 -185.5 -32.5t-106.5 -91t-52.5 -141.5 t-20.5 -183h303l-8 -90h-301l-55 -734q-12 -168 -31 -308t-63 -242.5t-121.5 -160t-208.5 -57.5q-45 0 -93.5 11.5t-87.5 23.5z" />
<glyph unicode="g" horiz-adv-x="1099" d="M80 -442l8 108q16 -10 43 -25.5t63.5 -29.5t80.5 -24.5t98 -10.5q125 0 197.5 46t110.5 123t51 176t24 208l16 170q6 74 19.5 148.5t31.5 154.5h-4q-10 -27 -17 -52.5t-18 -49.5q-18 -43 -39.5 -97.5t-50 -112t-64.5 -111.5t-79 -97t-94 -68.5t-113 -25.5 q-74 0 -120 36.5t-71.5 93t-36 122t-10.5 122.5q0 51 8.5 124t32 152t62.5 156.5t100.5 140t147.5 100.5t202 38q68 0 123.5 -12t89.5 -27h70l-12 -81t-17 -144q-4 -35 -9 -107.5t-12 -162.5t-14.5 -188.5t-14.5 -185.5t-14 -154.5t-11 -94.5q-10 -59 -30 -134t-68 -140.5 t-135 -110.5t-230 -45q-92 0 -169 24.5t-126 47.5zM213 360q0 -141 40 -211.5t105 -70.5q47 0 95.5 33.5t94.5 91t88 132.5t75.5 156.5t58.5 165.5t37 160l20 137q-35 16 -76.5 26.5t-86.5 10.5q-125 0 -211 -56t-139.5 -146.5t-77 -203t-23.5 -225.5z" />
<glyph unicode="h" d="M96 1485l8 90h299l-86 -881q-8 -72 -17 -128t-19 -117h4q6 23 11 44t11 44q18 66 56 157.5t96.5 175.5t137.5 143.5t177 59.5q55 0 90 -21.5t53.5 -56t25.5 -80t7 -90.5q0 -53 -8 -146t-20.5 -198.5t-25.5 -210t-24 -180.5h170l-8 -90h-276q10 74 26.5 183.5t31.5 227 t25.5 227.5t10.5 181q0 29 -4 56.5t-15.5 50t-31 36t-51.5 13.5q-43 0 -112 -41t-142.5 -149.5t-140 -298t-103.5 -486.5h-98q14 104 27.5 219t23.5 236l90 1030h-199z" />
<glyph unicode="i" horiz-adv-x="569" d="M100 963l9 90h272l-86 -963h174l-8 -90h-273l86 963h-174zM264 1485q0 53 30 79.5t66 26.5q39 0 61.5 -25.5t22.5 -66.5q0 -45 -26.5 -72.5t-71.5 -27.5q-39 0 -60.5 25.5t-21.5 60.5z" />
<glyph unicode="j" horiz-adv-x="569" d="M-223 -457q109 37 182.5 84t121.5 120t75.5 180.5t42.5 267.5l69 768h-172l6 90h279l-76 -844q-16 -184 -51 -310t-94.5 -210t-147.5 -136.5t-211 -91.5zM264 1485q0 53 30 79.5t66 26.5q39 0 61.5 -25.5t22.5 -66.5q0 -45 -26.5 -72.5t-71.5 -27.5q-39 0 -60.5 25.5 t-21.5 60.5z" />
<glyph unicode="k" horiz-adv-x="1062" d="M96 1485l8 90h299l-51 -586q-8 -90 -24.5 -178t-32.5 -178h4q8 27 16.5 53.5t18.5 50.5q23 51 55.5 110.5t79.5 110t110.5 83t145.5 32.5q88 0 148.5 -54t60.5 -151q0 -61 -36 -121.5t-100.5 -112.5t-151.5 -93t-191 -62l331 -389h162l-8 -90h-217l-412 487 q-6 -23 -14 -84t-17.5 -134.5t-16.5 -146.5t-11 -122h-98q14 104 27.5 219t23.5 236l90 1030h-199zM317 518q92 14 184.5 46t164 77t116.5 99.5t45 113.5q0 57 -30.5 89t-83.5 32q-72 0 -133.5 -37t-111.5 -99.5t-88 -145.5t-63 -175z" />
<glyph unicode="l" horiz-adv-x="530" d="M96 1485l8 90h287l-131 -1485h174l-8 -90h-272l131 1485h-189z" />
<glyph unicode="m" horiz-adv-x="1744" d="M76 963l8 90h276l-26 -299q-6 -72 -15.5 -143.5t-23.5 -143.5h4q4 16 7 29.5t7 29.5q6 25 22.5 76t44.5 111.5t64.5 124t86 116t109.5 86t132 33.5q57 0 92 -21.5t53.5 -57.5t24.5 -82t6 -95q0 -47 -8 -112.5t-22 -139.5h4q8 33 26.5 84t46 107.5t64.5 113t84 101.5 t102 73.5t121 28.5t101.5 -28.5t53 -69.5t20.5 -87t3 -81q0 -61 -9 -152.5t-22.5 -192t-28 -198.5t-24.5 -174h166l-8 -90h-272q8 70 25.5 174.5t33.5 218t28.5 222t12.5 184.5q0 27 -2 57.5t-12.5 57t-32 44t-60.5 17.5q-49 0 -105 -41t-109.5 -111.5t-99.5 -164 t-77 -195.5q-14 -49 -27.5 -107.5t-25.5 -120t-21.5 -123t-17.5 -112.5h-98q14 98 30.5 204.5t29.5 212t22.5 206t9.5 186.5q0 25 -3 53.5t-12.5 54t-30 42t-52.5 16.5q-59 0 -133 -56.5t-143.5 -175t-126 -303t-81.5 -440.5h-98q6 33 12 98.5t12.5 133t11.5 125t7 75.5 l39 531h-176z" />
<glyph unicode="n" d="M63 963l9 90h286l-41 -359q-8 -72 -17 -128t-19 -117h4q6 23 11 44t11 44q18 66 56 157.5t96.5 175.5t137.5 143.5t177 59.5q55 0 90 -21.5t53.5 -56t25.5 -80t7 -90.5q0 -53 -8 -146t-20.5 -198.5t-25.5 -210t-24 -180.5h170l-8 -90h-276q10 74 26.5 183.5t31.5 227 t25.5 227.5t10.5 181q0 29 -4 56.5t-15.5 50t-31 36t-51.5 13.5q-43 0 -112 -41t-142.5 -149.5t-140 -298t-103.5 -486.5h-98q14 104 27.5 219t23.5 236l45 508h-187z" />
<glyph unicode="o" horiz-adv-x="985" d="M63 451q0 113 27 223t83 199.5t147.5 144.5t220.5 55q76 0 140 -27.5t111.5 -86t74 -146.5t26.5 -211q0 -131 -31 -244.5t-89 -197.5t-145 -132t-200 -48q-72 0 -137.5 24.5t-116.5 79.5t-81 145.5t-30 221.5zM170 444q0 -74 14.5 -141t45 -119.5t80.5 -83t122 -30.5 q102 0 170 51t109 129t58 170t17 174q0 102 -20.5 176t-55 121t-83.5 69.5t-105 22.5q-96 0 -163.5 -50t-109.5 -128t-60.5 -173.5t-18.5 -187.5z" />
<glyph unicode="p" horiz-adv-x="1099" d="M-23 -514l9 90h141l123 1387h-172l8 90h272l-20 -230q-8 -94 -20.5 -173t-28.5 -165h4q8 29 13 57.5t16 57.5q29 92 71.5 177t98 150.5t122 105.5t146.5 40q74 0 120 -39t70.5 -97t33.5 -126t9 -127q0 -121 -31.5 -245t-97 -224t-164 -163.5t-231.5 -63.5q-72 0 -120 8 t-81 18l-43 -438h176l-8 -90h-416zM274 106q35 -10 81 -23t102 -13q123 0 205.5 59t132 152.5t71 207t21.5 222.5q0 47 -6.5 95t-22.5 88t-46 64.5t-77 24.5q-68 0 -139.5 -68.5t-133 -175t-107.5 -234.5t-60 -247q-4 -37 -10 -76t-11 -76z" />
<glyph unicode="q" horiz-adv-x="1099" d="M106 362q0 51 8.5 124t32 152t62.5 156.5t100.5 140t147.5 100.5t202 38q68 0 123.5 -12t89.5 -27h70q-10 -47 -17 -121.5t-14 -148.5l-104 -1188h174l-8 -90h-414l8 90h142l57 651q10 106 26.5 204.5t30.5 170.5h-4q-10 -27 -17 -52.5t-18 -49.5q-18 -43 -39.5 -97.5 t-50 -112t-64.5 -111.5t-79 -97t-94 -68.5t-113 -25.5q-74 0 -120 36.5t-71.5 93t-36 122t-10.5 122.5zM213 360q0 -141 40 -211.5t105 -70.5q47 0 95.5 33.5t94.5 91t88 132.5t75.5 156.5t58.5 165.5t37 160l20 137q-35 16 -76.5 26.5t-86.5 10.5q-125 0 -211 -56 t-139.5 -146.5t-77 -203t-23.5 -225.5z" />
<glyph unicode="r" horiz-adv-x="796" d="M100 963l9 90h268l-29 -283q-6 -57 -15 -114.5t-20 -114.5h4q8 27 12.5 53.5t12.5 52.5q18 59 43 133t67 139.5t107.5 109.5t163.5 44q43 0 78 -10l-17 -96q-14 4 -30.5 6t-38.5 2q-86 0 -149.5 -56.5t-109.5 -146.5t-76 -200.5t-48.5 -219t-28.5 -203t-16 -149.5h-99 q6 63 20.5 203.5t31.5 347.5l32 412h-172z" />
<glyph unicode="s" horiz-adv-x="909" d="M76 41v254h98v-180q8 -6 28.5 -14.5t49.5 -14.5t61.5 -11t67.5 -5q135 0 208 54t73 150q0 70 -44.5 113t-162.5 90q-90 35 -153.5 62.5t-103.5 60.5t-59.5 74t-19.5 104q0 141 102.5 218t280.5 77q66 0 137.5 -14.5t128.5 -32.5v-244h-98v179q-35 12 -77 21t-101 9 q-49 0 -97.5 -10t-85.5 -34.5t-60.5 -63.5t-23.5 -97q0 -72 53.5 -109.5t157.5 -78.5q70 -27 130.5 -53.5t105.5 -60t70.5 -80t25.5 -113.5q0 -61 -22.5 -117.5t-69.5 -99.5t-120 -68.5t-173 -25.5q-115 0 -194.5 22.5t-112.5 38.5z" />
<glyph unicode="t" horiz-adv-x="720" d="M86 963l8 90h180l25 278h98l-24 -278h315l-8 -90h-315l-43 -492q-2 -18 -4.5 -51t-5.5 -68t-5 -66.5t-2 -47.5q0 -74 26.5 -121t104.5 -47q63 0 118.5 19.5t96.5 45.5l-6 -96q-39 -20 -97.5 -39.5t-131.5 -19.5q-68 0 -110 20t-63.5 54t-28.5 76t-7 85q0 27 2 58.5 t4 63.5t4 61.5t4 52.5l45 512h-180z" />
<glyph unicode="u" horiz-adv-x="1175" d="M106 963l9 90h276q-10 -74 -26.5 -183.5t-32 -227.5t-25.5 -227.5t-10 -181.5q0 -29 4 -56t15.5 -50t31 -36t51.5 -13q43 0 112 41t142.5 149.5t140 298t103.5 486.5h98q-14 -104 -27.5 -219t-23.5 -236l-45 -508h186l-8 -90h-286l40 350q8 61 18.5 121.5t20.5 122.5h-4 q-4 -23 -14 -58.5t-21 -70.5q-16 -49 -53 -132t-95 -161t-136 -135t-172 -57q-55 0 -90 21.5t-53.5 56t-25.5 78.5t-7 91q0 51 8 144.5t20.5 200t25.5 211t23 180.5h-170z" />
<glyph unicode="v" d="M63 963l9 90h278q-4 -94 -15 -232.5t-11 -283.5q0 -125 7 -212t25.5 -142.5t48 -80t72.5 -24.5q51 0 108.5 37t114.5 127t104.5 237.5t72.5 372.5l12 111h-180l8 90h278l-12 -140q-12 -147 -42 -293.5t-85 -289.5q-33 -84 -80 -149.5t-99 -110.5t-106.5 -67.5 t-103.5 -22.5q-90 0 -139 48t-72 128t-27 182t-4 211q0 90 5.5 196.5t11.5 217.5h-179z" />
<glyph unicode="w" horiz-adv-x="1669" d="M63 963l9 90h280q-2 -10 -9 -80t-14 -162t-13.5 -190.5t-6.5 -167.5q0 -66 2 -132.5t17.5 -121t47.5 -88t91 -33.5q51 0 98 36t87 93t69 126.5t43 135.5q12 53 22.5 133t19.5 164t16 161t12 126h98q-10 -141 -22.5 -283.5t-12.5 -288.5q0 -84 6 -157.5t23.5 -128 t50.5 -86t86 -31.5q78 0 135 55t98 142t65.5 191.5t39 203t19.5 178.5t5 115h-172l7 90h272q-4 -74 -11.5 -181.5t-25.5 -227.5t-50 -238.5t-85 -213t-130 -153.5t-186 -59q-63 0 -107 27.5t-70.5 73.5t-39 107.5t-12.5 128.5v82h-4q-18 -88 -53 -164.5t-82 -133t-105.5 -89 t-128.5 -32.5q-90 0 -138 47t-70.5 116.5t-26.5 148.5t-4 142q0 41 3 104.5t8 135t10 147.5t12 142h-173z" />
<glyph unicode="x" horiz-adv-x="1099" d="M63 0l9 82l424 465l-234 416h-160l9 90h225l235 -432l308 342h-179l9 90h295l-9 -90l-381 -420l246 -453h168l-8 -90h-227l-250 465l-344 -375h163l-8 -90h-291z" />
<glyph unicode="y" horiz-adv-x="1062" d="M-10 -524l14 90q25 -8 50.5 -11.5t39.5 -3.5q72 0 122 25t92 76t79 127t82 178l-270 1006h-154l8 90h238l209 -828q10 -37 16 -72.5t12 -72.5h4q10 35 22.5 67.5t25.5 67.5l282 748h-178l8 90h287l-8 -66q-43 -139 -135.5 -369.5t-221.5 -562.5q-66 -168 -122 -281.5 t-116.5 -183t-129 -99.5t-156.5 -30q-61 0 -100 15z" />
<glyph unicode="z" horiz-adv-x="985" d="M63 0l9 86l630 811q16 23 31 38t29 28h-551l-23 -164h-82l23 254h766l-8 -68l-631 -819q-20 -27 -34.5 -43.5t-31.5 -32.5h582l25 164h82l-25 -254h-791z" />
<glyph unicode="{" horiz-adv-x="606" d="M90 485l8 90q33 2 59.5 17.5t46 52.5t33 96.5t21.5 147.5l35 407q10 127 61.5 203t165.5 76h105l-9 -90h-84q-51 0 -85.5 -33t-45.5 -125l-39 -459q-14 -166 -58 -243.5t-111 -92.5v-4q47 -16 81.5 -65t34.5 -154q0 -35 -7 -125t-15 -192q-10 -102 -17.5 -190.5 t-7.5 -120.5q0 -59 27.5 -82t75.5 -23h86l-9 -90h-104q-102 0 -142 58.5t-40 158.5q0 78 7 152.5t17 150.5q8 76 15.5 151.5t7.5 151.5q0 98 -31 135t-82 41z" />
<glyph unicode="|" horiz-adv-x="454" d="M178 -512v2048h98v-2048h-98z" />
<glyph unicode="}" horiz-adv-x="606" d="M-80 -514l8 90h84q51 0 86 33t45 125l39 459q14 166 58.5 243.5t111.5 91.5v4q-47 16 -81.5 65.5t-34.5 154.5q0 35 7 125t15 192q10 102 17.5 190.5t7.5 120.5q0 59 -28 82t-75 23h-86l8 90h105q102 0 142 -58.5t40 -158.5q0 -78 -7 -153t-17 -150q-8 -76 -15.5 -152 t-7.5 -151q0 -98 30.5 -135t82.5 -42l-9 -90q-33 -2 -59.5 -17t-45.5 -52t-32.5 -96.5t-21.5 -147.5l-35 -408q-10 -127 -61.5 -202.5t-165.5 -75.5h-105z" />
<glyph unicode="~" horiz-adv-x="1228" d="M141 461q16 33 40 64.5t54.5 56t70.5 40t91 15.5q57 0 116.5 -21.5t119.5 -48.5q59 -27 110.5 -48t90.5 -21q31 0 56 13t46.5 32.5t40 44t37.5 49.5l73 -62q-23 -33 -48 -64.5t-55 -56t-67.5 -40t-85.5 -15.5q-63 0 -112 21.5t-101 48.5q-49 27 -103 48.5t-128 21.5 q-35 0 -60.5 -13.5t-47 -33t-37 -44t-27.5 -49.5z" />
<glyph unicode="&#xa1;" horiz-adv-x="606" d="M158 -498l106 1092h90l-82 -1092h-114zM258 995q0 43 27.5 69t60.5 26q41 0 64.5 -24.5t23.5 -59.5q0 -43 -23.5 -75t-66.5 -32q-41 0 -63.5 28.5t-22.5 67.5z" />
<glyph unicode="&#xa2;" d="M184 442q0 170 42 288t105.5 192.5t139.5 109.5t145 41l19 219h82l-19 -219q74 0 148 -12t123 -29l-25 -241h-90l8 167q-33 10 -78 17.5t-94 7.5l-80 -913q37 0 77 7t79 19.5t73.5 29.5t63.5 36l-14 -111q-70 -39 -142.5 -55t-144.5 -16l-22 -248h-82l22 248 q-162 16 -249 139t-87 323zM291 442q0 -68 13 -129t42 -110t74 -82t108 -45l80 907q-80 -10 -140 -59.5t-99 -123t-58.5 -166.5t-19.5 -192z" />
<glyph unicode="&#xa3;" d="M27 0l8 90h133q18 25 39.5 66t38 108.5t28 166.5t11.5 243v33h-207l8 90h199v86q0 127 24.5 232.5t82 180t148.5 116.5t226 42q76 0 158 -15.5t153 -39.5l-24 -260h-90l8 196q-76 29 -203 29q-106 0 -178 -30.5t-116 -91t-63.5 -148.5t-19.5 -203v-94h318l-9 -90h-309 v-58q0 -86 -7 -173t-22.5 -162.5t-39 -134t-56.5 -85.5v-4h596l33 201h90l-31 -291h-927z" />
<glyph unicode="&#xa4;" d="M61 287l109 114q-57 72 -83 152t-26 164t26 164t83 151l-109 115l78 78l109 -115q70 59 151.5 87t169.5 28t170 -28t152 -87l108 115l78 -78l-108 -115q57 -72 82.5 -151.5t25.5 -163.5t-25.5 -164t-82.5 -152l108 -114l-78 -78l-108 115q-70 -59 -152 -87t-170 -28 t-170 27.5t-151 87.5l-109 -115zM160 717q0 -84 32.5 -159t88 -130t130 -88t158.5 -33t159 33t130 88t88 130t33 159t-33 158.5t-88 130t-130 88t-159 32.5t-158.5 -32.5t-130 -88t-88 -130t-32.5 -158.5z" />
<glyph unicode="&#xa5;" d="M61 1343l9 91h344l-8 -91h-109l289 -643l401 643h-145l8 91h350l-8 -91h-123l-399 -651h248l-9 -82h-286l-17 -161h287l-8 -82h-287l-27 -277h144l-8 -90h-351l9 90h116l27 277h-287l8 82h287l16 161h-286l8 82h238l-293 651h-138z" />
<glyph unicode="&#xa6;" horiz-adv-x="454" d="M178 358h98v-716h-98v716zM178 666v716h98v-716h-98z" />
<glyph unicode="&#xa7;" d="M94 -362l25 249h90l-8 -174q41 -20 117.5 -33.5t142.5 -13.5q55 0 112.5 12.5t104.5 40t76.5 74.5t29.5 119q0 78 -47 124t-119 87l-215 123q-47 27 -90 58.5t-74.5 69.5t-50 81t-18.5 92q0 63 21.5 116.5t57.5 92.5t82 63.5t93 34.5v4q-29 12 -62.5 34.5t-61.5 56.5 t-46 78t-18 101q0 152 107.5 243t309.5 91q92 0 176 -13t140 -30l-25 -250h-90l8 181q-29 10 -84 20t-121 10q-55 0 -111.5 -12t-101.5 -38.5t-73.5 -72t-28.5 -108.5q0 -51 14.5 -88t42 -64.5t64.5 -52t84 -51.5l203 -117q39 -23 73.5 -48.5t62 -59t44 -75.5t16.5 -97 q0 -61 -22.5 -113.5t-58.5 -92.5t-81 -64.5t-90 -32.5v-5q27 -14 60.5 -36.5t64.5 -54t51.5 -76t20.5 -99.5q0 -80 -33 -144.5t-90 -108.5t-138 -68.5t-175 -24.5q-131 0 -216 22.5t-145 39.5zM276 561q0 -61 38 -112.5t93.5 -92.5t117 -72.5t106.5 -52.5q31 10 67.5 31 t68.5 51.5t52.5 70.5t20.5 93q0 27 -5.5 53.5t-22.5 55t-51 59.5t-89 62l-193 108q-39 -18 -75.5 -40.5t-64.5 -53.5t-45.5 -71t-17.5 -89z" />
<glyph unicode="&#xa8;" horiz-adv-x="569" d="M92 1368q0 29 18.5 61.5t71.5 32.5q33 0 51.5 -21.5t18.5 -54.5q0 -8 -4 -23t-13.5 -30.5t-24.5 -27t-40 -11.5q-37 0 -57.5 19.5t-20.5 54.5zM498 1368q0 29 18.5 61.5t71.5 32.5q33 0 51 -21.5t18 -54.5q0 -8 -4 -23t-13 -30.5t-24.5 -27t-40.5 -11.5q-37 0 -57 19.5 t-20 54.5z" />
<glyph unicode="&#xa9;" horiz-adv-x="1638" d="M74 717q0 154 58 290t159.5 237.5t238 159.5t289.5 58q154 0 290 -58t237.5 -159.5t160 -238t58.5 -289.5q0 -154 -58.5 -290t-160 -237.5t-237.5 -160t-290 -58.5t-290 58.5t-237.5 160t-159.5 237.5t-58 290zM172 717q0 -135 51 -253t138.5 -205t205 -138t252.5 -51 t253 51t205 138t138 205t51 253t-51 252.5t-138 205t-205 138.5t-253 51t-252.5 -51t-205 -138.5t-138.5 -205t-51 -252.5zM395 717q0 100 30 186t87 149.5t139 98.5t187 35q147 0 252.5 -80t128.5 -229h-107q-18 90 -89 150t-185 60q-84 0 -146.5 -28.5t-104.5 -78.5 t-63.5 -117.5t-21.5 -145.5q0 -72 22.5 -138.5t65.5 -118.5t105.5 -84t142.5 -32q117 0 187.5 63.5t86.5 155.5h107q-33 -154 -133.5 -235.5t-247.5 -81.5q-100 0 -182.5 36.5t-139.5 100t-89 149.5t-32 185z" />
<glyph unicode="&#xaa;" horiz-adv-x="714" d="M92 1028q0 74 19.5 149.5t62.5 137t110.5 100.5t166.5 39q51 0 82.5 -8t54.5 -12h67q-8 -35 -13 -87.5t-11 -117.5l-35 -348h96l-6 -66h-188l39 285h-5q-20 -47 -46.5 -99.5t-60.5 -97.5t-77 -74.5t-94 -29.5q-49 0 -81 21.5t-50.5 55t-24.5 74.5t-6 78zM190 1028 q0 -80 24 -118t65 -38q31 0 71.5 36t80.5 97.5t73 144.5t43 179l4 37q-16 8 -44 15.5t-52 7.5q-82 0 -133.5 -43t-81 -101.5t-40 -119t-10.5 -97.5z" />
<glyph unicode="&#xab;" horiz-adv-x="948" d="M104 510l9 74l311 280l65 -65l-282 -256l235 -277l-75 -65zM465 510l8 74l311 280l66 -65l-283 -256l236 -277l-76 -65z" />
<glyph unicode="&#xac;" horiz-adv-x="1228" d="M96 670v98h1037v-541h-99v443h-938z" />
<glyph unicode="&#xad;" horiz-adv-x="720" d="M133 483l8 99h426l-8 -99h-426z" />
<glyph unicode="&#xae;" horiz-adv-x="1638" d="M74 717q0 154 58 290t159.5 237.5t238 159.5t289.5 58q154 0 290 -58t237.5 -159.5t160 -238t58.5 -289.5q0 -154 -58.5 -290t-160 -237.5t-237.5 -160t-290 -58.5t-290 58.5t-237.5 160t-159.5 237.5t-58 290zM172 717q0 -135 51 -253t138.5 -205t205 -138t252.5 -51 t253 51t205 138t138 205t51 253t-51 252.5t-138 205t-205 138.5t-253 51t-252.5 -51t-205 -138.5t-138.5 -205t-51 -252.5zM535 268v899h346q154 0 223.5 -64.5t69.5 -184.5q0 -59 -18.5 -102.5t-49.5 -74t-72 -48t-86 -25.5l266 -400h-110l-266 400h-205v-400h-98zM633 758 h225q45 0 85 7t69.5 25.5t46 50t16.5 79.5q0 47 -18.5 77.5t-48 48t-68.5 24.5t-82 7h-225v-319z" />
<glyph unicode="&#xaf;" horiz-adv-x="569" d="M133 1323l8 90h459l-8 -90h-459z" />
<glyph unicode="&#xb0;" horiz-adv-x="819" d="M137 1161q0 61 22.5 114.5t62.5 93.5t93.5 62.5t114.5 22.5t114.5 -22.5t93.5 -62.5t62.5 -93t22.5 -115q0 -61 -22.5 -114.5t-62.5 -93.5t-93 -62.5t-115 -22.5q-61 0 -114.5 22.5t-93.5 62.5t-62.5 93.5t-22.5 114.5zM227 1161q0 -86 58.5 -144.5t144.5 -58.5 t144.5 58.5t58.5 144.5t-58.5 144.5t-144.5 58.5t-144.5 -58.5t-58.5 -144.5z" />
<glyph unicode="&#xb1;" horiz-adv-x="1228" d="M96 0v98h1037v-98h-1037zM96 561v98h469v377h99v-377h469v-98h-469v-377h-99v377h-469z" />
<glyph unicode="&#xb2;" horiz-adv-x="739" d="M57 582l6 75q86 80 173.5 160t157 155t112.5 141.5t43 115.5q0 66 -42 108.5t-108 42.5q-98 0 -141 -44t-68 -115h-90q8 39 29 82t57.5 78.5t91 58t132.5 22.5q63 0 108 -20.5t74 -52t42 -70.5t13 -74q0 -29 -7 -65.5t-36 -86t-85 -115t-154 -151.5l-185 -163h467l-6 -82 h-584z" />
<glyph unicode="&#xb3;" horiz-adv-x="739" d="M61 604l7 90q35 -25 89 -36t140 -11q121 0 183.5 51.5t62.5 130.5q0 57 -27 90t-70 48.5t-96 19.5t-108 4l6 82h26q63 0 113.5 16.5t85.5 42t53.5 58.5t18.5 67q0 47 -36 85t-116 38t-122 -34.5t-58 -90.5h-90l8 33t38 72t85 70.5t149 31.5q66 0 110 -17.5t71.5 -44 t40 -59t12.5 -65.5q0 -102 -68.5 -158.5t-169.5 -73.5v-4q102 -10 172 -56t70 -144q0 -51 -20.5 -100.5t-63.5 -88.5t-110.5 -62.5t-159.5 -23.5q-59 0 -115.5 11.5t-110.5 27.5z" />
<glyph unicode="&#xb4;" horiz-adv-x="569" d="M254 1278l291 248l82 -56l-305 -249z" />
<glyph unicode="&#xb5;" horiz-adv-x="1175" d="M94 -514q6 63 20.5 180t32 261.5t37 302t38 300t32.5 258t22 175.5h-170l9 90h276q-10 -74 -26.5 -183.5t-32 -227.5t-25.5 -227.5t-10 -181.5q0 -29 4 -56t15.5 -50t31 -36t51.5 -13q43 0 112 41t142.5 149.5t140 298t103.5 486.5h98q-14 -104 -27.5 -219t-23.5 -236 l-45 -508h186l-8 -90h-286l40 350q8 61 18.5 121.5t20.5 122.5h-4q-4 -23 -14 -58.5t-21 -70.5q-16 -49 -53 -132t-95 -161t-136 -135t-172 -57q-84 0 -113 59h-4l-65 -553h-99z" />
<glyph unicode="&#xb6;" horiz-adv-x="1228" d="M184 1028q2 98 36 174t91.5 127t133 78t161.5 27h361l-160 -1829h-98l151 1738h-215l-151 -1738h-99l92 1050q-68 0 -125 29t-97 80t-61.5 118.5t-19.5 145.5z" />
<glyph unicode="&#xb7;" horiz-adv-x="569" d="M170 598q0 47 34 81t81 34t80.5 -34t33.5 -81t-33.5 -81t-80.5 -34t-81 34t-34 81z" />
<glyph unicode="&#xb8;" horiz-adv-x="569" d="M117 -406l6 89q33 -10 75 -19.5t83 -9.5q49 0 79.5 17.5t30.5 60.5q0 20 -10 33.5t-25.5 21.5t-35 12t-35.5 4q-14 0 -24.5 -2t-18.5 -4l16 203h90l-16 -131q33 0 64.5 -6t56 -20.5t39 -40t14.5 -62.5q0 -31 -14.5 -62.5t-42 -57.5t-69.5 -41t-97 -15q-49 0 -89 9t-77 21 z" />
<glyph unicode="&#xb9;" horiz-adv-x="739" d="M113 1288l290 158h82l-75 -782h180l-8 -82h-435l9 82h155l72 684l-244 -134z" />
<glyph unicode="&#xba;" horiz-adv-x="739" d="M121 1077q0 68 17.5 135.5t55 122t99 87t149.5 32.5q104 0 171 -68.5t67 -218.5q0 -76 -20.5 -143.5t-59.5 -117.5t-97.5 -78.5t-133.5 -28.5q-49 0 -94.5 14t-79 47t-54 86t-20.5 131zM219 1085q0 -41 8.5 -78.5t26.5 -65.5t47 -44t70 -16q59 0 100 28.5t65.5 70.5 t35 91t10.5 92q0 55 -12.5 94t-34 65t-49 38t-56.5 12q-55 0 -95 -28.5t-65.5 -71.5t-38 -93.5t-12.5 -93.5z" />
<glyph unicode="&#xbb;" horiz-adv-x="948" d="M84 266l283 256l-236 277l76 65l262 -309l-8 -74l-311 -280zM444 266l283 256l-235 277l75 65l262 -309l-8 -74l-311 -280z" />
<glyph unicode="&#xbc;" horiz-adv-x="1708" d="M113 1288l290 158h82l-75 -782h180l-8 -82h-435l9 82h155l72 684l-244 -134zM344 -55l946 1587l76 -43l-946 -1587zM958 270l7 78l465 516h100l-47 -512h149l-6 -82h-151l-21 -188h105l-7 -82h-284l6 82h82l20 188h-418zM1067 352h317l43 389h-4z" />
<glyph unicode="&#xbd;" horiz-adv-x="1708" d="M113 1288l290 158h82l-75 -782h180l-8 -82h-435l9 82h155l72 684l-244 -134zM344 -55l946 1587l76 -43l-946 -1587zM1026 0l6 76q86 80 173 159.5t157 154.5t113 141.5t43 115.5q0 66 -42 109t-108 43q-98 0 -141 -44t-68 -116h-90q8 39 28.5 82t57.5 79t91 58.5 t132 22.5q63 0 108.5 -20.5t74 -52.5t42 -71t13.5 -73q0 -29 -7 -66t-36 -86t-85 -114.5t-155 -151.5l-184 -164h467l-6 -82h-584z" />
<glyph unicode="&#xbe;" horiz-adv-x="1708" d="M61 604l7 90q35 -25 89 -36t140 -11q121 0 183.5 51.5t62.5 130.5q0 57 -27 90t-70 48.5t-96 19.5t-108 4l6 82h26q63 0 113.5 16.5t85.5 42t53.5 58.5t18.5 67q0 47 -36 85t-116 38t-122 -34.5t-58 -90.5h-90l8 33t38 72t85 70.5t149 31.5q66 0 110 -17.5t71.5 -44 t40 -59t12.5 -65.5q0 -102 -68.5 -158.5t-169.5 -73.5v-4q102 -10 172 -56t70 -144q0 -51 -20.5 -100.5t-63.5 -88.5t-110.5 -62.5t-159.5 -23.5q-59 0 -115.5 11.5t-110.5 27.5zM344 -55l946 1587l76 -43l-946 -1587zM958 270l7 78l465 516h100l-47 -512h149l-6 -82h-151 l-21 -188h105l-7 -82h-284l6 82h82l20 188h-418zM1067 352h317l43 389h-4z" />
<glyph unicode="&#xbf;" horiz-adv-x="985" d="M33 -186q0 70 22.5 126t53 99t63.5 72.5t55 46.5l140 94q49 33 84.5 57.5t59.5 46t35 43t11 47.5q0 47 -24.5 76t-40.5 56l81 63q12 -14 28.5 -34.5t30 -45t23 -52.5t9.5 -54q0 -47 -18.5 -84t-48.5 -67t-64.5 -53.5t-67.5 -45.5l-139 -92q-37 -25 -70 -53.5t-59.5 -63.5 t-42 -77t-15.5 -91q0 -119 81 -181.5t204 -62.5q78 0 136 14.5t83 24.5l21 -92q-55 -18 -112.5 -31.5t-141.5 -13.5q-96 0 -167 27.5t-118 73.5t-69.5 104.5t-22.5 122.5zM506 995q0 43 27.5 69t60.5 26q41 0 64.5 -24.5t23.5 -59.5q0 -43 -23.5 -75t-66.5 -32 q-41 0 -63.5 28.5t-22.5 67.5z" />
<glyph unicode="&#xc0;" horiz-adv-x="1554" d="M18 0l9 90h143l616 1354h115l377 -1354h172l-8 -90h-422l8 90h133l-133 492h-532l-220 -492h173l-9 -90h-422zM537 672h467l-142 530q-10 35 -18 70t-13 74h-4q-12 -39 -25.5 -74t-29.5 -70zM598 1767l82 58l254 -246l-70 -59z" />
<glyph unicode="&#xc1;" horiz-adv-x="1554" d="M18 0l9 90h143l616 1354h115l377 -1354h172l-8 -90h-422l8 90h133l-133 492h-532l-220 -492h173l-9 -90h-422zM537 672h467l-142 530q-10 35 -18 70t-13 74h-4q-12 -39 -25.5 -74t-29.5 -70zM748 1577l290 248l82 -56l-305 -249z" />
<glyph unicode="&#xc2;" horiz-adv-x="1554" d="M18 0l9 90h143l616 1354h115l377 -1354h172l-8 -90h-422l8 90h133l-133 492h-532l-220 -492h173l-9 -90h-422zM537 672h467l-142 530q-10 35 -18 70t-13 74h-4q-12 -39 -25.5 -74t-29.5 -70zM569 1610l265 207h86l231 -207l-82 -58l-201 191l-229 -191z" />
<glyph unicode="&#xc3;" horiz-adv-x="1554" d="M18 0l9 90h143l616 1354h115l377 -1354h172l-8 -90h-422l8 90h133l-133 492h-532l-220 -492h173l-9 -90h-422zM537 672h467l-142 530q-10 35 -18 70t-13 74h-4q-12 -39 -25.5 -74t-29.5 -70zM551 1593q8 27 24.5 56.5t39 54.5t52 41t64.5 16q45 0 82 -17.5t68 -39.5 q33 -23 59.5 -41t52.5 -18q37 0 60.5 27.5t46.5 60.5l74 -56q-10 -16 -24.5 -38.5t-37 -43t-52.5 -35t-67 -14.5q-33 0 -67.5 18.5t-69.5 41.5t-64.5 40t-54.5 17q-43 0 -65.5 -36t-36.5 -71z" />
<glyph unicode="&#xc4;" horiz-adv-x="1554" d="M18 0l9 90h143l616 1354h115l377 -1354h172l-8 -90h-422l8 90h133l-133 492h-532l-220 -492h173l-9 -90h-422zM537 672h467l-142 530q-10 35 -18 70t-13 74h-4q-12 -39 -25.5 -74t-29.5 -70zM586 1667q0 29 18.5 61.5t71.5 32.5q33 0 51 -21.5t18 -53.5q0 -8 -4 -23.5 t-13 -31t-24 -27t-40 -11.5q-37 0 -57.5 19.5t-20.5 54.5zM991 1667q0 29 18.5 61.5t71.5 32.5q33 0 51.5 -21.5t18.5 -53.5q0 -8 -4 -23.5t-13.5 -31t-24.5 -27t-40 -11.5q-37 0 -57.5 19.5t-20.5 54.5z" />
<glyph unicode="&#xc5;" horiz-adv-x="1554" d="M18 0l9 90h143l616 1354h115l377 -1354h172l-8 -90h-422l8 90h133l-133 492h-532l-220 -492h173l-9 -90h-422zM537 672h467l-142 530q-10 35 -18 70t-13 74h-4q-12 -39 -25.5 -74t-29.5 -70zM688 1655q0 37 13.5 73.5t38 66.5t60.5 48.5t83 18.5q66 0 113.5 -43 t47.5 -129q0 -96 -55 -149.5t-139 -53.5q-78 0 -120 50t-42 118zM770 1663q0 -41 23.5 -71.5t68.5 -30.5q29 0 48.5 11t30.5 29.5t16.5 40t5.5 41.5q0 41 -19.5 73t-69.5 32q-49 0 -76.5 -38t-27.5 -87z" />
<glyph unicode="&#xc6;" horiz-adv-x="1933" d="M-2 0l8 90h131l817 1344h871l-25 -293h-90l8 202h-483l-51 -585h506l-9 -90h-503l-54 -578h576l29 201h90l-27 -291h-924l9 90h141l53 578h-475l-346 -578h172l-8 -90h-416zM645 758h432l51 585h-131z" />
<glyph unicode="&#xc7;" horiz-adv-x="1327" d="M125 647q0 63 12.5 149.5t43 176.5t84.5 178t138 157.5t201 111.5t275 42q100 0 185 -18.5t159 -40.5l-9 -270h-98l8 202q-47 14 -105 25.5t-147 11.5q-184 0 -307 -69.5t-194.5 -178t-101 -238.5t-29.5 -253q0 -137 38.5 -243.5t110.5 -179.5t175.5 -111t232.5 -38 q72 0 139.5 12.5t114.5 30.5l20 195h90l-20 -268q-35 -12 -79 -22.5t-90 -17.5t-89 -12.5t-74 -7.5l-16 -102q33 0 64.5 -6t56 -20.5t39 -40t14.5 -62.5q0 -31 -14.5 -62.5t-42 -57.5t-69.5 -41t-98 -15q-49 0 -89 9t-76 21l6 89q33 -10 74.5 -19.5t82.5 -9.5q49 0 80 17.5 t31 60.5q0 20 -10.5 33.5t-25.5 21.5t-34.5 12t-36.5 4q-14 0 -24 -2t-19 -4l17 174q-170 12 -283.5 73.5t-182.5 155t-98.5 210t-29.5 237.5z" />
<glyph unicode="&#xc8;" d="M66 0l8 90h139l111 1253h-170l8 91h889l-25 -291h-90l8 200h-514l-49 -555h526l-6 -90h-528l-54 -608h576l29 201h90l-27 -291h-921zM389 1767l82 58l254 -246l-70 -59z" />
<glyph unicode="&#xc9;" d="M66 0l8 90h139l111 1253h-170l8 91h889l-25 -291h-90l8 200h-514l-49 -555h526l-6 -90h-528l-54 -608h576l29 201h90l-27 -291h-921zM539 1577l290 248l82 -56l-305 -249z" />
<glyph unicode="&#xca;" d="M66 0l8 90h139l111 1253h-170l8 91h889l-25 -291h-90l8 200h-514l-49 -555h526l-6 -90h-528l-54 -608h576l29 201h90l-27 -291h-921zM360 1610l265 207h86l231 -207l-82 -58l-201 191l-229 -191z" />
<glyph unicode="&#xcb;" d="M66 0l8 90h139l111 1253h-170l8 91h889l-25 -291h-90l8 200h-514l-49 -555h526l-6 -90h-528l-54 -608h576l29 201h90l-27 -291h-921zM377 1667q0 29 18.5 61.5t71.5 32.5q33 0 51.5 -21.5t18.5 -53.5q0 -8 -4.5 -23.5t-13.5 -31t-24 -27t-40 -11.5q-37 0 -57.5 19.5 t-20.5 54.5zM782 1667q0 29 18.5 61.5t71.5 32.5q33 0 51.5 -21.5t18.5 -53.5q0 -8 -4 -23.5t-13.5 -31t-24.5 -27t-40 -11.5q-37 0 -57.5 19.5t-20.5 54.5z" />
<glyph unicode="&#xcc;" horiz-adv-x="643" d="M66 0l8 90h139l111 1253h-170l8 91h416l-9 -91h-139l-111 -1253h170l-8 -90h-415zM141 1767l82 58l254 -246l-69 -59z" />
<glyph unicode="&#xcd;" horiz-adv-x="643" d="M66 0l8 90h139l111 1253h-170l8 91h416l-9 -91h-139l-111 -1253h170l-8 -90h-415zM291 1577l291 248l82 -56l-306 -249z" />
<glyph unicode="&#xce;" horiz-adv-x="643" d="M66 0l8 90h139l111 1253h-170l8 91h416l-9 -91h-139l-111 -1253h170l-8 -90h-415zM113 1610l264 207h86l231 -207l-82 -58l-200 191l-230 -191z" />
<glyph unicode="&#xcf;" horiz-adv-x="643" d="M66 0l8 90h139l111 1253h-170l8 91h416l-9 -91h-139l-111 -1253h170l-8 -90h-415zM129 1667q0 29 18.5 61.5t71.5 32.5q33 0 51.5 -21.5t18.5 -53.5q0 -8 -4 -23.5t-13.5 -31t-24.5 -27t-40 -11.5q-37 0 -57.5 19.5t-20.5 54.5zM535 1667q0 29 18 61.5t72 32.5 q33 0 51 -21.5t18 -53.5q0 -8 -4 -23.5t-13 -31t-24.5 -27t-40.5 -11.5q-37 0 -57 19.5t-20 54.5z" />
<glyph unicode="&#xd0;" horiz-adv-x="1478" d="M66 0l8 90h139l53 608h-151l8 90h151l50 555h-170l8 91h536q115 0 194 -11.5t133 -28t89 -39t62 -42.5q41 -35 78.5 -79t65.5 -104.5t44 -138.5t16 -176q0 -53 -8 -116.5t-26.5 -131t-48 -135t-72.5 -131.5q-43 -63 -102.5 -117.5t-135.5 -95.5t-171 -64.5t-210 -23.5 h-540zM319 90h291q109 0 193 21.5t149.5 61.5t114.5 95.5t86 120.5q51 92 82 198.5t31 241.5q0 96 -27 188.5t-76 156.5q-35 43 -72.5 74.5t-87 53t-112 31.5t-146.5 10h-315l-49 -555h420l-8 -90h-420z" />
<glyph unicode="&#xd1;" horiz-adv-x="1554" d="M49 0l8 90h146l104 1253h-164l9 91h245l703 -1172q14 -23 26.5 -47.5t20.5 -38.5h4l102 1167h-182l8 91h426l-8 -91h-145l-117 -1343h-98l-703 1174q-12 23 -21.5 41t-13.5 30h-4l-94 -1155h182l-8 -90h-426zM551 1593q8 27 24.5 56.5t39 54.5t52 41t64.5 16 q45 0 82 -17.5t68 -39.5q33 -23 59.5 -41t52.5 -18q37 0 60.5 27.5t46.5 60.5l74 -56q-10 -16 -24.5 -38.5t-37 -43t-52.5 -35t-67 -14.5q-33 0 -67.5 18.5t-69.5 41.5t-64.5 40t-54.5 17q-43 0 -65.5 -36t-36.5 -71z" />
<glyph unicode="&#xd2;" horiz-adv-x="1478" d="M125 618q0 201 51 358t142.5 265.5t216 164.5t272.5 56q135 0 236.5 -46t171 -129t104.5 -200.5t35 -259.5q0 -158 -37 -311.5t-117 -274t-207 -195.5t-309 -75q-147 0 -252.5 51.5t-173.5 139.5t-100.5 205.5t-32.5 250.5zM240 618q0 -102 19.5 -199t72.5 -175 q53 -80 143 -131.5t215 -51.5q61 0 120.5 16.5t115 47.5t101.5 74t79 96q37 61 62.5 119.5t41 123t22.5 138.5t7 162q0 111 -25.5 209t-79 169.5t-136.5 113.5t-197 42q-111 0 -195 -32.5t-146.5 -90t-104.5 -132.5t-67.5 -159t-36.5 -171t-11 -169zM559 1767l82 58 l254 -246l-70 -59z" />
<glyph unicode="&#xd3;" horiz-adv-x="1478" d="M125 618q0 201 51 358t142.5 265.5t216 164.5t272.5 56q135 0 236.5 -46t171 -129t104.5 -200.5t35 -259.5q0 -158 -37 -311.5t-117 -274t-207 -195.5t-309 -75q-147 0 -252.5 51.5t-173.5 139.5t-100.5 205.5t-32.5 250.5zM240 618q0 -102 19.5 -199t72.5 -175 q53 -80 143 -131.5t215 -51.5q61 0 120.5 16.5t115 47.5t101.5 74t79 96q37 61 62.5 119.5t41 123t22.5 138.5t7 162q0 111 -25.5 209t-79 169.5t-136.5 113.5t-197 42q-111 0 -195 -32.5t-146.5 -90t-104.5 -132.5t-67.5 -159t-36.5 -171t-11 -169zM709 1577l290 248 l82 -56l-305 -249z" />
<glyph unicode="&#xd4;" horiz-adv-x="1478" d="M125 618q0 201 51 358t142.5 265.5t216 164.5t272.5 56q135 0 236.5 -46t171 -129t104.5 -200.5t35 -259.5q0 -158 -37 -311.5t-117 -274t-207 -195.5t-309 -75q-147 0 -252.5 51.5t-173.5 139.5t-100.5 205.5t-32.5 250.5zM240 618q0 -102 19.5 -199t72.5 -175 q53 -80 143 -131.5t215 -51.5q61 0 120.5 16.5t115 47.5t101.5 74t79 96q37 61 62.5 119.5t41 123t22.5 138.5t7 162q0 111 -25.5 209t-79 169.5t-136.5 113.5t-197 42q-111 0 -195 -32.5t-146.5 -90t-104.5 -132.5t-67.5 -159t-36.5 -171t-11 -169zM530 1610l265 207h86 l231 -207l-82 -58l-201 191l-229 -191z" />
<glyph unicode="&#xd5;" horiz-adv-x="1478" d="M125 618q0 201 51 358t142.5 265.5t216 164.5t272.5 56q135 0 236.5 -46t171 -129t104.5 -200.5t35 -259.5q0 -158 -37 -311.5t-117 -274t-207 -195.5t-309 -75q-147 0 -252.5 51.5t-173.5 139.5t-100.5 205.5t-32.5 250.5zM240 618q0 -102 19.5 -199t72.5 -175 q53 -80 143 -131.5t215 -51.5q61 0 120.5 16.5t115 47.5t101.5 74t79 96q37 61 62.5 119.5t41 123t22.5 138.5t7 162q0 111 -25.5 209t-79 169.5t-136.5 113.5t-197 42q-111 0 -195 -32.5t-146.5 -90t-104.5 -132.5t-67.5 -159t-36.5 -171t-11 -169zM512 1593 q8 27 24.5 56.5t39 54.5t52 41t64.5 16q45 0 82 -17.5t68 -39.5q33 -23 59.5 -41t52.5 -18q37 0 60.5 27.5t46.5 60.5l74 -56q-10 -16 -24.5 -38.5t-37 -43t-52.5 -35t-67 -14.5q-33 0 -67.5 18.5t-69.5 41.5t-64.5 40t-54.5 17q-43 0 -65.5 -36t-36.5 -71z" />
<glyph unicode="&#xd6;" horiz-adv-x="1478" d="M125 618q0 201 51 358t142.5 265.5t216 164.5t272.5 56q135 0 236.5 -46t171 -129t104.5 -200.5t35 -259.5q0 -158 -37 -311.5t-117 -274t-207 -195.5t-309 -75q-147 0 -252.5 51.5t-173.5 139.5t-100.5 205.5t-32.5 250.5zM240 618q0 -102 19.5 -199t72.5 -175 q53 -80 143 -131.5t215 -51.5q61 0 120.5 16.5t115 47.5t101.5 74t79 96q37 61 62.5 119.5t41 123t22.5 138.5t7 162q0 111 -25.5 209t-79 169.5t-136.5 113.5t-197 42q-111 0 -195 -32.5t-146.5 -90t-104.5 -132.5t-67.5 -159t-36.5 -171t-11 -169zM547 1667 q0 29 18.5 61.5t71.5 32.5q33 0 51.5 -21.5t18.5 -53.5q0 -8 -4.5 -23.5t-13.5 -31t-24 -27t-40 -11.5q-37 0 -57.5 19.5t-20.5 54.5zM952 1667q0 29 18.5 61.5t71.5 32.5q33 0 51.5 -21.5t18.5 -53.5q0 -8 -4 -23.5t-13.5 -31t-24.5 -27t-40 -11.5q-37 0 -57.5 19.5 t-20.5 54.5z" />
<glyph unicode="&#xd7;" horiz-adv-x="1228" d="M154 125l391 391l-391 391l69 70l391 -391l392 391l69 -70l-391 -391l391 -391l-69 -70l-392 391l-391 -391z" />
<glyph unicode="&#xd8;" horiz-adv-x="1478" d="M104 -154l187 279q-86 88 -126 216t-40 277q0 201 51 358t142.5 265.5t216 164.5t272.5 56q96 0 174 -23.5t143 -68.5l179 264l71 -47l-182 -274q80 -86 121 -209t41 -277q0 -158 -37 -311.5t-117 -274t-207 -195.5t-309 -75q-102 0 -183 24.5t-145 72.5l-180 -269z M240 618q0 -102 19.5 -199t72.5 -175q8 -16 20 -27l717 1069q-104 86 -268 86q-111 0 -195 -32.5t-146.5 -90t-104.5 -132.5t-67.5 -159t-36.5 -171t-11 -169zM414 156q55 -45 122.5 -70t153.5 -25q61 0 120.5 16.5t115 47.5t101.5 74t79 96q37 61 62.5 119.5t41 123 t22.5 138.5t7 162q0 117 -26.5 215t-82.5 170z" />
<glyph unicode="&#xd9;" horiz-adv-x="1478" d="M125 1343l8 91h414l-8 -91h-138l-61 -663q-10 -98 -15.5 -174t-5.5 -139q0 -305 359 -306q156 0 245 45.5t133 113t57 146t20 146.5l71 831h-182l8 91h414l-8 -91h-142l-71 -843q-12 -135 -38 -223.5t-79 -145.5q-82 -88 -190.5 -124t-243.5 -36q-131 0 -219 31 t-141.5 84t-76 126t-22.5 159q0 57 7 133t13 147l62 692h-170zM559 1767l82 58l254 -246l-70 -59z" />
<glyph unicode="&#xda;" horiz-adv-x="1478" d="M125 1343l8 91h414l-8 -91h-138l-61 -663q-10 -98 -15.5 -174t-5.5 -139q0 -305 359 -306q156 0 245 45.5t133 113t57 146t20 146.5l71 831h-182l8 91h414l-8 -91h-142l-71 -843q-12 -135 -38 -223.5t-79 -145.5q-82 -88 -190.5 -124t-243.5 -36q-131 0 -219 31 t-141.5 84t-76 126t-22.5 159q0 57 7 133t13 147l62 692h-170zM709 1577l290 248l82 -56l-305 -249z" />
<glyph unicode="&#xdb;" horiz-adv-x="1478" d="M125 1343l8 91h414l-8 -91h-138l-61 -663q-10 -98 -15.5 -174t-5.5 -139q0 -305 359 -306q156 0 245 45.5t133 113t57 146t20 146.5l71 831h-182l8 91h414l-8 -91h-142l-71 -843q-12 -135 -38 -223.5t-79 -145.5q-82 -88 -190.5 -124t-243.5 -36q-131 0 -219 31 t-141.5 84t-76 126t-22.5 159q0 57 7 133t13 147l62 692h-170zM530 1610l265 207h86l231 -207l-82 -58l-201 191l-229 -191z" />
<glyph unicode="&#xdc;" horiz-adv-x="1478" d="M125 1343l8 91h414l-8 -91h-138l-61 -663q-10 -98 -15.5 -174t-5.5 -139q0 -305 359 -306q156 0 245 45.5t133 113t57 146t20 146.5l71 831h-182l8 91h414l-8 -91h-142l-71 -843q-12 -135 -38 -223.5t-79 -145.5q-82 -88 -190.5 -124t-243.5 -36q-131 0 -219 31 t-141.5 84t-76 126t-22.5 159q0 57 7 133t13 147l62 692h-170zM547 1667q0 29 18.5 61.5t71.5 32.5q33 0 51.5 -21.5t18.5 -53.5q0 -8 -4.5 -23.5t-13.5 -31t-24 -27t-40 -11.5q-37 0 -57.5 19.5t-20.5 54.5zM952 1667q0 29 18.5 61.5t71.5 32.5q33 0 51.5 -21.5t18.5 -53.5 q0 -8 -4 -23.5t-13.5 -31t-24.5 -27t-40 -11.5q-37 0 -57.5 19.5t-20.5 54.5z" />
<glyph unicode="&#xdd;" horiz-adv-x="1366" d="M45 1343l8 91h414l-8 -91h-133q10 -10 17 -23t15 -26l330 -598l426 598q10 14 19.5 26.5t21.5 22.5h-174l8 91h420l-8 -91h-146l-526 -731l-45 -522h172l-8 -90h-420l8 90h142l45 518l-410 735h-168zM653 1577l291 248l82 -56l-305 -249z" />
<glyph unicode="&#xde;" horiz-adv-x="1099" d="M66 0l8 90h139l111 1253h-170l8 91h432l-8 -91h-156l-16 -176h137q80 0 146.5 -9t127.5 -38q78 -35 133.5 -111.5t55.5 -209.5q0 -100 -32 -185.5t-96.5 -146.5t-164.5 -95t-238 -34q-31 0 -76 2t-65 6l-23 -256h187l-8 -90h-432zM350 428q25 -4 63 -6t70 -2 q125 0 207 34.5t130 88t67.5 118t19.5 125.5q0 92 -30.5 149.5t-79.5 88.5t-109.5 42t-122.5 11h-157z" />
<glyph unicode="&#xdf;" horiz-adv-x="1214" d="M-279 -504l9 90q41 -16 83 -25.5t81 -9.5q74 0 124 27t81.5 79t48 130t22.5 180l80 1139q16 225 130 355t337 130q92 0 161.5 -21.5t115.5 -57t68.5 -84t22.5 -99.5q0 -72 -32.5 -126t-80.5 -100t-105.5 -84t-105.5 -75t-81 -75t-33 -83q0 -51 35 -85.5t86 -62.5 t111.5 -54.5t111.5 -63.5t86 -90t35 -131t-30.5 -137.5t-80 -100.5t-112 -61t-125.5 -20q-37 0 -79 4t-81 10t-72.5 13t-54.5 16l8 249h99l-9 -176q27 -10 67 -18t99 -8q90 0 143.5 25.5t80 61.5t34 73.5t7.5 64.5q0 61 -35 100t-86 69t-111.5 55.5t-112 58t-86 80 t-34.5 120.5q0 66 32.5 114t80.5 88t105.5 76t105.5 73.5t81 85t33 108.5q0 49 -25.5 83t-64.5 55.5t-86 30.5t-90 9q-123 0 -195 -48t-108.5 -118.5t-49 -151.5t-16.5 -145l-70 -1007q-8 -106 -19 -209t-48 -182.5t-108.5 -129t-196.5 -49.5q-45 0 -93.5 11.5t-87.5 23.5z " />
<glyph unicode="&#xe0;" horiz-adv-x="1099" d="M106 360q0 133 30 261.5t94.5 228.5t168 161.5t250.5 61.5q61 0 114.5 -13t84.5 -26h59q-10 -53 -20 -140t-21 -198l-49 -606h168l-8 -90h-266l51 467q4 29 10 57.5t12 57.5h-4q-8 -29 -14 -57.5t-16 -57.5q-25 -76 -63 -162t-89 -157.5t-117.5 -119.5t-146.5 -48 q-70 0 -114 34.5t-69.5 90t-35 123t-9.5 132.5zM213 362q0 -145 35 -214.5t100 -69.5q51 0 113.5 46t123 144.5t114 252t87.5 368.5l11 63q-31 12 -75 25.5t-97 13.5q-104 0 -183.5 -53t-126.5 -131q-51 -88 -76.5 -193.5t-25.5 -251.5zM371 1468l82 58l254 -246l-70 -59z " />
<glyph unicode="&#xe1;" horiz-adv-x="1099" d="M106 360q0 133 30 261.5t94.5 228.5t168 161.5t250.5 61.5q61 0 114.5 -13t84.5 -26h59q-10 -53 -20 -140t-21 -198l-49 -606h168l-8 -90h-266l51 467q4 29 10 57.5t12 57.5h-4q-8 -29 -14 -57.5t-16 -57.5q-25 -76 -63 -162t-89 -157.5t-117.5 -119.5t-146.5 -48 q-70 0 -114 34.5t-69.5 90t-35 123t-9.5 132.5zM213 362q0 -145 35 -214.5t100 -69.5q51 0 113.5 46t123 144.5t114 252t87.5 368.5l11 63q-31 12 -75 25.5t-97 13.5q-104 0 -183.5 -53t-126.5 -131q-51 -88 -76.5 -193.5t-25.5 -251.5zM520 1278l291 248l82 -56l-305 -249z " />
<glyph unicode="&#xe2;" horiz-adv-x="1099" d="M106 360q0 133 30 261.5t94.5 228.5t168 161.5t250.5 61.5q61 0 114.5 -13t84.5 -26h59q-10 -53 -20 -140t-21 -198l-49 -606h168l-8 -90h-266l51 467q4 29 10 57.5t12 57.5h-4q-8 -29 -14 -57.5t-16 -57.5q-25 -76 -63 -162t-89 -157.5t-117.5 -119.5t-146.5 -48 q-70 0 -114 34.5t-69.5 90t-35 123t-9.5 132.5zM213 362q0 -145 35 -214.5t100 -69.5q51 0 113.5 46t123 144.5t114 252t87.5 368.5l11 63q-31 12 -75 25.5t-97 13.5q-104 0 -183.5 -53t-126.5 -131q-51 -88 -76.5 -193.5t-25.5 -251.5zM342 1311l264 207h86l232 -207 l-82 -58l-201 191l-229 -191z" />
<glyph unicode="&#xe3;" horiz-adv-x="1099" d="M106 360q0 133 30 261.5t94.5 228.5t168 161.5t250.5 61.5q61 0 114.5 -13t84.5 -26h59q-10 -53 -20 -140t-21 -198l-49 -606h168l-8 -90h-266l51 467q4 29 10 57.5t12 57.5h-4q-8 -29 -14 -57.5t-16 -57.5q-25 -76 -63 -162t-89 -157.5t-117.5 -119.5t-146.5 -48 q-70 0 -114 34.5t-69.5 90t-35 123t-9.5 132.5zM213 362q0 -145 35 -214.5t100 -69.5q51 0 113.5 46t123 144.5t114 252t87.5 368.5l11 63q-31 12 -75 25.5t-97 13.5q-104 0 -183.5 -53t-126.5 -131q-51 -88 -76.5 -193.5t-25.5 -251.5zM324 1294q8 27 24.5 56.5t39 54.5 t52 41t64.5 16q45 0 82 -17.5t67 -39.5q33 -23 59.5 -41t53.5 -18q37 0 60.5 27.5t45.5 60.5l74 -56q-10 -16 -24.5 -38.5t-37 -43t-52 -35t-66.5 -14.5q-33 0 -67.5 18.5t-69.5 41.5t-64.5 40t-54.5 17q-43 0 -65.5 -36t-36.5 -71z" />
<glyph unicode="&#xe4;" horiz-adv-x="1099" d="M106 360q0 133 30 261.5t94.5 228.5t168 161.5t250.5 61.5q61 0 114.5 -13t84.5 -26h59q-10 -53 -20 -140t-21 -198l-49 -606h168l-8 -90h-266l51 467q4 29 10 57.5t12 57.5h-4q-8 -29 -14 -57.5t-16 -57.5q-25 -76 -63 -162t-89 -157.5t-117.5 -119.5t-146.5 -48 q-70 0 -114 34.5t-69.5 90t-35 123t-9.5 132.5zM213 362q0 -145 35 -214.5t100 -69.5q51 0 113.5 46t123 144.5t114 252t87.5 368.5l11 63q-31 12 -75 25.5t-97 13.5q-104 0 -183.5 -53t-126.5 -131q-51 -88 -76.5 -193.5t-25.5 -251.5zM358 1368q0 29 18.5 61.5t72.5 32.5 q33 0 51 -21.5t18 -54.5q0 -8 -4 -23t-13 -30.5t-24.5 -27t-40.5 -11.5q-37 0 -57.5 19.5t-20.5 54.5zM764 1368q0 29 18.5 61.5t71.5 32.5q33 0 51.5 -21.5t18.5 -54.5q0 -8 -4.5 -23t-13.5 -30.5t-24 -27t-40 -11.5q-37 0 -57.5 19.5t-20.5 54.5z" />
<glyph unicode="&#xe5;" horiz-adv-x="1099" d="M106 360q0 133 30 261.5t94.5 228.5t168 161.5t250.5 61.5q61 0 114.5 -13t84.5 -26h59q-10 -53 -20 -140t-21 -198l-49 -606h168l-8 -90h-266l51 467q4 29 10 57.5t12 57.5h-4q-8 -29 -14 -57.5t-16 -57.5q-25 -76 -63 -162t-89 -157.5t-117.5 -119.5t-146.5 -48 q-70 0 -114 34.5t-69.5 90t-35 123t-9.5 132.5zM213 362q0 -145 35 -214.5t100 -69.5q51 0 113.5 46t123 144.5t114 252t87.5 368.5l11 63q-31 12 -75 25.5t-97 13.5q-104 0 -183.5 -53t-126.5 -131q-51 -88 -76.5 -193.5t-25.5 -251.5zM461 1356q0 37 13 73.5t38 66.5 t60.5 48.5t82.5 18.5q66 0 114 -43t48 -129q0 -96 -55 -149.5t-139 -53.5q-78 0 -120 50t-42 118zM543 1364q0 -41 23.5 -71.5t68.5 -30.5q29 0 48 11t30.5 29.5t16.5 40t5 41.5q0 41 -19.5 73t-68.5 32t-76.5 -38t-27.5 -87z" />
<glyph unicode="&#xe6;" horiz-adv-x="1478" d="M106 377q0 160 41 294t121 236q59 76 140 121t184 45q86 0 155.5 -37t122.5 -80q41 43 112 80t169 37q127 0 192.5 -64.5t65.5 -164.5q0 -115 -59.5 -192t-147.5 -124t-190.5 -68.5t-188.5 -25.5q0 -57 4 -121.5t29 -118t76 -89t145 -35.5q80 0 145.5 25.5t125.5 58.5 l-17 -109q-63 -29 -133 -47t-151 -18q-102 0 -165 34.5t-97.5 86t-47 108.5t-12.5 102q0 23 2 47.5t6 42.5h-4q-12 -49 -43 -120.5t-78 -138t-113.5 -114.5t-148.5 -48q-72 0 -118 38.5t-72.5 97t-38 128t-11.5 133.5zM213 381q0 -162 45 -232.5t104 -70.5q55 0 109.5 44 t103 117.5t86 170t60.5 200.5l63 310q-41 25 -94 44t-112 19q-98 0 -176 -63.5t-121 -169.5q-33 -80 -50.5 -175.5t-17.5 -193.5zM823 516q88 8 174 30.5t154 60.5t110 93.5t42 128.5q0 61 -39.5 107.5t-135.5 46.5q-49 0 -103 -18.5t-95 -59.5q-27 -27 -44.5 -61.5 t-28.5 -81.5t-19.5 -107.5t-14.5 -138.5z" />
<glyph unicode="&#xe7;" horiz-adv-x="833" d="M63 449q0 123 29 235.5t90.5 198.5t155.5 138t225 52q72 0 128.5 -12t90.5 -23l-24 -247h-90l8 178q-16 6 -45 10t-60 4q-109 0 -185.5 -45t-124.5 -119t-69.5 -169t-21.5 -193q0 -72 13.5 -140.5t45 -122t85 -85t135.5 -31.5q80 0 150.5 27.5t125.5 58.5l-8 -107 q-59 -35 -131 -54t-125 -23l-17 -111q33 0 65 -6t56.5 -20.5t38.5 -40t14 -62.5q0 -31 -14 -62.5t-41.5 -57.5t-69.5 -41t-98 -15q-49 0 -89 9t-77 21l7 89q33 -10 74.5 -19.5t82.5 -9.5q49 0 80 17.5t31 60.5q0 20 -10.5 33.5t-25.5 21.5t-34.5 12t-36.5 4q-14 0 -24.5 -2 t-18.5 -4l17 191q-90 12 -148.5 57t-94.5 108.5t-50.5 140.5t-14.5 155z" />
<glyph unicode="&#xe8;" horiz-adv-x="909" d="M92 420q0 113 27.5 229.5t87 210.5t155 153.5t228.5 59.5q121 0 186.5 -60.5t65.5 -164.5q0 -109 -65.5 -185.5t-162 -127t-209 -79t-206.5 -38.5q0 -41 4 -100.5t29.5 -115t80 -94t154.5 -38.5q80 0 155.5 30.5t139.5 65.5l-8 -105q-43 -25 -120 -53t-181 -28t-174 32.5 t-112 91t-58.5 139.5t-16.5 177zM199 508q111 8 208 35.5t169.5 70.5t115.5 99.5t43 126.5q0 20 -7 45.5t-25.5 47t-50 36t-83.5 14.5q-80 0 -145.5 -37t-112.5 -101.5t-75.5 -150.5t-36.5 -186zM315 1468l82 58l254 -246l-69 -59z" />
<glyph unicode="&#xe9;" horiz-adv-x="909" d="M92 420q0 113 27.5 229.5t87 210.5t155 153.5t228.5 59.5q121 0 186.5 -60.5t65.5 -164.5q0 -109 -65.5 -185.5t-162 -127t-209 -79t-206.5 -38.5q0 -41 4 -100.5t29.5 -115t80 -94t154.5 -38.5q80 0 155.5 30.5t139.5 65.5l-8 -105q-43 -25 -120 -53t-181 -28t-174 32.5 t-112 91t-58.5 139.5t-16.5 177zM199 508q111 8 208 35.5t169.5 70.5t115.5 99.5t43 126.5q0 20 -7 45.5t-25.5 47t-50 36t-83.5 14.5q-80 0 -145.5 -37t-112.5 -101.5t-75.5 -150.5t-36.5 -186zM465 1278l291 248l82 -56l-306 -249z" />
<glyph unicode="&#xea;" horiz-adv-x="909" d="M92 420q0 113 27.5 229.5t87 210.5t155 153.5t228.5 59.5q121 0 186.5 -60.5t65.5 -164.5q0 -109 -65.5 -185.5t-162 -127t-209 -79t-206.5 -38.5q0 -41 4 -100.5t29.5 -115t80 -94t154.5 -38.5q80 0 155.5 30.5t139.5 65.5l-8 -105q-43 -25 -120 -53t-181 -28t-174 32.5 t-112 91t-58.5 139.5t-16.5 177zM199 508q111 8 208 35.5t169.5 70.5t115.5 99.5t43 126.5q0 20 -7 45.5t-25.5 47t-50 36t-83.5 14.5q-80 0 -145.5 -37t-112.5 -101.5t-75.5 -150.5t-36.5 -186zM287 1311l264 207h86l231 -207l-82 -58l-200 191l-230 -191z" />
<glyph unicode="&#xeb;" horiz-adv-x="909" d="M92 420q0 113 27.5 229.5t87 210.5t155 153.5t228.5 59.5q121 0 186.5 -60.5t65.5 -164.5q0 -109 -65.5 -185.5t-162 -127t-209 -79t-206.5 -38.5q0 -41 4 -100.5t29.5 -115t80 -94t154.5 -38.5q80 0 155.5 30.5t139.5 65.5l-8 -105q-43 -25 -120 -53t-181 -28t-174 32.5 t-112 91t-58.5 139.5t-16.5 177zM199 508q111 8 208 35.5t169.5 70.5t115.5 99.5t43 126.5q0 20 -7 45.5t-25.5 47t-50 36t-83.5 14.5q-80 0 -145.5 -37t-112.5 -101.5t-75.5 -150.5t-36.5 -186zM303 1368q0 29 18.5 61.5t71.5 32.5q33 0 51.5 -21.5t18.5 -54.5q0 -8 -4 -23 t-13.5 -30.5t-24.5 -27t-40 -11.5q-37 0 -57.5 19.5t-20.5 54.5zM709 1368q0 29 18 61.5t72 32.5q33 0 51 -21.5t18 -54.5q0 -8 -4 -23t-13 -30.5t-24.5 -27t-40.5 -11.5q-37 0 -57 19.5t-20 54.5z" />
<glyph unicode="&#xec;" horiz-adv-x="569" d="M100 963l9 90h272l-86 -963h174l-8 -90h-273l86 963h-174zM104 1468l82 58l254 -246l-69 -59z" />
<glyph unicode="&#xed;" horiz-adv-x="569" d="M100 963l9 90h272l-86 -963h174l-8 -90h-273l86 963h-174zM254 1278l291 248l82 -56l-305 -249z" />
<glyph unicode="&#xee;" horiz-adv-x="569" d="M55 1311l264 207h87l231 -207l-82 -58l-201 191l-229 -191zM100 963l9 90h272l-86 -963h174l-8 -90h-273l86 963h-174z" />
<glyph unicode="&#xef;" horiz-adv-x="569" d="M92 1368q0 29 18.5 61.5t71.5 32.5q33 0 51.5 -21.5t18.5 -54.5q0 -8 -4 -23t-13.5 -30.5t-24.5 -27t-40 -11.5q-37 0 -57.5 19.5t-20.5 54.5zM100 963l9 90h272l-86 -963h174l-8 -90h-273l86 963h-174zM498 1368q0 29 18.5 61.5t71.5 32.5q33 0 51 -21.5t18 -54.5 q0 -8 -4 -23t-13 -30.5t-24.5 -27t-40.5 -11.5q-37 0 -57 19.5t-20 54.5z" />
<glyph unicode="&#xf0;" horiz-adv-x="985" d="M63 451q0 113 27 223t83 199.5t147.5 144.5t220.5 55q74 0 129 -30.5t88 -84.5l4 5q-20 123 -66.5 214t-105.5 162l-221 -106l-56 61l222 107q-35 35 -83.5 72.5t-97.5 68.5l86 49q104 -63 187 -145l211 100l55 -61l-209 -101q119 -137 164 -327.5t45 -454.5 q0 -131 -31 -244.5t-89 -197.5t-145 -132t-200 -48q-72 0 -137.5 24.5t-116.5 79.5t-81 145t-30 222zM170 444q0 -74 13.5 -141t44 -119.5t80.5 -83t124 -30.5q102 0 170 51t109 129t58 170t17 174q0 102 -20.5 176t-55 121t-83.5 69.5t-105 22.5q-96 0 -163.5 -50 t-109.5 -128t-60.5 -173.5t-18.5 -187.5z" />
<glyph unicode="&#xf1;" d="M63 963l9 90h286l-41 -359q-8 -72 -17 -128t-19 -117h4q6 23 11 44t11 44q18 66 56 157.5t96.5 175.5t137.5 143.5t177 59.5q55 0 90 -21.5t53.5 -56t25.5 -80t7 -90.5q0 -53 -8 -146t-20.5 -198.5t-25.5 -210t-24 -180.5h170l-8 -90h-276q10 74 26.5 183.5t31.5 227 t25.5 227.5t10.5 181q0 29 -4 56.5t-15.5 50t-31 36t-51.5 13.5q-43 0 -112 -41t-142.5 -149.5t-140 -298t-103.5 -486.5h-98q14 104 27.5 219t23.5 236l45 508h-187zM322 1294q8 27 24 56.5t39 54.5t52.5 41t64.5 16q45 0 82 -17.5t67 -39.5q33 -23 59.5 -41t53.5 -18 q37 0 60.5 27.5t45.5 60.5l74 -56q-10 -16 -24.5 -38.5t-37 -43t-52 -35t-66.5 -14.5q-33 0 -67.5 18.5t-69.5 41.5t-65 40t-54 17q-43 0 -65.5 -36t-36.5 -71z" />
<glyph unicode="&#xf2;" horiz-adv-x="985" d="M63 451q0 113 27 223t83 199.5t147.5 144.5t220.5 55q76 0 140 -27.5t111.5 -86t74 -146.5t26.5 -211q0 -131 -31 -244.5t-89 -197.5t-145 -132t-200 -48q-72 0 -137.5 24.5t-116.5 79.5t-81 145.5t-30 221.5zM170 444q0 -74 14.5 -141t45 -119.5t80.5 -83t122 -30.5 q102 0 170 51t109 129t58 170t17 174q0 102 -20.5 176t-55 121t-83.5 69.5t-105 22.5q-96 0 -163.5 -50t-109.5 -128t-60.5 -173.5t-18.5 -187.5zM313 1468l82 58l254 -246l-69 -59z" />
<glyph unicode="&#xf3;" horiz-adv-x="985" d="M63 451q0 113 27 223t83 199.5t147.5 144.5t220.5 55q76 0 140 -27.5t111.5 -86t74 -146.5t26.5 -211q0 -131 -31 -244.5t-89 -197.5t-145 -132t-200 -48q-72 0 -137.5 24.5t-116.5 79.5t-81 145.5t-30 221.5zM170 444q0 -74 14.5 -141t45 -119.5t80.5 -83t122 -30.5 q102 0 170 51t109 129t58 170t17 174q0 102 -20.5 176t-55 121t-83.5 69.5t-105 22.5q-96 0 -163.5 -50t-109.5 -128t-60.5 -173.5t-18.5 -187.5zM463 1278l291 248l82 -56l-306 -249z" />
<glyph unicode="&#xf4;" horiz-adv-x="985" d="M63 451q0 113 27 223t83 199.5t147.5 144.5t220.5 55q76 0 140 -27.5t111.5 -86t74 -146.5t26.5 -211q0 -131 -31 -244.5t-89 -197.5t-145 -132t-200 -48q-72 0 -137.5 24.5t-116.5 79.5t-81 145.5t-30 221.5zM170 444q0 -74 14.5 -141t45 -119.5t80.5 -83t122 -30.5 q102 0 170 51t109 129t58 170t17 174q0 102 -20.5 176t-55 121t-83.5 69.5t-105 22.5q-96 0 -163.5 -50t-109.5 -128t-60.5 -173.5t-18.5 -187.5zM285 1311l264 207h86l231 -207l-82 -58l-200 191l-230 -191z" />
<glyph unicode="&#xf5;" horiz-adv-x="985" d="M63 451q0 113 27 223t83 199.5t147.5 144.5t220.5 55q76 0 140 -27.5t111.5 -86t74 -146.5t26.5 -211q0 -131 -31 -244.5t-89 -197.5t-145 -132t-200 -48q-72 0 -137.5 24.5t-116.5 79.5t-81 145.5t-30 221.5zM170 444q0 -74 14.5 -141t45 -119.5t80.5 -83t122 -30.5 q102 0 170 51t109 129t58 170t17 174q0 102 -20.5 176t-55 121t-83.5 69.5t-105 22.5q-96 0 -163.5 -50t-109.5 -128t-60.5 -173.5t-18.5 -187.5zM266 1294q8 27 24.5 56.5t39 54.5t52.5 41t64 16q45 0 82 -17.5t68 -39.5q33 -23 59.5 -41t53.5 -18q37 0 60.5 27.5 t45.5 60.5l74 -56q-10 -16 -24.5 -38.5t-37 -43t-52.5 -35t-66 -14.5q-33 0 -68 18.5t-70 41.5t-64.5 40t-53.5 17q-43 0 -65.5 -36t-37.5 -71z" />
<glyph unicode="&#xf6;" horiz-adv-x="985" d="M63 451q0 113 27 223t83 199.5t147.5 144.5t220.5 55q76 0 140 -27.5t111.5 -86t74 -146.5t26.5 -211q0 -131 -31 -244.5t-89 -197.5t-145 -132t-200 -48q-72 0 -137.5 24.5t-116.5 79.5t-81 145.5t-30 221.5zM170 444q0 -74 14.5 -141t45 -119.5t80.5 -83t122 -30.5 q102 0 170 51t109 129t58 170t17 174q0 102 -20.5 176t-55 121t-83.5 69.5t-105 22.5q-96 0 -163.5 -50t-109.5 -128t-60.5 -173.5t-18.5 -187.5zM301 1368q0 29 18.5 61.5t71.5 32.5q33 0 51.5 -21.5t18.5 -54.5q0 -8 -4 -23t-13.5 -30.5t-24.5 -27t-40 -11.5 q-37 0 -57.5 19.5t-20.5 54.5zM707 1368q0 29 18 61.5t72 32.5q33 0 51 -21.5t18 -54.5q0 -8 -4 -23t-13 -30.5t-24.5 -27t-40.5 -11.5q-37 0 -57 19.5t-20 54.5z" />
<glyph unicode="&#xf7;" horiz-adv-x="1228" d="M96 469v98h1037v-98h-1037zM500 90q0 47 33.5 81t80.5 34t81 -34t34 -81t-33.5 -81t-81.5 -34q-47 0 -80.5 34t-33.5 81zM500 946q0 47 33.5 81t80.5 34t81 -34t34 -81t-33.5 -81t-81.5 -34q-47 0 -80.5 34t-33.5 81z" />
<glyph unicode="&#xf8;" horiz-adv-x="985" d="M0 -121l156 232q-41 53 -67 137t-26 203q0 113 27 223t83 199.5t147.5 144.5t220.5 55q125 0 209 -72l145 218l61 -41l-155 -232q43 -57 67.5 -142t24.5 -202q0 -131 -31 -244.5t-89 -197.5t-145 -132t-200 -48q-59 0 -115.5 17t-103.5 58l-148 -221zM170 444 q0 -66 11.5 -128t37.5 -111l471 708q-33 35 -76 52.5t-92 17.5q-96 0 -163.5 -50t-109.5 -128t-60.5 -173t-18.5 -188zM264 139q29 -33 71 -51t97 -18q102 0 170 51t109 129t58 170t17 174q0 156 -51 254z" />
<glyph unicode="&#xf9;" horiz-adv-x="1175" d="M106 963l9 90h276q-10 -74 -26.5 -183.5t-32 -227.5t-25.5 -227.5t-10 -181.5q0 -29 4 -56t15.5 -50t31 -36t51.5 -13q43 0 112 41t142.5 149.5t140 298t103.5 486.5h98q-14 -104 -27.5 -219t-23.5 -236l-45 -508h186l-8 -90h-286l40 350q8 61 18.5 121.5t20.5 122.5h-4 q-4 -23 -14 -58.5t-21 -70.5q-16 -49 -53 -132t-95 -161t-136 -135t-172 -57q-55 0 -90 21.5t-53.5 56t-25.5 78.5t-7 91q0 51 8 144.5t20.5 200t25.5 211t23 180.5h-170zM408 1468l81 58l254 -246l-69 -59z" />
<glyph unicode="&#xfa;" horiz-adv-x="1175" d="M106 963l9 90h276q-10 -74 -26.5 -183.5t-32 -227.5t-25.5 -227.5t-10 -181.5q0 -29 4 -56t15.5 -50t31 -36t51.5 -13q43 0 112 41t142.5 149.5t140 298t103.5 486.5h98q-14 -104 -27.5 -219t-23.5 -236l-45 -508h186l-8 -90h-286l40 350q8 61 18.5 121.5t20.5 122.5h-4 q-4 -23 -14 -58.5t-21 -70.5q-16 -49 -53 -132t-95 -161t-136 -135t-172 -57q-55 0 -90 21.5t-53.5 56t-25.5 78.5t-7 91q0 51 8 144.5t20.5 200t25.5 211t23 180.5h-170zM557 1278l291 248l82 -56l-305 -249z" />
<glyph unicode="&#xfb;" horiz-adv-x="1175" d="M106 963l9 90h276q-10 -74 -26.5 -183.5t-32 -227.5t-25.5 -227.5t-10 -181.5q0 -29 4 -56t15.5 -50t31 -36t51.5 -13q43 0 112 41t142.5 149.5t140 298t103.5 486.5h98q-14 -104 -27.5 -219t-23.5 -236l-45 -508h186l-8 -90h-286l40 350q8 61 18.5 121.5t20.5 122.5h-4 q-4 -23 -14 -58.5t-21 -70.5q-16 -49 -53 -132t-95 -161t-136 -135t-172 -57q-55 0 -90 21.5t-53.5 56t-25.5 78.5t-7 91q0 51 8 144.5t20.5 200t25.5 211t23 180.5h-170zM358 1311l265 207h86l231 -207l-82 -58l-201 191l-229 -191z" />
<glyph unicode="&#xfc;" horiz-adv-x="1175" d="M106 963l9 90h276q-10 -74 -26.5 -183.5t-32 -227.5t-25.5 -227.5t-10 -181.5q0 -29 4 -56t15.5 -50t31 -36t51.5 -13q43 0 112 41t142.5 149.5t140 298t103.5 486.5h98q-14 -104 -27.5 -219t-23.5 -236l-45 -508h186l-8 -90h-286l40 350q8 61 18.5 121.5t20.5 122.5h-4 q-4 -23 -14 -58.5t-21 -70.5q-16 -49 -53 -132t-95 -161t-136 -135t-172 -57q-55 0 -90 21.5t-53.5 56t-25.5 78.5t-7 91q0 51 8 144.5t20.5 200t25.5 211t23 180.5h-170zM375 1368q0 29 18.5 61.5t71.5 32.5q33 0 51.5 -21.5t18.5 -54.5q0 -8 -4.5 -23t-13.5 -30.5t-24 -27 t-40 -11.5q-37 0 -57.5 19.5t-20.5 54.5zM780 1368q0 29 18.5 61.5t71.5 32.5q33 0 51.5 -21.5t18.5 -54.5q0 -8 -4 -23t-13.5 -30.5t-24.5 -27t-40 -11.5q-37 0 -57.5 19.5t-20.5 54.5z" />
<glyph unicode="&#xfd;" horiz-adv-x="1062" d="M-10 -524l14 90q25 -8 50.5 -11.5t39.5 -3.5q72 0 122 25t92 76t79 127t82 178l-270 1006h-154l8 90h238l209 -828q10 -37 16 -72.5t12 -72.5h4q10 35 22.5 67.5t25.5 67.5l282 748h-178l8 90h287l-8 -66q-43 -139 -135.5 -369.5t-221.5 -562.5q-66 -168 -122 -281.5 t-116.5 -183t-129 -99.5t-156.5 -30q-61 0 -100 15zM502 1278l291 248l81 -56l-305 -249z" />
<glyph unicode="&#xfe;" horiz-adv-x="1099" d="M-23 -514l9 90h141l170 1909h-197l9 90h299l-70 -752q-8 -94 -20.5 -173t-28.5 -165h4q8 29 13 57.5t16 57.5q29 92 71.5 177t98 150.5t122 105.5t146.5 40q74 0 120 -39t70.5 -97t33.5 -126t9 -127q0 -121 -31.5 -245t-97 -224t-164 -163.5t-231.5 -63.5q-72 0 -120 8 t-81 18l-43 -438h176l-8 -90h-416zM274 106q35 -10 81 -23t102 -13q123 0 205.5 59t132 152.5t71 207t21.5 222.5q0 47 -6.5 95t-22.5 88t-46 64.5t-77 24.5q-68 0 -139.5 -68.5t-133 -175t-107.5 -234.5t-60 -247q-4 -37 -10 -76t-11 -76z" />
<glyph unicode="&#xff;" horiz-adv-x="1062" d="M-10 -524l14 90q25 -8 50.5 -11.5t39.5 -3.5q72 0 122 25t92 76t79 127t82 178l-270 1006h-154l8 90h238l209 -828q10 -37 16 -72.5t12 -72.5h4q10 35 22.5 67.5t25.5 67.5l282 748h-178l8 90h287l-8 -66q-43 -139 -135.5 -369.5t-221.5 -562.5q-66 -168 -122 -281.5 t-116.5 -183t-129 -99.5t-156.5 -30q-61 0 -100 15zM299 1368q0 29 18.5 61.5t71.5 32.5q33 0 51.5 -21.5t18.5 -54.5q0 -8 -4 -23t-13.5 -30.5t-24.5 -27t-40 -11.5q-37 0 -57.5 19.5t-20.5 54.5zM705 1368q0 29 18 61.5t72 32.5q33 0 51 -21.5t18 -54.5q0 -8 -4 -23 t-13 -30.5t-24.5 -27t-40.5 -11.5q-37 0 -57 19.5t-20 54.5z" />
<glyph unicode="&#x152;" horiz-adv-x="1933" d="M125 631q0 172 48 320.5t140.5 259t225.5 173t303 62.5q33 0 71.5 -1t73.5 -5t80 -5t74 -1h704l-24 -291h-90l8 200h-527l-49 -555h537l-8 -90h-537l-53 -608h588l28 201h90l-26 -291h-678q-76 0 -132.5 -2t-109.5 -6q-27 -2 -55.5 -3t-52.5 -1q-152 0 -268.5 37.5 t-196.5 116.5t-122 200t-42 289zM240 643q0 -141 28.5 -238.5t74.5 -160t105.5 -96t120 -50t116.5 -18.5t99 -2q49 0 106.5 3t104.5 9l111 1262q-51 2 -122 7t-132 5q-80 0 -132 -10.5t-106 -32.5q-90 -37 -160.5 -102.5t-117.5 -153.5t-71.5 -195.5t-24.5 -226.5z" />
<glyph unicode="&#x153;" horiz-adv-x="1517" d="M70 436q0 68 10 139.5t30.5 139t52.5 128t75 107.5q45 47 119.5 85t177.5 38q76 0 127 -28.5t82.5 -70.5t46 -90t16.5 -85h4q18 53 49 103t75 88t105.5 60.5t141.5 22.5q133 0 199.5 -65.5t66.5 -161.5q0 -115 -63.5 -193t-156.5 -125t-201.5 -68.5t-197.5 -25.5 q0 -47 4.5 -110.5t28 -120t75.5 -95t150 -38.5q72 0 145 24.5t138 55.5l-10 -103q-53 -23 -122 -45t-173 -22q-86 0 -146.5 28.5t-98.5 69.5t-54 88t-16 84h-5q-6 -37 -27.5 -83t-60.5 -88t-94 -70.5t-129 -28.5q-72 0 -137.5 24.5t-116.5 77.5t-80.5 140t-29.5 214z M176 444q0 -74 13.5 -141t43 -119.5t78.5 -83t121 -30.5q45 0 92 19.5t86 57t67 96t38 136.5q2 18 6 60t8 90.5t7 94.5t3 74q0 131 -57 208t-168 77q-92 0 -156.5 -50t-104.5 -128t-58.5 -173.5t-18.5 -187.5zM829 516q72 6 161 22.5t167 51.5t131 92t53 143q0 25 -9 52.5 t-29.5 51t-53 39t-80.5 15.5q-96 0 -160.5 -43t-104.5 -110.5t-57.5 -150.5t-17.5 -163z" />
<glyph unicode="&#x178;" horiz-adv-x="1366" d="M45 1343l8 91h414l-8 -91h-133q10 -10 17 -23t15 -26l330 -598l426 598q10 14 19.5 26.5t21.5 22.5h-174l8 91h420l-8 -91h-146l-526 -731l-45 -522h172l-8 -90h-420l8 90h142l45 518l-410 735h-168zM492 1667q0 29 18 61.5t72 32.5q33 0 51 -21.5t18 -53.5 q0 -8 -4 -23.5t-13 -31t-24.5 -27t-40.5 -11.5q-37 0 -57 19.5t-20 54.5zM897 1667q0 29 18.5 61.5t71.5 32.5q33 0 51.5 -21.5t18.5 -53.5q0 -8 -4 -23.5t-13.5 -31t-24.5 -27t-40 -11.5q-37 0 -57.5 19.5t-20.5 54.5z" />
<glyph unicode="&#x2c6;" horiz-adv-x="569" d="M76 1311l264 207h86l231 -207l-82 -58l-200 191l-230 -191z" />
<glyph unicode="&#x2dc;" horiz-adv-x="569" d="M57 1294q8 27 24.5 56.5t39 54.5t52.5 41t65 16q45 0 81.5 -17.5t67.5 -39.5q33 -23 59.5 -41t53.5 -18q37 0 60.5 27.5t45.5 60.5l74 -56q-10 -16 -24.5 -38.5t-37 -43t-52 -35t-66.5 -14.5q-33 0 -68 18.5t-70 41.5t-64.5 40t-53.5 17q-43 0 -65.5 -36t-37.5 -71z" />
<glyph unicode="&#x2000;" horiz-adv-x="931" />
<glyph unicode="&#x2001;" horiz-adv-x="1862" />
<glyph unicode="&#x2002;" horiz-adv-x="931" />
<glyph unicode="&#x2003;" horiz-adv-x="1862" />
<glyph unicode="&#x2004;" horiz-adv-x="620" />
<glyph unicode="&#x2005;" horiz-adv-x="465" />
<glyph unicode="&#x2006;" horiz-adv-x="310" />
<glyph unicode="&#x2007;" horiz-adv-x="310" />
<glyph unicode="&#x2008;" horiz-adv-x="232" />
<glyph unicode="&#x2009;" horiz-adv-x="372" />
<glyph unicode="&#x200a;" horiz-adv-x="103" />
<glyph unicode="&#x2010;" horiz-adv-x="720" d="M133 483l8 99h426l-8 -99h-426z" />
<glyph unicode="&#x2011;" horiz-adv-x="720" d="M133 483l8 99h426l-8 -99h-426z" />
<glyph unicode="&#x2012;" horiz-adv-x="720" d="M133 483l8 99h426l-8 -99h-426z" />
<glyph unicode="&#x2013;" horiz-adv-x="1024" d="M-16 487l16 91h1024l-16 -91h-1024z" />
<glyph unicode="&#x2014;" horiz-adv-x="2048" d="M-16 487l16 91h2048l-16 -91h-2048z" />
<glyph unicode="&#x2018;" horiz-adv-x="569" d="M178 1257q0 74 25.5 128.5t64.5 93.5t87 65.5t96 46.5l34 -63q-31 -12 -61.5 -29.5t-55 -39t-40 -50.5t-15.5 -66q0 -29 10.5 -46t21.5 -32.5t21.5 -31.5t10.5 -45q0 -45 -30 -63.5t-58 -18.5q-53 0 -82 41t-29 110z" />
<glyph unicode="&#x2019;" horiz-adv-x="569" d="M147 1169q31 12 62 30t55.5 39.5t39.5 50t15 65.5q0 29 -10 46t-21.5 32.5t-21.5 32t-10 44.5q0 45 29.5 63.5t58.5 18.5q53 0 82 -41t29 -110q0 -74 -26 -128.5t-64.5 -93t-88 -65.5t-94.5 -47z" />
<glyph unicode="&#x201a;" horiz-adv-x="569" d="M39 -250q31 12 61.5 29.5t55 39t40 50.5t15.5 65q0 29 -10.5 46.5t-21.5 33t-21.5 31.5t-10.5 45q0 45 30 63.5t59 18.5q53 0 81.5 -41t28.5 -111q0 -74 -25.5 -128t-64.5 -93t-88 -65.5t-94 -46.5z" />
<glyph unicode="&#x201c;" horiz-adv-x="796" d="M145 1257q0 74 26 128.5t64.5 93.5t87 65.5t95.5 46.5l35 -63q-31 -12 -62 -29.5t-55.5 -39t-39.5 -50.5t-15 -66q0 -29 10 -46t21.5 -32.5t21.5 -31.5t10 -45q0 -45 -29.5 -63.5t-58.5 -18.5q-53 0 -82 41t-29 110zM541 1257q0 74 25.5 128.5t64.5 93.5t87 65.5t95 46.5 l35 -63q-31 -12 -61.5 -29.5t-55 -39t-40 -50.5t-15.5 -66q0 -29 10 -46t21.5 -32.5t21.5 -31.5t10 -45q0 -45 -29.5 -63.5t-58.5 -18.5q-53 0 -81.5 41t-28.5 110z" />
<glyph unicode="&#x201d;" horiz-adv-x="796" d="M104 1169q31 12 62 30t55.5 39.5t39.5 50t15 65.5q0 29 -10 46t-21.5 32.5t-21.5 32t-10 44.5q0 45 29.5 63.5t58.5 18.5q53 0 82 -41t29 -110q0 -74 -26 -128.5t-64.5 -93t-88 -65.5t-94.5 -47zM500 1169q31 12 61.5 30t55 39.5t40 50t15.5 65.5q0 29 -10.5 46 t-21.5 32.5t-21.5 32t-10.5 44.5q0 45 30 63.5t58 18.5q53 0 82 -41t29 -110q0 -74 -25.5 -128.5t-64.5 -93t-88 -65.5t-94 -47z" />
<glyph unicode="&#x201e;" horiz-adv-x="796" d="M-43 -250q31 12 61.5 29.5t55 39t40 50.5t15.5 65q0 29 -10 46.5t-21.5 33t-21.5 31.5t-10 45q0 45 29.5 63.5t58.5 18.5q53 0 81.5 -41t28.5 -111q0 -74 -25.5 -128t-64.5 -93t-88 -65.5t-94 -46.5zM336 -250q31 12 61.5 29.5t55 39t40 50.5t15.5 65q0 29 -10.5 46.5 t-21.5 33t-21.5 31.5t-10.5 45q0 45 30 63.5t58 18.5q53 0 82 -41t29 -111q0 -74 -25.5 -128t-64.5 -93t-88 -65.5t-94 -46.5z" />
<glyph unicode="&#x2022;" horiz-adv-x="1024" d="M154 717q0 74 27.5 139.5t76.5 114.5t114.5 76.5t139.5 27.5t139.5 -27.5t114.5 -76.5t76.5 -114.5t27.5 -139.5t-27.5 -139.5t-76.5 -114.5t-114.5 -77t-139.5 -28t-139.5 28t-114.5 77t-76.5 114.5t-27.5 139.5z" />
<glyph unicode="&#x2026;" horiz-adv-x="2048" d="M213 72q0 43 23.5 74.5t66.5 31.5q41 0 63.5 -28.5t22.5 -67.5q0 -43 -27.5 -68.5t-60.5 -25.5q-41 0 -64.5 24.5t-23.5 59.5zM895 72q0 43 23.5 74.5t66.5 31.5q41 0 63.5 -28.5t22.5 -67.5q0 -43 -27.5 -68.5t-60.5 -25.5q-41 0 -64.5 24.5t-23.5 59.5zM1577 72 q0 43 23.5 74.5t66.5 31.5q41 0 63.5 -28.5t22.5 -67.5q0 -43 -27.5 -68.5t-60.5 -25.5q-41 0 -64.5 24.5t-23.5 59.5z" />
<glyph unicode="&#x202f;" horiz-adv-x="372" />
<glyph unicode="&#x2039;" horiz-adv-x="606" d="M115 510l8 74l311 280l66 -65l-283 -256l236 -277l-76 -65z" />
<glyph unicode="&#x203a;" horiz-adv-x="606" d="M94 266l283 256l-236 277l76 65l262 -309l-8 -74l-311 -280z" />
<glyph unicode="&#x205f;" horiz-adv-x="465" />
<glyph unicode="&#x20ac;" d="M49 807l53 86h107q25 113 73 216t121.5 180t172 123t225.5 46q166 0 319 -57l-12 -271h-88l6 201q-104 41 -209 41q-111 0 -192.5 -39t-141 -104.5t-98.5 -152.5t-61 -183h710l-53 -86h-672q-4 -35 -7 -70t-3 -69h635l-53 -86h-582q8 -98 34.5 -192.5t77 -168.5 t130.5 -118t194 -44q82 0 162 18.5t158 43.5l-6 -94q-80 -27 -163 -42.5t-169 -15.5q-133 0 -230.5 51.5t-163 136.5t-100.5 195.5t-41 229.5h-131l53 86h78q2 35 4 69.5t7 69.5h-144z" />
<glyph unicode="&#x2122;" horiz-adv-x="2027" d="M147 1343v91h656v-91h-279v-753h-98v753h-279zM958 590v844h168l275 -695l266 695h168v-844h-98v753h-4l-306 -753h-61l-305 753h-4v-753h-99z" />
<glyph unicode="&#xe000;" horiz-adv-x="1054" d="M0 0v1055h1055v-1055h-1055z" />
</font>
</defs>
</svg>
